<svg width="377" height="216" viewBox="0 0 377 216" fill="none" xmlns="http://www.w3.org/2000/svg">
<line x1="1" y1="10.5" x2="376" y2="10.5" stroke="#F5F3F3" stroke-linecap="round"/>
<line x1="1" y1="48.2002" x2="376" y2="48.2002" stroke="#F5F3F3" stroke-linecap="round"/>
<line x1="1" y1="83.3999" x2="376" y2="83.3999" stroke="#F5F3F3" stroke-linecap="round"/>
<line x1="1" y1="118.6" x2="376" y2="118.6" stroke="#F5F3F3" stroke-linecap="round"/>
<line x1="1" y1="153.8" x2="376" y2="153.8" stroke="#F5F3F3" stroke-linecap="round"/>
<line x1="1" y1="189" x2="376" y2="189" stroke="#F5F3F3" stroke-linecap="round"/>
<path d="M13.6009 202.273H14.6577V208.511C14.6577 209.068 14.5554 209.541 14.3509 209.93C14.1463 210.32 13.858 210.615 13.4858 210.817C13.1136 211.018 12.6747 211.119 12.169 211.119C11.6918 211.119 11.267 211.033 10.8949 210.859C10.5227 210.683 10.2301 210.433 10.017 210.109C9.80398 209.786 9.69744 209.401 9.69744 208.955H10.7372C10.7372 209.202 10.7983 209.418 10.9205 209.602C11.0455 209.784 11.2159 209.926 11.4318 210.028C11.6477 210.131 11.8935 210.182 12.169 210.182C12.473 210.182 12.7315 210.118 12.9446 209.99C13.1577 209.862 13.3196 209.675 13.4304 209.428C13.544 209.178 13.6009 208.872 13.6009 208.511V202.273ZM18.5653 211.153C18.1506 211.153 17.7741 211.075 17.4361 210.919C17.098 210.76 16.8295 210.531 16.6307 210.233C16.4318 209.932 16.3324 209.568 16.3324 209.142C16.3324 208.767 16.4063 208.463 16.554 208.23C16.7017 207.994 16.8991 207.81 17.1463 207.676C17.3935 207.543 17.6662 207.443 17.9645 207.378C18.2656 207.31 18.5682 207.256 18.8722 207.216C19.2699 207.165 19.5923 207.126 19.8395 207.101C20.0895 207.072 20.2713 207.026 20.3849 206.96C20.5014 206.895 20.5597 206.781 20.5597 206.619V206.585C20.5597 206.165 20.4446 205.838 20.2145 205.605C19.9872 205.372 19.642 205.256 19.179 205.256C18.6989 205.256 18.3224 205.361 18.0497 205.571C17.777 205.781 17.5852 206.006 17.4744 206.244L16.5199 205.903C16.6903 205.506 16.9176 205.196 17.2017 204.974C17.4886 204.75 17.8011 204.594 18.1392 204.506C18.4801 204.415 18.8153 204.369 19.1449 204.369C19.3551 204.369 19.5966 204.395 19.8693 204.446C20.1449 204.494 20.4105 204.595 20.6662 204.749C20.9247 204.902 21.1392 205.134 21.3097 205.443C21.4801 205.753 21.5653 206.168 21.5653 206.688V211H20.5597V210.114H20.5085C20.4403 210.256 20.3267 210.408 20.1676 210.57C20.0085 210.732 19.7969 210.869 19.5327 210.983C19.2685 211.097 18.946 211.153 18.5653 211.153ZM18.7188 210.25C19.1165 210.25 19.4517 210.172 19.7244 210.016C20 209.859 20.2074 209.658 20.3466 209.411C20.4886 209.163 20.5597 208.903 20.5597 208.631V207.71C20.517 207.761 20.4233 207.808 20.2784 207.851C20.1364 207.891 19.9716 207.926 19.7841 207.957C19.5994 207.986 19.419 208.011 19.2429 208.034C19.0696 208.054 18.929 208.071 18.821 208.085C18.5597 208.119 18.3153 208.175 18.0881 208.251C17.8636 208.325 17.6818 208.437 17.5426 208.588C17.4063 208.736 17.3381 208.937 17.3381 209.193C17.3381 209.543 17.4673 209.807 17.7259 209.986C17.9872 210.162 18.3182 210.25 18.7188 210.25ZM24.4066 207.062V211H23.4009V204.455H24.3725V205.477H24.4577C24.6112 205.145 24.8441 204.878 25.1566 204.676C25.4691 204.472 25.8725 204.369 26.3668 204.369C26.81 204.369 27.1978 204.46 27.5302 204.642C27.8626 204.821 28.1211 205.094 28.3058 205.46C28.4904 205.824 28.5827 206.284 28.5827 206.841V211H27.5771V206.909C27.5771 206.395 27.4435 205.994 27.1765 205.707C26.9094 205.418 26.543 205.273 26.0771 205.273C25.756 205.273 25.4691 205.342 25.2163 205.482C24.9663 205.621 24.7688 205.824 24.6239 206.091C24.479 206.358 24.4066 206.682 24.4066 207.062Z" fill="#625353"/>
<path d="M65.3224 202.273H66.5838L69.5497 209.517H69.652L72.6179 202.273H73.8793V211H72.8906V204.369H72.8054L70.0781 211H69.1236L66.3963 204.369H66.3111V211H65.3224V202.273ZM77.788 211.153C77.3732 211.153 76.9968 211.075 76.6587 210.919C76.3207 210.76 76.0522 210.531 75.8533 210.233C75.6545 209.932 75.555 209.568 75.555 209.142C75.555 208.767 75.6289 208.463 75.7766 208.23C75.9244 207.994 76.1218 207.81 76.369 207.676C76.6161 207.543 76.8888 207.443 77.1871 207.378C77.4883 207.31 77.7908 207.256 78.0948 207.216C78.4925 207.165 78.815 207.126 79.0621 207.101C79.3121 207.072 79.494 207.026 79.6076 206.96C79.7241 206.895 79.7823 206.781 79.7823 206.619V206.585C79.7823 206.165 79.6673 205.838 79.4371 205.605C79.2099 205.372 78.8647 205.256 78.4016 205.256C77.9215 205.256 77.5451 205.361 77.2724 205.571C76.9996 205.781 76.8079 206.006 76.6971 206.244L75.7425 205.903C75.913 205.506 76.1403 205.196 76.4244 204.974C76.7113 204.75 77.0238 204.594 77.3619 204.506C77.7028 204.415 78.038 204.369 78.3675 204.369C78.5778 204.369 78.8192 204.395 79.092 204.446C79.3675 204.494 79.6332 204.595 79.8888 204.749C80.1474 204.902 80.3619 205.134 80.5323 205.443C80.7028 205.753 80.788 206.168 80.788 206.688V211H79.7823V210.114H79.7312C79.663 210.256 79.5494 210.408 79.3903 210.57C79.2312 210.732 79.0195 210.869 78.7553 210.983C78.4911 211.097 78.1687 211.153 77.788 211.153ZM77.9414 210.25C78.3391 210.25 78.6744 210.172 78.9471 210.016C79.2227 209.859 79.43 209.658 79.5692 209.411C79.7113 209.163 79.7823 208.903 79.7823 208.631V207.71C79.7397 207.761 79.646 207.808 79.5011 207.851C79.359 207.891 79.1942 207.926 79.0067 207.957C78.8221 207.986 78.6417 208.011 78.4656 208.034C78.2923 208.054 78.1516 208.071 78.0437 208.085C77.7823 208.119 77.538 208.175 77.3107 208.251C77.0863 208.325 76.9045 208.437 76.7653 208.588C76.6289 208.736 76.5607 208.937 76.5607 209.193C76.5607 209.543 76.69 209.807 76.9485 209.986C77.2099 210.162 77.5408 210.25 77.9414 210.25ZM82.6236 211V204.455H83.5952V205.443H83.6634C83.7827 205.119 83.9986 204.857 84.3111 204.655C84.6236 204.453 84.9759 204.352 85.3679 204.352C85.4418 204.352 85.5341 204.354 85.6449 204.357C85.7557 204.359 85.8395 204.364 85.8963 204.369V205.392C85.8622 205.384 85.7841 205.371 85.6619 205.354C85.5426 205.334 85.4162 205.324 85.2827 205.324C84.9645 205.324 84.6804 205.391 84.4304 205.524C84.1832 205.655 83.9872 205.837 83.8423 206.07C83.7003 206.3 83.6293 206.562 83.6293 206.858V211H82.6236Z" fill="#625353"/>
<path d="M122.006 202.273H123.267L126.233 209.517H126.336L129.301 202.273H130.563V211H129.574V204.369H129.489L126.762 211H125.807L123.08 204.369H122.995V211H122.006V202.273ZM134.472 211.153C134.057 211.153 133.68 211.075 133.342 210.919C133.004 210.76 132.736 210.531 132.537 210.233C132.338 209.932 132.239 209.568 132.239 209.142C132.239 208.767 132.313 208.463 132.46 208.23C132.608 207.994 132.805 207.81 133.053 207.676C133.3 207.543 133.572 207.443 133.871 207.378C134.172 207.31 134.474 207.256 134.778 207.216C135.176 207.165 135.499 207.126 135.746 207.101C135.996 207.072 136.178 207.026 136.291 206.96C136.408 206.895 136.466 206.781 136.466 206.619V206.585C136.466 206.165 136.351 205.838 136.121 205.605C135.893 205.372 135.548 205.256 135.085 205.256C134.605 205.256 134.229 205.361 133.956 205.571C133.683 205.781 133.491 206.006 133.381 206.244L132.426 205.903C132.597 205.506 132.824 205.196 133.108 204.974C133.395 204.75 133.707 204.594 134.045 204.506C134.386 204.415 134.722 204.369 135.051 204.369C135.261 204.369 135.503 204.395 135.776 204.446C136.051 204.494 136.317 204.595 136.572 204.749C136.831 204.902 137.045 205.134 137.216 205.443C137.386 205.753 137.472 206.168 137.472 206.688V211H136.466V210.114H136.415C136.347 210.256 136.233 210.408 136.074 210.57C135.915 210.732 135.703 210.869 135.439 210.983C135.175 211.097 134.852 211.153 134.472 211.153ZM134.625 210.25C135.023 210.25 135.358 210.172 135.631 210.016C135.906 209.859 136.114 209.658 136.253 209.411C136.395 209.163 136.466 208.903 136.466 208.631V207.71C136.423 207.761 136.33 207.808 136.185 207.851C136.043 207.891 135.878 207.926 135.69 207.957C135.506 207.986 135.325 208.011 135.149 208.034C134.976 208.054 134.835 208.071 134.727 208.085C134.466 208.119 134.222 208.175 133.994 208.251C133.77 208.325 133.588 208.437 133.449 208.588C133.313 208.736 133.244 208.937 133.244 209.193C133.244 209.543 133.374 209.807 133.632 209.986C133.893 210.162 134.224 210.25 134.625 210.25ZM139.721 213.455C139.55 213.455 139.398 213.44 139.265 213.412C139.131 213.386 139.039 213.361 138.988 213.335L139.243 212.449C139.488 212.511 139.703 212.534 139.891 212.517C140.078 212.5 140.245 212.416 140.39 212.266C140.537 212.118 140.672 211.878 140.794 211.545L140.982 211.034L138.561 204.455H139.652L141.459 209.67H141.527L143.334 204.455H144.425L141.647 211.955C141.522 212.293 141.367 212.572 141.182 212.794C140.998 213.018 140.783 213.185 140.539 213.293C140.297 213.401 140.025 213.455 139.721 213.455Z" fill="#625353"/>
<path d="M184.562 202.273H185.619V208.511C185.619 209.068 185.516 209.541 185.312 209.93C185.107 210.32 184.819 210.615 184.447 210.817C184.075 211.018 183.636 211.119 183.13 211.119C182.653 211.119 182.228 211.033 181.856 210.859C181.484 210.683 181.191 210.433 180.978 210.109C180.765 209.786 180.658 209.401 180.658 208.955H181.698C181.698 209.202 181.759 209.418 181.881 209.602C182.006 209.784 182.177 209.926 182.393 210.028C182.609 210.131 182.854 210.182 183.13 210.182C183.434 210.182 183.692 210.118 183.906 209.99C184.119 209.862 184.281 209.675 184.391 209.428C184.505 209.178 184.562 208.872 184.562 208.511V202.273ZM191.725 208.324V204.455H192.731V211H191.725V209.892H191.657C191.504 210.224 191.265 210.507 190.941 210.74C190.617 210.97 190.208 211.085 189.714 211.085C189.305 211.085 188.941 210.996 188.623 210.817C188.305 210.635 188.055 210.362 187.873 209.999C187.691 209.632 187.6 209.17 187.6 208.614V204.455H188.606V208.545C188.606 209.023 188.739 209.403 189.006 209.688C189.276 209.972 189.62 210.114 190.038 210.114C190.288 210.114 190.542 210.05 190.8 209.922C191.062 209.794 191.281 209.598 191.457 209.334C191.636 209.07 191.725 208.733 191.725 208.324ZM195.578 202.273V211H194.573V202.273H195.578Z" fill="#625353"/>
<path d="M237.048 204.455C236.997 204.023 236.79 203.688 236.426 203.449C236.063 203.21 235.616 203.091 235.088 203.091C234.702 203.091 234.364 203.153 234.074 203.278C233.787 203.403 233.563 203.575 233.401 203.794C233.241 204.013 233.162 204.261 233.162 204.54C233.162 204.773 233.217 204.973 233.328 205.141C233.442 205.305 233.587 205.443 233.763 205.554C233.939 205.662 234.124 205.751 234.317 205.822C234.51 205.891 234.688 205.946 234.849 205.989L235.736 206.227C235.963 206.287 236.216 206.369 236.494 206.474C236.776 206.58 237.044 206.723 237.3 206.905C237.558 207.084 237.771 207.314 237.939 207.595C238.107 207.876 238.19 208.222 238.19 208.631C238.19 209.102 238.067 209.528 237.82 209.909C237.575 210.29 237.217 210.592 236.746 210.817C236.277 211.041 235.707 211.153 235.037 211.153C234.412 211.153 233.871 211.053 233.413 210.851C232.959 210.649 232.601 210.368 232.339 210.007C232.081 209.646 231.935 209.227 231.901 208.75H232.991C233.02 209.08 233.131 209.352 233.324 209.568C233.52 209.781 233.767 209.94 234.065 210.045C234.366 210.148 234.69 210.199 235.037 210.199C235.44 210.199 235.803 210.134 236.124 210.003C236.445 209.869 236.699 209.685 236.886 209.449C237.074 209.21 237.168 208.932 237.168 208.614C237.168 208.324 237.087 208.088 236.925 207.906C236.763 207.724 236.55 207.577 236.286 207.463C236.021 207.349 235.736 207.25 235.429 207.165L234.355 206.858C233.673 206.662 233.134 206.382 232.736 206.018C232.338 205.655 232.139 205.179 232.139 204.591C232.139 204.102 232.271 203.676 232.536 203.312C232.803 202.946 233.161 202.662 233.609 202.46C234.061 202.256 234.565 202.153 235.122 202.153C235.685 202.153 236.185 202.254 236.622 202.456C237.06 202.655 237.406 202.928 237.662 203.274C237.92 203.621 238.057 204.014 238.071 204.455H237.048ZM242.536 211.136C241.905 211.136 241.361 210.997 240.904 210.719C240.449 210.438 240.098 210.045 239.851 209.543C239.607 209.037 239.485 208.449 239.485 207.778C239.485 207.108 239.607 206.517 239.851 206.006C240.098 205.491 240.442 205.091 240.882 204.804C241.326 204.514 241.843 204.369 242.434 204.369C242.775 204.369 243.111 204.426 243.444 204.54C243.776 204.653 244.078 204.838 244.351 205.094C244.624 205.347 244.841 205.682 245.003 206.099C245.165 206.517 245.246 207.031 245.246 207.642V208.068H240.201V207.199H244.223C244.223 206.83 244.15 206.5 244.002 206.21C243.857 205.92 243.65 205.692 243.38 205.524C243.113 205.357 242.797 205.273 242.434 205.273C242.033 205.273 241.686 205.372 241.394 205.571C241.104 205.767 240.881 206.023 240.725 206.338C240.569 206.653 240.49 206.991 240.49 207.352V207.932C240.49 208.426 240.576 208.845 240.746 209.189C240.919 209.53 241.159 209.79 241.466 209.969C241.773 210.145 242.13 210.233 242.536 210.233C242.8 210.233 243.039 210.196 243.252 210.122C243.468 210.045 243.654 209.932 243.81 209.781C243.966 209.628 244.087 209.437 244.172 209.21L245.144 209.483C245.042 209.812 244.87 210.102 244.628 210.352C244.387 210.599 244.088 210.793 243.733 210.932C243.378 211.068 242.979 211.136 242.536 211.136ZM246.776 213.455V204.455H247.748V205.494H247.867C247.941 205.381 248.043 205.236 248.174 205.06C248.307 204.881 248.498 204.722 248.745 204.582C248.995 204.44 249.333 204.369 249.759 204.369C250.31 204.369 250.796 204.507 251.216 204.783C251.637 205.058 251.965 205.449 252.201 205.955C252.436 206.46 252.554 207.057 252.554 207.744C252.554 208.438 252.436 209.038 252.201 209.547C251.965 210.053 251.638 210.445 251.221 210.723C250.803 210.999 250.321 211.136 249.776 211.136C249.355 211.136 249.019 211.067 248.766 210.928C248.513 210.786 248.319 210.625 248.182 210.446C248.046 210.264 247.941 210.114 247.867 209.994H247.782V213.455H246.776ZM247.765 207.727C247.765 208.222 247.837 208.658 247.982 209.036C248.127 209.411 248.338 209.705 248.617 209.918C248.895 210.128 249.236 210.233 249.64 210.233C250.06 210.233 250.411 210.122 250.692 209.901C250.976 209.676 251.189 209.375 251.331 208.997C251.476 208.616 251.549 208.193 251.549 207.727C251.549 207.267 251.478 206.852 251.336 206.483C251.196 206.111 250.985 205.817 250.701 205.601C250.419 205.382 250.066 205.273 249.64 205.273C249.23 205.273 248.887 205.376 248.608 205.584C248.33 205.788 248.12 206.075 247.978 206.445C247.836 206.811 247.765 207.239 247.765 207.727Z" fill="#625353"/>
<path d="M296.169 202.273V211H295.146L290.39 204.148H290.305V211H289.248V202.273H290.271L295.044 209.142H295.129V202.273H296.169ZM300.806 211.136C300.215 211.136 299.697 210.996 299.251 210.714C298.808 210.433 298.461 210.04 298.211 209.534C297.964 209.028 297.84 208.437 297.84 207.761C297.84 207.08 297.964 206.484 298.211 205.976C298.461 205.467 298.808 205.072 299.251 204.791C299.697 204.51 300.215 204.369 300.806 204.369C301.397 204.369 301.914 204.51 302.357 204.791C302.803 205.072 303.15 205.467 303.397 205.976C303.647 206.484 303.772 207.08 303.772 207.761C303.772 208.437 303.647 209.028 303.397 209.534C303.15 210.04 302.803 210.433 302.357 210.714C301.914 210.996 301.397 211.136 300.806 211.136ZM300.806 210.233C301.255 210.233 301.624 210.118 301.914 209.888C302.204 209.658 302.418 209.355 302.558 208.98C302.697 208.605 302.766 208.199 302.766 207.761C302.766 207.324 302.697 206.916 302.558 206.538C302.418 206.161 302.204 205.855 301.914 205.622C301.624 205.389 301.255 205.273 300.806 205.273C300.357 205.273 299.988 205.389 299.698 205.622C299.408 205.855 299.194 206.161 299.055 206.538C298.915 206.916 298.846 207.324 298.846 207.761C298.846 208.199 298.915 208.605 299.055 208.98C299.194 209.355 299.408 209.658 299.698 209.888C299.988 210.118 300.357 210.233 300.806 210.233ZM310.425 204.455L308.005 211H306.982L304.561 204.455H305.652L307.459 209.67H307.527L309.334 204.455H310.425Z" fill="#625353"/>
<path d="M349.938 211H347.244V202.273H350.057C350.903 202.273 351.628 202.447 352.23 202.797C352.832 203.143 353.294 203.642 353.615 204.293C353.936 204.94 354.097 205.716 354.097 206.619C354.097 207.528 353.935 208.311 353.611 208.967C353.287 209.621 352.815 210.124 352.196 210.476C351.577 210.825 350.824 211 349.938 211ZM348.301 210.062H349.869C350.591 210.062 351.189 209.923 351.663 209.645C352.138 209.366 352.491 208.97 352.724 208.456C352.957 207.942 353.074 207.33 353.074 206.619C353.074 205.915 352.959 205.308 352.729 204.8C352.499 204.288 352.155 203.896 351.697 203.624C351.24 203.348 350.67 203.21 349.989 203.21H348.301V210.062ZM358.477 211.136C357.847 211.136 357.303 210.997 356.845 210.719C356.391 210.438 356.04 210.045 355.793 209.543C355.548 209.037 355.426 208.449 355.426 207.778C355.426 207.108 355.548 206.517 355.793 206.006C356.04 205.491 356.384 205.091 356.824 204.804C357.267 204.514 357.784 204.369 358.375 204.369C358.716 204.369 359.053 204.426 359.385 204.54C359.717 204.653 360.02 204.838 360.293 205.094C360.565 205.347 360.783 205.682 360.945 206.099C361.107 206.517 361.188 207.031 361.188 207.642V208.068H356.142V207.199H360.165C360.165 206.83 360.091 206.5 359.943 206.21C359.798 205.92 359.591 205.692 359.321 205.524C359.054 205.357 358.739 205.273 358.375 205.273C357.974 205.273 357.628 205.372 357.335 205.571C357.045 205.767 356.822 206.023 356.666 206.338C356.51 206.653 356.432 206.991 356.432 207.352V207.932C356.432 208.426 356.517 208.845 356.688 209.189C356.861 209.53 357.101 209.79 357.408 209.969C357.714 210.145 358.071 210.233 358.477 210.233C358.741 210.233 358.98 210.196 359.193 210.122C359.409 210.045 359.595 209.932 359.751 209.781C359.908 209.628 360.028 209.437 360.114 209.21L361.085 209.483C360.983 209.812 360.811 210.102 360.57 210.352C360.328 210.599 360.03 210.793 359.675 210.932C359.32 211.068 358.92 211.136 358.477 211.136ZM365.376 211.136C364.763 211.136 364.234 210.991 363.791 210.702C363.348 210.412 363.007 210.013 362.768 209.504C362.53 208.996 362.411 208.415 362.411 207.761C362.411 207.097 362.533 206.51 362.777 206.001C363.024 205.49 363.368 205.091 363.808 204.804C364.251 204.514 364.768 204.369 365.359 204.369C365.82 204.369 366.234 204.455 366.604 204.625C366.973 204.795 367.276 205.034 367.511 205.341C367.747 205.648 367.893 206.006 367.95 206.415H366.945C366.868 206.116 366.697 205.852 366.433 205.622C366.172 205.389 365.82 205.273 365.376 205.273C364.984 205.273 364.641 205.375 364.345 205.58C364.053 205.781 363.824 206.067 363.659 206.436C363.497 206.803 363.416 207.233 363.416 207.727C363.416 208.233 363.496 208.673 363.655 209.048C363.817 209.423 364.044 209.714 364.337 209.922C364.632 210.129 364.979 210.233 365.376 210.233C365.638 210.233 365.875 210.188 366.088 210.097C366.301 210.006 366.482 209.875 366.629 209.705C366.777 209.534 366.882 209.33 366.945 209.091H367.95C367.893 209.477 367.753 209.825 367.528 210.135C367.307 210.442 367.013 210.686 366.646 210.868C366.283 211.047 365.859 211.136 365.376 211.136Z" fill="#625353"/>
<g clip-path="url(#clip0_8772_25122)">
<path d="M0.5 83.6719L9.02125 80.5114L17.8088 79.0369L26.5963 81.9859L35.6501 80.5114H44.704L53.4915 79.0369H61.7465L70.2677 77.071L78.7889 79.0369L88.9079 75.5965L96.364 77.071L104.353 75.5965L112.341 74.122L122.46 75.5965L129.916 74.122L136.84 71.173L146.16 68.2241L155.48 65.7666H164.8L174.653 64.2921L181.576 65.7666H185.571L192.228 68.2241L199.95 72.6475L207.939 74.122H210.868L217.525 68.2241L224.449 65.7666L230.574 64.2921L242.557 62.8176L246.551 59.3772L255.339 57.9027L265.458 56.4282H269.718C271.405 56.9197 274.884 57.9027 275.31 57.9027C275.736 57.9027 281.169 58.8857 283.831 59.3772L290.755 62.8176H299.01L306.999 59.3772L312.591 60.8516L323.242 62.8176L329.899 60.8516L341.35 59.3772C342.681 58.8857 345.451 57.9027 345.877 57.9027C346.303 57.9027 349.25 56.2644 350.67 55.4452H355.996L359.99 50.5303H368.511L376.5 45.2812" stroke="#514141" stroke-width="2" stroke-linecap="round" stroke-linejoin="round"/>
<path d="M0.5 121.907L9.02125 119.894L17.8088 118.955L26.5963 120.833L35.6501 119.894H44.704L53.4915 118.955H61.7465L70.2677 117.703L78.7889 118.955L88.9079 116.764L96.364 117.703L104.353 116.764L112.341 115.824L122.46 116.764L129.916 115.824L136.84 113.946L146.16 112.067L155.48 110.502H164.8L174.653 109.563L181.576 110.502H185.571L192.228 112.067L199.95 114.885L207.939 115.824H210.868L217.525 112.067L224.449 110.502L230.574 109.563L242.557 108.624L246.551 106.432L255.339 105.493L265.458 104.554H269.718C271.405 104.867 274.884 105.493 275.31 105.493C275.736 105.493 281.169 106.119 283.831 106.432L290.755 108.624H299.01L306.999 106.432L312.591 107.371L323.242 108.624L329.899 107.371L341.35 106.432C342.681 106.119 345.451 105.493 345.877 105.493C346.303 105.493 349.25 104.449 350.67 103.927H355.996L359.99 100.797H368.511L376.5 97.4531" stroke="#807171" stroke-width="2" stroke-linecap="round" stroke-linejoin="round"/>
<path d="M0.5 170.297L9.02125 164.948L17.8088 162.453L26.5963 167.444L35.6501 164.948H44.704L53.4915 162.453H61.7465L70.2677 159.126L78.7889 162.453L88.9079 156.631L96.364 159.126L104.353 156.631L112.341 154.136L122.46 156.631L129.916 154.136L136.84 149.145L146.16 144.154L155.48 139.996H164.8L174.653 137.5L181.576 139.996H185.571L192.228 144.154L199.95 151.64L207.939 154.136H210.868L217.525 144.154L224.449 139.996L230.574 137.5L242.557 135.005L246.551 129.183L255.339 126.687L265.458 124.192H269.718C271.405 125.024 274.884 126.687 275.31 126.687C275.736 126.687 281.169 128.351 283.831 129.183L290.755 135.005H299.01L306.999 129.183L312.591 131.678L323.242 135.005L329.899 131.678L341.35 129.183C342.681 128.351 345.451 126.687 345.877 126.687C346.303 126.687 349.25 123.915 350.67 122.529H355.996L359.99 114.211H368.511L376.5 105.328" stroke="#372525" stroke-width="2" stroke-linecap="round" stroke-linejoin="round"/>
</g>
<defs>
<clipPath id="clip0_8772_25122">
<rect width="376" height="189" fill="white" transform="translate(0.5)"/>
</clipPath>
</defs>
</svg>
