<?xml version="1.0" encoding="utf-8"?><svg xmlns="http://www.w3.org/2000/svg" xmlns:xlink="http://www.w3.org/1999/xlink"><symbol fill="none" viewBox="0 0 20 20" id="alert" xmlns="http://www.w3.org/2000/svg"><path d="M18.334 6.666V10M8.542 4.583H5.667c-1.4 0-2.1 0-2.635.272a2.5 2.5 0 0 0-1.093 1.093c-.272.535-.272 1.235-.272 2.635v1c0 .777 0 1.165.127 1.471.169.409.493.733.902.902.306.127.694.127 1.471.127v3.542c0 .193 0 .29.008.371a1.667 1.667 0 0 0 1.495 1.496c.082.008.179.008.372.008s.29 0 .372-.008a1.667 1.667 0 0 0 1.495-1.496c.008-.081.008-.178.008-.371v-3.542h.625c1.472 0 3.273.79 4.662 1.546.81.442 1.216.663 1.481.63a.789.789 0 0 0 .576-.342c.156-.217.156-.652.156-1.523V4.272c0-.87 0-1.306-.156-1.523a.788.788 0 0 0-.576-.343c-.265-.032-.67.189-1.481.63-1.39.758-3.19 1.547-4.662 1.547Z" stroke="#667085" stroke-width="1.667" stroke-linecap="round" stroke-linejoin="round"/></symbol><symbol fill="none" viewBox="0 0 12 12" id="alert-octagon" xmlns="http://www.w3.org/2000/svg"><g clip-path="url(#aaa)"><path d="M6 4v2m0 2h.005M1 4.261V7.74c0 .122 0 .183.014.24a.5.5 0 0 0 .06.145c.03.05.074.094.16.18l2.462 2.462c.086.086.13.13.18.16a.502.502 0 0 0 .144.06c.058.014.12.014.241.014H7.74c.122 0 .183 0 .24-.014a.502.502 0 0 0 .145-.06c.05-.03.094-.074.18-.16l2.462-2.462c.086-.086.13-.13.16-.18a.502.502 0 0 0 .06-.144C11 7.922 11 7.86 11 7.739V4.26c0-.122 0-.183-.014-.24a.502.502 0 0 0-.06-.145 1.067 1.067 0 0 0-.16-.18L8.304 1.234a1.07 1.07 0 0 0-.18-.16.5.5 0 0 0-.144-.06C7.922 1 7.86 1 7.739 1H4.26c-.122 0-.183 0-.24.014a.5.5 0 0 0-.145.06c-.05.03-.094.074-.18.16L1.234 3.696c-.086.086-.13.13-.16.18a.5.5 0 0 0-.06.144C1 4.078 1 4.14 1 4.261Z" stroke="#F04438" stroke-width="1.5" stroke-linecap="round" stroke-linejoin="round"/></g><defs><clipPath id="aaa"><path fill="#fff" d="M0 0h12v12H0z"/></clipPath></defs></symbol><symbol fill="none" viewBox="0 0 12 12" id="alert-triangle" xmlns="http://www.w3.org/2000/svg"><path d="M6 4.5v2m0 2h.005m-.697-6.554L1.195 9.049c-.228.394-.342.591-.325.753a.5.5 0 0 0 .203.353c.132.095.36.095.814.095h8.225c.456 0 .683 0 .815-.095a.5.5 0 0 0 .203-.353c.017-.162-.097-.359-.325-.753L6.692 1.946c-.227-.393-.34-.589-.489-.655a.5.5 0 0 0-.406 0c-.149.066-.262.262-.49.655Z" stroke="#F79009" stroke-width="1.5" stroke-linecap="round" stroke-linejoin="round"/></symbol><symbol fill="none" viewBox="0 0 20 20" id="announcement" xmlns="http://www.w3.org/2000/svg"><path d="M18.334 6.666V10M8.542 4.583H5.667c-1.4 0-2.1 0-2.635.272a2.5 2.5 0 0 0-1.093 1.093c-.272.535-.272 1.235-.272 2.635v1c0 .777 0 1.165.127 1.471.169.409.493.733.902.902.306.127.694.127 1.471.127v3.542c0 .193 0 .29.008.371a1.667 1.667 0 0 0 1.495 1.496c.082.008.179.008.372.008s.29 0 .372-.008a1.667 1.667 0 0 0 1.495-1.496c.008-.081.008-.178.008-.371v-3.542h.625c1.472 0 3.273.79 4.662 1.546.81.442 1.216.663 1.481.63a.789.789 0 0 0 .576-.342c.156-.217.156-.652.156-1.523V4.272c0-.87 0-1.306-.156-1.523a.788.788 0 0 0-.576-.343c-.265-.032-.67.189-1.481.63-1.39.758-3.19 1.547-4.662 1.547Z" stroke="#667085" stroke-width="1.667" stroke-linecap="round" stroke-linejoin="round"/></symbol><symbol fill="none" viewBox="0 0 16 16" id="arrowdown" xmlns="http://www.w3.org/2000/svg"><path d="M8 3.333v9.334m0 0L12.667 8M8 12.667 3.333 8" stroke="#667085" stroke-width="1.333" stroke-linecap="round" stroke-linejoin="round"/></symbol><symbol fill="none" viewBox="0 0 20 20" id="arrowleft" xmlns="http://www.w3.org/2000/svg"><path d="M15.833 10H4.167m0 0L10 15.833M4.167 10 10 4.167" stroke="#667085" stroke-width="1.667" stroke-linecap="round" stroke-linejoin="round"/></symbol><symbol fill="none" viewBox="0 0 20 21" id="arrowright" xmlns="http://www.w3.org/2000/svg"><path d="M3.333 10.5h13.334m0 0-5-5m5 5-5 5" stroke="#667085" stroke-width="1.667" stroke-linecap="round" stroke-linejoin="round"/></symbol><symbol fill="none" viewBox="0 0 12 13" id="arrowup" xmlns="http://www.w3.org/2000/svg"><path d="M6 10V3m0 0L2.5 6.5M6 3l3.5 3.5" stroke="#667085" stroke-width="1.5" stroke-linecap="round" stroke-linejoin="round"/></symbol><symbol fill="none" viewBox="0 0 24 24" id="arrowupright" xmlns="http://www.w3.org/2000/svg"><path d="M7 17 17 7m0 0H7m10 0v10" stroke="#2B3674" stroke-width="2" stroke-linecap="round" stroke-linejoin="round"/></symbol><symbol fill="none" viewBox="0 0 20 20" id="bank" xmlns="http://www.w3.org/2000/svg"><path d="M4.167 7.5v6.667M7.917 7.5v6.667M12.083 7.5v6.667m3.75-6.667v6.667M2.5 15.5v.667c0 .466 0 .7.09.878.08.157.208.284.365.364.178.091.412.091.878.091h12.334c.466 0 .7 0 .878-.09a.833.833 0 0 0 .364-.365c.091-.178.091-.412.091-.878V15.5c0-.467 0-.7-.09-.878a.833.833 0 0 0-.365-.364c-.178-.091-.412-.091-.878-.091H3.833c-.466 0-.7 0-.878.09a.833.833 0 0 0-.364.365c-.091.178-.091.411-.091.878ZM9.71 2.564l-6.166 1.37c-.372.083-.559.125-.698.225a.833.833 0 0 0-.278.347c-.068.158-.068.349-.068.73v.93c0 .467 0 .7.09.879.08.157.208.284.365.364.178.091.412.091.878.091h12.334c.466 0 .7 0 .878-.09a.833.833 0 0 0 .364-.365c.091-.178.091-.412.091-.878v-.93c0-.382 0-.573-.068-.73a.834.834 0 0 0-.278-.348c-.14-.1-.326-.142-.698-.224l-6.167-1.37a1.735 1.735 0 0 0-.216-.041.833.833 0 0 0-.146 0c-.054.004-.108.016-.216.04Z" stroke="#667085" stroke-width="1.667" stroke-linecap="round" stroke-linejoin="round"/></symbol><symbol fill="none" viewBox="0 0 24 24" id="barchart" xmlns="http://www.w3.org/2000/svg"><path d="M18.25 20V10m-6 10V4m-6 16v-6" stroke="#667085" stroke-width="2" stroke-linecap="round" stroke-linejoin="round"/></symbol><symbol fill="none" viewBox="0 0 18 22" id="beaker" xmlns="http://www.w3.org/2000/svg"><path d="M7 1v4.66c0 .218 0 .326-.033.413a.47.47 0 0 1-.138.198c-.07.06-.183.102-.409.185a7.5 7.5 0 1 0 5.16 0c-.226-.083-.339-.125-.409-.185a.469.469 0 0 1-.138-.198C11 5.986 11 5.878 11 5.66V1M5.5 1h7" stroke="#667085" stroke-width="2" stroke-linecap="round" stroke-linejoin="round"/></symbol><symbol fill="none" viewBox="0 0 20 20" id="board" xmlns="http://www.w3.org/2000/svg"><path d="M7.5 2.5v15m5-15v15m-6-15h7c1.4 0 2.1 0 2.635.272a2.5 2.5 0 0 1 1.092 1.093C17.5 4.4 17.5 5.1 17.5 6.5v7c0 1.4 0 2.1-.273 2.635a2.5 2.5 0 0 1-1.092 1.092c-.535.273-1.235.273-2.635.273h-7c-1.4 0-2.1 0-2.635-.273a2.5 2.5 0 0 1-1.093-1.092C2.5 15.6 2.5 14.9 2.5 13.5v-7c0-1.4 0-2.1.272-2.635a2.5 2.5 0 0 1 1.093-1.093C4.4 2.5 5.1 2.5 6.5 2.5Z" stroke="#344054" stroke-width="1.667" stroke-linecap="round" stroke-linejoin="round"/></symbol><symbol fill="none" viewBox="0 0 20 20" id="building" xmlns="http://www.w3.org/2000/svg"><path d="M9.166 9.167h-4c-.933 0-1.4 0-1.756.181-.314.16-.569.415-.729.729-.181.356-.181.823-.181 1.756V17.5m15 0V5.167c0-.934 0-1.4-.182-1.757a1.667 1.667 0 0 0-.728-.728c-.357-.182-.823-.182-1.757-.182h-3c-.933 0-1.4 0-1.757.182-.313.16-.568.414-.728.728-.182.357-.182.823-.182 1.757V17.5m9.167 0H1.667M12.082 5.833h2.5m-2.5 3.334h2.5m-2.5 3.333h2.5" stroke="#155EEF" stroke-width="1.667" stroke-linecap="round" stroke-linejoin="round"/></symbol><symbol fill="none" viewBox="0 0 29 28" id="calendar" xmlns="http://www.w3.org/2000/svg"><path d="M25 11.666H4m15.167-9.333V7M9.833 2.333V7M9.6 25.666h9.8c1.96 0 2.94 0 3.689-.381a3.5 3.5 0 0 0 1.53-1.53c.381-.748.381-1.729.381-3.689v-9.8c0-1.96 0-2.94-.381-3.689a3.5 3.5 0 0 0-1.53-1.53c-.749-.38-1.729-.38-3.689-.38H9.6c-1.96 0-2.94 0-3.689.38a3.5 3.5 0 0 0-1.53 1.53C4 7.327 4 8.307 4 10.267v9.8c0 1.96 0 2.94.381 3.688a3.5 3.5 0 0 0 1.53 1.53c.749.381 1.729.381 3.689.381Z" stroke="#667085" stroke-width="2" stroke-linecap="round" stroke-linejoin="round"/></symbol><symbol fill="none" viewBox="0 0 12 13" id="check" xmlns="http://www.w3.org/2000/svg"><path d="m10 3.72-5.5 5.5L2 6.72" stroke="#12B76A" stroke-width="1.5" stroke-linecap="round" stroke-linejoin="round"/></symbol><symbol fill="none" viewBox="0 0 20 20" id="chevrondown" xmlns="http://www.w3.org/2000/svg"><path d="m5 7.5 5 5 5-5" stroke="#667085" stroke-width="2" stroke-linecap="round" stroke-linejoin="round"/></symbol><symbol fill="none" viewBox="0 0 20 20" id="chevronleft" xmlns="http://www.w3.org/2000/svg"><path d="m12.5 15-5-5 5-5" stroke="#667085" stroke-width="1.667" stroke-linecap="round" stroke-linejoin="round"/></symbol><symbol fill="none" viewBox="0 0 15 15" id="chevronright" xmlns="http://www.w3.org/2000/svg"><path d="M4 10.417 6.917 7.5 4 4.583m4.083 5.834L11 7.5 8.083 4.583" stroke="#fff" stroke-linecap="round" stroke-linejoin="round"/></symbol><symbol fill="none" viewBox="0 0 24 24" id="chevronup" xmlns="http://www.w3.org/2000/svg"><path d="m15 12.5-5-5-5 5" stroke="#667085" stroke-width="2" stroke-linecap="round" stroke-linejoin="round"/></symbol><symbol fill="none" viewBox="0 0 20 20" id="circle" xmlns="http://www.w3.org/2000/svg"><circle cx="10" cy="10" r="10" fill="#C9BDFF"/></symbol><symbol fill="none" viewBox="0 0 18 18" id="clipboard" xmlns="http://www.w3.org/2000/svg"><path d="M12 3c.697 0 1.046 0 1.332.077a2.25 2.25 0 0 1 1.591 1.59C15 4.955 15 5.304 15 6v6.9c0 1.26 0 1.89-.245 2.371-.216.424-.56.768-.984.984-.48.245-1.11.245-2.371.245H6.6c-1.26 0-1.89 0-2.371-.245a2.25 2.25 0 0 1-.984-.983C3 14.79 3 14.16 3 12.9V6c0-.697 0-1.046.077-1.332a2.25 2.25 0 0 1 1.59-1.591C4.955 3 5.304 3 6 3m1.2 1.5h3.6c.42 0 .63 0 .79-.082a.75.75 0 0 0 .328-.328C12 3.93 12 3.72 12 3.3v-.6c0-.42 0-.63-.082-.79a.75.75 0 0 0-.327-.328C11.43 1.5 11.22 1.5 10.8 1.5H7.2c-.42 0-.63 0-.79.082a.75.75 0 0 0-.328.328C6 2.07 6 2.28 6 2.7v.6c0 .42 0 .63.082.79a.75.75 0 0 0 .328.328c.16.082.37.082.79.082Z" stroke="#667085" stroke-width="2" stroke-linecap="round" stroke-linejoin="round"/></symbol><symbol fill="none" viewBox="0 0 24 24" id="closeX" xmlns="http://www.w3.org/2000/svg"><path d="M18 6 6 18M6 6l12 12" stroke="#98A2B3" stroke-width="2" stroke-linecap="round" stroke-linejoin="round"/></symbol><symbol fill="none" viewBox="0 0 20 20" id="columns" xmlns="http://www.w3.org/2000/svg"><path d="M7.5 2.5v15m5-15v15m-6-15h7c1.4 0 2.1 0 2.635.272a2.5 2.5 0 0 1 1.092 1.093C17.5 4.4 17.5 5.1 17.5 6.5v7c0 1.4 0 2.1-.273 2.635a2.5 2.5 0 0 1-1.092 1.092c-.535.273-1.235.273-2.635.273h-7c-1.4 0-2.1 0-2.635-.273a2.5 2.5 0 0 1-1.093-1.092C2.5 15.6 2.5 14.9 2.5 13.5v-7c0-1.4 0-2.1.272-2.635a2.5 2.5 0 0 1 1.093-1.093C4.4 2.5 5.1 2.5 6.5 2.5Z" stroke="#fff" stroke-width="1.667" stroke-linecap="round" stroke-linejoin="round"/></symbol><symbol fill="none" viewBox="0 0 29 29" id="currencydollar" xmlns="http://www.w3.org/2000/svg"><path d="M7.667 19.167a4.667 4.667 0 0 0 4.666 4.666H17a4.667 4.667 0 0 0 0-9.333h-4.667a4.667 4.667 0 1 1 0-9.333H17a4.667 4.667 0 0 1 4.667 4.666m-7-7v23.334" stroke="#667085" stroke-width="2" stroke-linecap="round" stroke-linejoin="round"/></symbol><symbol fill="none" viewBox="0 0 20 20" id="dots-vertical" xmlns="http://www.w3.org/2000/svg"><path d="M10 10.833a.833.833 0 1 0 0-1.666.833.833 0 0 0 0 1.666ZM10 5a.833.833 0 1 0 0-1.667A.833.833 0 0 0 10 5ZM10 16.667A.833.833 0 1 0 10 15a.833.833 0 0 0 0 1.667Z" stroke="#B4BDD0" stroke-width="1.667" stroke-linecap="round" stroke-linejoin="round"/></symbol><symbol fill="none" viewBox="0 0 24 24" id="download" xmlns="http://www.w3.org/2000/svg"><path d="M17.5 13v1c0 1.4 0 2.1-.273 2.635a2.5 2.5 0 0 1-1.092 1.092C15.6 18 14.9 18 13.5 18h-7c-1.4 0-2.1 0-2.635-.273a2.5 2.5 0 0 1-1.093-1.092C2.5 16.1 2.5 15.4 2.5 14v-1m11.667-4.167L10 13m0 0L5.833 8.833M10 13V3" stroke="#667085" stroke-width="1.667" stroke-linecap="round" stroke-linejoin="round"/></symbol><symbol fill="none" viewBox="0 0 20 20" id="download-cloud" xmlns="http://www.w3.org/2000/svg"><path d="M3.333 13.535a3.75 3.75 0 0 1 1.733-6.852 5.001 5.001 0 0 1 9.868 0 3.75 3.75 0 0 1 1.733 6.852m-10 .632L10 17.5m0 0 3.333-3.333M10 17.5V10" stroke="#fff" stroke-width="1.667" stroke-linecap="round" stroke-linejoin="round"/></symbol><symbol fill="none" viewBox="0 0 20 20" id="edit" xmlns="http://www.w3.org/2000/svg"><g clip-path="url(#bca)"><path d="M9.167 3.334h-3.5c-1.4 0-2.1 0-2.635.273a2.5 2.5 0 0 0-1.093 1.092c-.272.535-.272 1.235-.272 2.635v7c0 1.4 0 2.1.272 2.635a2.5 2.5 0 0 0 1.093 1.093c.535.272 1.235.272 2.635.272h7c1.4 0 2.1 0 2.635-.272a2.5 2.5 0 0 0 1.092-1.093c.273-.535.273-1.235.273-2.635v-3.5m-10 2.5h1.395c.408 0 .612 0 .803-.046.17-.04.333-.108.482-.2.168-.102.313-.247.6-.535l7.97-7.969a1.768 1.768 0 1 0-2.5-2.5l-7.97 7.97c-.287.287-.432.431-.535.6-.091.149-.158.311-.2.482-.045.191-.045.395-.045.803v1.395Z" stroke="#fff" stroke-width="1.667" stroke-linecap="round" stroke-linejoin="round"/></g><defs><clipPath id="bca"><path fill="#fff" d="M0 0h20v20H0z"/></clipPath></defs></symbol><symbol fill="none" viewBox="0 0 20 20" id="eye" xmlns="http://www.w3.org/2000/svg"><path d="M2.017 10.596c-.114-.18-.17-.27-.202-.409a.978.978 0 0 1 0-.372c.032-.138.088-.228.202-.408.938-1.485 3.73-5.239 7.983-5.239 4.255 0 7.046 3.754 7.984 5.239.113.18.17.27.202.408a.976.976 0 0 1 0 .373c-.032.138-.089.228-.202.408-.938 1.485-3.73 5.239-7.984 5.239s-7.045-3.754-7.983-5.24Z" stroke="#667085" stroke-width="1.667" stroke-linecap="round" stroke-linejoin="round"/><path d="M10 12.501a2.5 2.5 0 1 0 0-5 2.5 2.5 0 0 0 0 5Z" stroke="#667085" stroke-width="1.667" stroke-linecap="round" stroke-linejoin="round"/></symbol><symbol fill="none" viewBox="0 0 20 20" id="eye-off" xmlns="http://www.w3.org/2000/svg"><path d="M8.953 4.243q.508-.075 1.047-.076c4.254 0 7.046 3.754 7.983 5.239.114.179.171.269.203.408a.97.97 0 0 1 0 .372c-.032.138-.089.228-.203.41-.25.395-.631.951-1.136 1.554M5.603 5.596c-1.802 1.223-3.025 2.92-3.586 3.808-.114.181-.171.271-.203.41a1 1 0 0 0 0 .372c.032.139.088.228.202.408.939 1.485 3.73 5.239 7.984 5.239 1.716 0 3.193-.61 4.407-1.436M2.5 2.5l15 15M8.233 8.232a2.5 2.5 0 1 0 3.536 3.536" stroke="#667085" stroke-width="1.667" stroke-linecap="round" stroke-linejoin="round"/></symbol><symbol fill="none" viewBox="0 0 24 24" id="file" xmlns="http://www.w3.org/2000/svg"><path d="M14 11H8m2 4H8m8-8H8m12 3.5V6.8c0-1.68 0-2.52-.327-3.162a3 3 0 0 0-1.311-1.311C17.72 2 16.88 2 15.2 2H8.8c-1.68 0-2.52 0-3.162.327a3 3 0 0 0-1.311 1.311C4 4.28 4 5.12 4 6.8v10.4c0 1.68 0 2.52.327 3.162a3 3 0 0 0 1.311 1.311C6.28 22 7.12 22 8.8 22h2.7M22 22l-1.5-1.5m1-2.5a3.5 3.5 0 1 1-7 0 3.5 3.5 0 0 1 7 0Z" stroke="#667085" stroke-width="2" stroke-linecap="round" stroke-linejoin="round"/></symbol><symbol fill="none" viewBox="0 0 20 20" id="filecode" xmlns="http://www.w3.org/2000/svg"><path d="M11.667 1.89v3.443c0 .466 0 .7.09.878.08.157.208.284.365.364.178.091.412.091.878.091h3.442m-4.775 7.917 2.083-2.084-2.083-2.083m-3.333 0L6.25 12.499l2.084 2.084m8.333-6.26v6.01c0 1.4 0 2.1-.273 2.635a2.5 2.5 0 0 1-1.092 1.092c-.535.273-1.235.273-2.635.273H7.334c-1.4 0-2.1 0-2.635-.273a2.5 2.5 0 0 1-1.093-1.092c-.272-.535-.272-1.235-.272-2.635V5.666c0-1.4 0-2.1.272-2.635a2.5 2.5 0 0 1 1.093-1.093c.534-.272 1.234-.272 2.635-.272h2.676c.611 0 .917 0 1.205.07.255.06.499.161.723.298.252.155.468.371.9.804l2.657 2.656c.433.433.649.649.803.901.138.224.239.468.3.723.069.288.069.593.069 1.205Z" stroke="#088AB2" stroke-width="1.667" stroke-linecap="round" stroke-linejoin="round"/></symbol><symbol fill="none" viewBox="0 0 20 20" id="filter-lines" xmlns="http://www.w3.org/2000/svg"><path d="M5 10h10M2.5 5h15m-10 10h5" stroke="#667085" stroke-width="1.667" stroke-linecap="round" stroke-linejoin="round"/></symbol><symbol fill="none" viewBox="0 0 24 24" id="gear" xmlns="http://www.w3.org/2000/svg"><path d="M12 15a3 3 0 1 0 0-6 3 3 0 0 0 0 6Z" stroke="#667085" stroke-width="2" stroke-linecap="round" stroke-linejoin="round"/><path d="M18.727 14.727a1.5 1.5 0 0 0 .3 1.655l.055.054a1.816 1.816 0 0 1 0 2.573 1.818 1.818 0 0 1-2.573 0l-.055-.055a1.5 1.5 0 0 0-1.654-.3 1.5 1.5 0 0 0-.91 1.373v.155a1.818 1.818 0 1 1-3.636 0V20.1a1.5 1.5 0 0 0-.981-1.373 1.5 1.5 0 0 0-1.655.3l-.054.055a1.818 1.818 0 0 1-3.106-1.287 1.818 1.818 0 0 1 .533-1.286l.054-.055a1.5 1.5 0 0 0 .3-1.654 1.5 1.5 0 0 0-1.372-.91h-.155a1.818 1.818 0 1 1 0-3.636H3.9a1.5 1.5 0 0 0 1.373-.981 1.5 1.5 0 0 0-.3-1.655l-.055-.054A1.818 1.818 0 1 1 7.491 4.99l.054.054a1.5 1.5 0 0 0 1.655.3h.073a1.5 1.5 0 0 0 .909-1.372v-.155a1.818 1.818 0 0 1 3.636 0V3.9a1.499 1.499 0 0 0 .91 1.373 1.5 1.5 0 0 0 1.654-.3l.054-.055a1.817 1.817 0 0 1 2.573 0 1.819 1.819 0 0 1 0 2.573l-.055.054a1.5 1.5 0 0 0-.3 1.655v.073a1.5 1.5 0 0 0 1.373.909h.155a1.818 1.818 0 0 1 0 3.636H20.1a1.499 1.499 0 0 0-1.373.91Z" stroke="#667085" stroke-width="2" stroke-linecap="round" stroke-linejoin="round"/></symbol><symbol fill="none" viewBox="0 0 20 20" id="globe" xmlns="http://www.w3.org/2000/svg"><g clip-path="url(#bja)"><path d="m2.239 13.038 1.59-.918a.417.417 0 0 1 .285-.05l3.129.586a.417.417 0 0 0 .493-.411l-.012-2.741c0-.075.02-.148.057-.212L9.36 6.588a.417.417 0 0 0-.019-.45L6.683 2.356m9.15 1.694c-4.583 2.201-2.083 5.118-1.25 5.534 1.565.782 3.74.834 3.74.834a8.333 8.333 0 1 0-7.906 7.906m3.548-.04-2.64-6.957 6.958 2.639-3.085 1.233-1.233 3.085Z" stroke="#667085" stroke-width="1.667" stroke-linecap="round" stroke-linejoin="round"/></g><defs><clipPath id="bja"><path fill="#fff" d="M0 0h20v20H0z"/></clipPath></defs></symbol><symbol fill="none" viewBox="0 0 24 24" id="help" xmlns="http://www.w3.org/2000/svg"><path d="M9.09 9a3 3 0 0 1 5.83 1c0 2-3 3-3 3m.08 4h.01M3 7.941v8.117c0 .343 0 .515.05.667a1 1 0 0 0 .215.364c.109.119.258.202.558.368l7.4 4.111c.284.158.425.237.575.267.133.028.27.028.403 0 .15-.03.292-.11.576-.267l7.4-4.11c.3-.167.45-.25.558-.369a1 1 0 0 0 .215-.364c.05-.152.05-.324.05-.667V7.941c0-.342 0-.514-.05-.666a1 1 0 0 0-.215-.364c-.109-.119-.258-.202-.558-.368l-7.4-4.111c-.284-.158-.425-.237-.575-.268a1 1 0 0 0-.403 0c-.15.031-.292.11-.576.268l-7.4 4.11c-.3.167-.45.25-.558.369a1 1 0 0 0-.215.364C3 7.427 3 7.599 3 7.94Z" stroke="#667085" stroke-width="2" stroke-linecap="round" stroke-linejoin="round"/></symbol><symbol fill="none" viewBox="0 0 16 16" id="help-circle" xmlns="http://www.w3.org/2000/svg"><g clip-path="url(#bka)"><path d="M6.06 5.999a2 2 0 0 1 3.887.666c0 1.334-2 2-2 2M8 11.332h.007m6.66-3.333a6.667 6.667 0 1 1-13.334 0 6.667 6.667 0 0 1 13.334 0Z" stroke="#98A2B3" stroke-width="1.333" stroke-linecap="round" stroke-linejoin="round"/></g><defs><clipPath id="bka"><path fill="#fff" d="M0 0h16v16H0z"/></clipPath></defs></symbol><symbol fill="none" viewBox="0 0 24 24" id="home" xmlns="http://www.w3.org/2000/svg"><path d="M9 21v-7.4c0-.56 0-.84.109-1.054a1 1 0 0 1 .437-.437C9.76 12 10.04 12 10.6 12h2.8c.56 0 .84 0 1.054.109a1 1 0 0 1 .437.437C15 12.76 15 13.04 15 13.6V21M11.018 2.764 4.235 8.039c-.453.353-.68.53-.843.75a2 2 0 0 0-.318.65C3 9.704 3 9.991 3 10.565V17.8c0 1.12 0 1.68.218 2.108a2 2 0 0 0 .874.874C4.52 21 5.08 21 6.2 21h11.6c1.12 0 1.68 0 2.108-.218a2 2 0 0 0 .874-.874C21 19.48 21 18.92 21 17.8v-7.235c0-.574 0-.861-.074-1.126a2.002 2.002 0 0 0-.318-.65c-.163-.22-.39-.397-.843-.75l-6.783-5.275c-.351-.273-.527-.41-.72-.462a1 1 0 0 0-.523 0c-.194.052-.37.189-.721.462Z" stroke="#667085" stroke-width="2" stroke-linecap="round" stroke-linejoin="round"/></symbol><symbol fill="none" viewBox="0 0 29 30" id="key" xmlns="http://www.w3.org/2000/svg"><path d="M20.333 11.5c0-.597-.227-1.194-.683-1.65A2.326 2.326 0 0 0 18 9.167m0 9.333a7 7 0 1 0-6.937-6.059c.068.507.102.76.079.92a.996.996 0 0 1-.136.404c-.08.142-.219.281-.497.56l-5.962 5.962c-.202.201-.303.302-.375.42a1.167 1.167 0 0 0-.14.337C4 21.178 4 21.321 4 21.607v2.026c0 .654 0 .98.127 1.23.112.22.29.398.51.51.25.127.576.127 1.23.127h2.8v-2.333H11v-2.334h2.333l1.843-1.842c.278-.278.417-.418.559-.497a.996.996 0 0 1 .404-.136c.16-.023.413.011.92.08.307.04.622.062.941.062Z" stroke="#667085" stroke-width="2" stroke-linecap="round" stroke-linejoin="round"/></symbol><symbol fill="none" viewBox="0 0 24 24" id="lifebuoy" xmlns="http://www.w3.org/2000/svg"><path d="M9.136 9.136 4.93 4.93m0 14.142 4.239-4.239m5.693.032 4.207 4.207m0-14.142-4.24 4.24M22 12c0 5.523-4.477 10-10 10S2 17.523 2 12 6.477 2 12 2s10 4.477 10 10Zm-6 0a4 4 0 1 1-8 0 4 4 0 0 1 8 0Z" stroke="#667085" stroke-width="2" stroke-linecap="round" stroke-linejoin="round"/></symbol><symbol fill="none" viewBox="0 0 24 24" id="lightbulb" xmlns="http://www.w3.org/2000/svg"><path d="M10 17.659V20a2 2 0 1 0 4 0v-2.341M12 2v1m-9 9H2m3.5-6.5-.6-.6m13.6.6.6-.6M22 12h-1m-3 0a6 6 0 1 1-12 0 6 6 0 0 1 12 0Z" stroke="#667085" stroke-width="2" stroke-linecap="round" stroke-linejoin="round"/></symbol><symbol fill="none" viewBox="0 0 20 20" id="line-chart-up" xmlns="http://www.w3.org/2000/svg"><path d="M17.5 17.5H3.833c-.466 0-.7 0-.878-.09a.833.833 0 0 1-.364-.365c-.091-.178-.091-.412-.091-.878V2.5m14.167 4.167L13.4 10.152c-.124.132-.186.198-.26.232a.417.417 0 0 1-.211.037c-.082-.008-.162-.05-.323-.133l-2.714-1.41c-.16-.083-.241-.125-.323-.132a.417.417 0 0 0-.21.036c-.075.034-.137.1-.26.232L5.832 12.5" stroke="#667085" stroke-width="1.667" stroke-linecap="round" stroke-linejoin="round"/></symbol><symbol fill="none" viewBox="0 0 21 20" id="link-external" xmlns="http://www.w3.org/2000/svg"><path d="M18.167 7.5v-5m0 0h-5m5 0L11.5 9.167m-2.5-5H7.167c-1.4 0-2.1 0-2.635.272a2.5 2.5 0 0 0-1.093 1.093c-.272.534-.272 1.235-.272 2.635V13.5c0 1.4 0 2.1.272 2.635a2.5 2.5 0 0 0 1.093 1.092c.535.273 1.235.273 2.635.273H12.5c1.4 0 2.1 0 2.635-.273a2.5 2.5 0 0 0 1.093-1.092c.272-.535.272-1.235.272-2.635v-1.833" stroke="#667085" stroke-width="1.667" stroke-linecap="round" stroke-linejoin="round"/></symbol><symbol fill="none" viewBox="0 0 20 20" id="list" xmlns="http://www.w3.org/2000/svg"><path d="M17.5 10h-10m10-5h-10m10 10h-10m-3.333-5A.833.833 0 1 1 2.5 10a.833.833 0 0 1 1.667 0Zm0-5A.833.833 0 1 1 2.5 5a.833.833 0 0 1 1.667 0Zm0 10A.833.833 0 1 1 2.5 15a.833.833 0 0 1 1.667 0Z" stroke="#344054" stroke-width="1.667" stroke-linecap="round" stroke-linejoin="round"/></symbol><symbol fill="none" viewBox="0 0 24 24" id="lock" xmlns="http://www.w3.org/2000/svg"><path d="M14.167 8.333V6.667a4.167 4.167 0 0 0-8.334 0v1.666M10 12.083v1.667M7.333 17.5h5.334c1.4 0 2.1 0 2.635-.273a2.5 2.5 0 0 0 1.092-1.092c.273-.535.273-1.235.273-2.635v-1.167c0-1.4 0-2.1-.273-2.635a2.5 2.5 0 0 0-1.092-1.092c-.535-.273-1.235-.273-2.635-.273H7.333c-1.4 0-2.1 0-2.635.273a2.5 2.5 0 0 0-1.092 1.092c-.273.535-.273 1.235-.273 2.635V13.5c0 1.4 0 2.1.273 2.635a2.5 2.5 0 0 0 1.092 1.092c.535.273 1.235.273 2.635.273Z" stroke="#667085" stroke-width="2" stroke-linecap="round" stroke-linejoin="round"/></symbol><symbol fill="none" viewBox="0 0 32 28" id="mail" xmlns="http://www.w3.org/2000/svg"><path d="m4 8.167 9.526 6.668c.771.54 1.157.81 1.576.914.37.092.758.092 1.129 0 .42-.104.805-.374 1.577-.914l9.525-6.668M9.6 23.333h12.133c1.96 0 2.94 0 3.69-.381a3.5 3.5 0 0 0 1.529-1.53c.381-.748.381-1.729.381-3.689v-7.466c0-1.96 0-2.94-.381-3.69a3.5 3.5 0 0 0-1.53-1.529c-.748-.381-1.729-.381-3.689-.381H9.6c-1.96 0-2.94 0-3.689.381a3.5 3.5 0 0 0-1.53 1.53C4 7.326 4 8.306 4 10.267v7.466c0 1.96 0 2.94.381 3.69a3.5 3.5 0 0 0 1.53 1.529c.749.381 1.729.381 3.689.381Z" stroke="#667085" stroke-width="2" stroke-linecap="round" stroke-linejoin="round"/></symbol><symbol fill="none" viewBox="0 0 17 16" id="message-circle" xmlns="http://www.w3.org/2000/svg"><path d="M15.417 8a6.75 6.75 0 0 1-9.289 6.257 2.126 2.126 0 0 0-.285-.105.685.685 0 0 0-.164-.019c-.062 0-.13.012-.265.034l-2.669.445c-.28.046-.419.07-.52.026a.375.375 0 0 1-.197-.196c-.043-.101-.02-.241.027-.52l.444-2.669c.023-.135.034-.203.034-.265a.68.68 0 0 0-.018-.164c-.013-.06-.044-.136-.105-.286A6.75 6.75 0 1 1 15.416 8Z" stroke="#667085" stroke-width="2" stroke-linecap="round" stroke-linejoin="round"/></symbol><symbol fill="none" viewBox="0 0 24 24" id="paper-airplane" xmlns="http://www.w3.org/2000/svg"><path d="M12 19v-7m.292 7.085 6.978 2.336c.547.183.82.274.99.209a.5.5 0 0 0 .3-.331c.048-.174-.07-.438-.305-.964L12.765 3.622c-.23-.514-.346-.772-.507-.851a.5.5 0 0 0-.443-.001c-.16.08-.277.336-.51.85L3.753 20.336c-.237.526-.356.789-.308.963a.5.5 0 0 0 .3.332c.168.067.442-.024.99-.206l7.052-2.341c.094-.031.14-.047.189-.053a.5.5 0 0 1 .128 0c.048.007.095.022.189.054Z" stroke="#667085" stroke-width="2" stroke-linecap="round" stroke-linejoin="round"/></symbol><symbol fill="none" viewBox="0 0 24 24" id="pie-chart" xmlns="http://www.w3.org/2000/svg"><path d="M12 2a10 10 0 0 1 10 10M12 2v10m0-10C6.477 2 2 6.477 2 12s4.477 10 10 10 10-4.477 10-10M12 2c5.523 0 10 4.477 10 10m0 0H12m10 0a10 10 0 0 1-4.122 8.09L12 12" stroke="#667085" stroke-width="2" stroke-linecap="round" stroke-linejoin="round"/></symbol><symbol fill="none" viewBox="0 0 24 24" id="piggy-bank" xmlns="http://www.w3.org/2000/svg"><path d="M5 13c0 1.648.665 3.142 1.74 4.226.104.105.156.157.187.207.03.048.046.09.06.144.013.057.013.122.013.253v2.37c0 .28 0 .42.054.527a.5.5 0 0 0 .219.218C7.38 21 7.52 21 7.8 21h1.9c.28 0 .42 0 .527-.055a.5.5 0 0 0 .218-.218c.055-.107.055-.247.055-.527v-.4c0-.28 0-.42.054-.527a.5.5 0 0 1 .219-.218C10.88 19 11.02 19 11.3 19h1.4c.28 0 .42 0 .527.055a.5.5 0 0 1 .218.218c.055.107.055.247.055.527v.4c0 .28 0 .42.054.527a.5.5 0 0 0 .219.218c.107.055.247.055.527.055h1.9c.28 0 .42 0 .527-.055a.5.5 0 0 0 .218-.218C17 20.62 17 20.48 17 20.2v-.976c0-.202 0-.303.029-.384a.462.462 0 0 1 .121-.19c.061-.06.166-.108.374-.205a6.025 6.025 0 0 0 2.427-2.055c.107-.155.16-.233.217-.28a.464.464 0 0 1 .17-.089c.07-.021.154-.021.32-.021h.542c.28 0 .42 0 .527-.055a.5.5 0 0 0 .218-.218C22 15.62 22 15.48 22 15.2v-3.414c0-.267 0-.4-.05-.503a.5.5 0 0 0-.233-.233c-.103-.05-.236-.05-.503-.05-.193 0-.29 0-.367-.026a.463.463 0 0 1-.203-.13c-.057-.06-.103-.16-.195-.358a6.013 6.013 0 0 0-1.19-1.712c-.104-.105-.155-.157-.186-.207a.462.462 0 0 1-.06-.144C19 8.366 19 8.3 19 8.17V7.06c0-.36 0-.54-.075-.66a.5.5 0 0 0-.288-.218c-.137-.039-.31.01-.657.11l-2.372.677a.498.498 0 0 1-.136.029C15.45 7 15.43 7 15.388 7h-.429m-9.96 6a6 6 0 0 1 3.205-5.31M5 13H4a2 2 0 0 1-1-3.732M15 6.5a3.5 3.5 0 1 1-7 0 3.5 3.5 0 0 1 7 0Z" stroke="#2B3674" stroke-width="2" stroke-linecap="round" stroke-linejoin="round"/></symbol><symbol fill="none" viewBox="0 0 24 24" id="presentation-chart" xmlns="http://www.w3.org/2000/svg"><path d="M12 16v5m0-5 6 5m-6-5-6 5M21 3v8.2c0 1.68 0 2.52-.327 3.162a3 3 0 0 1-1.311 1.311C18.72 16 17.88 16 16.2 16H7.8c-1.68 0-2.52 0-3.162-.327a3 3 0 0 1-1.311-1.311C3 13.72 3 12.88 3 11.2V3m5 6v3m4-5v5m4-1v1m6-9H2" stroke="#667085" stroke-width="2" stroke-linecap="round" stroke-linejoin="round"/></symbol><symbol fill="none" viewBox="0 0 20 20" id="refresh" xmlns="http://www.w3.org/2000/svg"><path d="M17.044 10.744a7.083 7.083 0 0 1-13.179 2.798l-.208-.361m-.702-3.925a7.083 7.083 0 0 1 13.179-2.798l.208.361M2.911 15.055l.61-2.277 2.277.61m8.404-6.776 2.277.61.61-2.277" stroke="#667085" stroke-width="1.667" stroke-linecap="round" stroke-linejoin="round"/></symbol><symbol fill="none" viewBox="0 0 24 24" id="rocket" xmlns="http://www.w3.org/2000/svg"><path d="m13 11-9.5 9.5M14.018 3.538a22.613 22.613 0 0 1 3.483 2.855 22.61 22.61 0 0 1 2.876 3.515M9.255 7.896 6.38 6.938a1 1 0 0 0-.962.185L2.56 9.541a1 1 0 0 0 .3 1.701l2.708.998m6.113 6.112.997 2.708a1 1 0 0 0 1.702.3l2.417-2.857a1 1 0 0 0 .186-.962l-.959-2.875M19.348 2.27l-4.906.817a2.443 2.443 0 0 0-1.383.741L6.446 10.9a4.653 4.653 0 0 0 6.576 6.575l7.07-6.613c.391-.367.652-.853.74-1.382l.818-4.907a2 2 0 0 0-2.302-2.301Z" stroke="stroke" stroke-width="2" stroke-linecap="round" stroke-linejoin="round"/></symbol><symbol fill="none" viewBox="0 0 20 20" id="save" xmlns="http://www.w3.org/2000/svg"><path d="M12.5 6.667H7.167c-.467 0-.7 0-.879-.091a.833.833 0 0 1-.364-.364c-.09-.179-.09-.412-.09-.879V2.5m8.333 15v-5.333c0-.467 0-.7-.091-.879a.833.833 0 0 0-.364-.364c-.179-.09-.412-.09-.879-.09H7.167c-.467 0-.7 0-.879.09a.833.833 0 0 0-.364.364c-.09.179-.09.412-.09.879V17.5M17.5 7.771V13.5c0 1.4 0 2.1-.273 2.635a2.5 2.5 0 0 1-1.092 1.092c-.535.273-1.235.273-2.635.273h-7c-1.4 0-2.1 0-2.635-.273a2.5 2.5 0 0 1-1.093-1.092C2.5 15.6 2.5 14.9 2.5 13.5v-7c0-1.4 0-2.1.272-2.635a2.5 2.5 0 0 1 1.093-1.093C4.4 2.5 5.1 2.5 6.5 2.5h5.729c.407 0 .611 0 .803.046.17.04.333.108.482.2.168.103.312.247.6.535l2.605 2.605c.288.288.432.432.535.6.092.15.16.312.2.482.046.192.046.396.046.803Z" stroke="#fff" stroke-width="1.667" stroke-linecap="round" stroke-linejoin="round"/></symbol><symbol fill="#667085" viewBox="0 0 20 20" id="save-star" xmlns="http://www.w3.org/2000/svg"><path d="m2.11 9.204.524-.537-.524.537 2.917 2.841-.688 4.013-.005.027c-.032.19-.065.38-.077.538-.012.153-.022.425.121.689.168.309.467.526.813.59.295.055.55-.039.692-.097.146-.061.317-.15.487-.24l.025-.013L10 15.656l3.605 1.896.024.012c.171.09.342.18.488.24.141.06.397.153.692.098.346-.064.645-.281.813-.59.143-.264.133-.536.121-.689a6.409 6.409 0 0 0-.078-.538l-.004-.027-.688-4.013 2.917-2.84.02-.02c.137-.134.275-.269.378-.389.1-.116.267-.33.307-.628.046-.349-.068-.7-.31-.955-.207-.218-.468-.293-.617-.329-.153-.037-.344-.064-.535-.092l-.027-.004-4.033-.59-1.803-3.652-.012-.025a6.395 6.395 0 0 0-.253-.48c-.08-.131-.232-.357-.503-.486a1.167 1.167 0 0 0-1.004 0c-.271.13-.423.355-.503.486a6.414 6.414 0 0 0-.253.48l-.012.025-1.803 3.652-4.033.59-.027.004c-.191.028-.382.055-.535.092-.15.036-.41.11-.617.329a1.167 1.167 0 0 0-.31.955c.04.298.207.512.307.628.103.12.24.255.379.39l.02.018Z" stroke="stroke" stroke-width="1.5" stroke-linecap="round" stroke-linejoin="round"/></symbol><symbol fill="none" viewBox="0 0 20 20" id="search-refraction" xmlns="http://www.w3.org/2000/svg"><path d="m17.5 17.5-3.625-3.625M9.167 5a4.167 4.167 0 0 1 4.166 4.167m2.5 0a6.667 6.667 0 1 1-13.333 0 6.667 6.667 0 0 1 13.333 0Z" stroke="#667085" stroke-width="1.667" stroke-linecap="round" stroke-linejoin="round"/></symbol><symbol fill="none" viewBox="0 0 24 24" id="shield-dollar" xmlns="http://www.w3.org/2000/svg"><path d="M9.213 14.5c.312.595.936 1 1.654 1H13a2 2 0 1 0 0-4h-2a2 2 0 1 1 0-4h2.133c.718 0 1.342.405 1.654 1M12 6v1.5m0 8V17m8-5c0 4.908-5.354 8.478-7.302 9.615-.221.129-.332.194-.488.227a1.137 1.137 0 0 1-.42 0c-.156-.033-.267-.098-.488-.227C9.354 20.478 4 16.908 4 12V7.218c0-.8 0-1.2.13-1.543a2 2 0 0 1 .548-.79c.276-.243.65-.383 1.398-.664l5.362-2.01c.208-.078.312-.117.419-.133a1 1 0 0 1 .286 0c.107.016.21.055.419.133l5.362 2.01c.748.281 1.123.421 1.398.665a2 2 0 0 1 .547.789c.131.343.131.743.131 1.543V12Z" stroke="#667085" stroke-width="2" stroke-linecap="round" stroke-linejoin="round"/></symbol><symbol fill="none" viewBox="0 0 20 21" id="star" xmlns="http://www.w3.org/2000/svg"><g clip-path="url(#cga)"><path d="M9.538 2.11a.5.5 0 0 1 .924 0l2.066 4.967a.5.5 0 0 0 .421.307l5.363.43a.5.5 0 0 1 .286.878l-4.086 3.5a.5.5 0 0 0-.161.496l1.248 5.233a.5.5 0 0 1-.747.543l-4.591-2.805a.5.5 0 0 0-.522 0l-4.59 2.804a.5.5 0 0 1-.748-.542l1.248-5.233a.5.5 0 0 0-.16-.496l-4.087-3.5a.5.5 0 0 1 .286-.878l5.363-.43a.5.5 0 0 0 .421-.307L9.538 2.11Z" fill="#F9FAFB"/><g clip-path="url(#cgb)"><path d="M9.538 2.11a.5.5 0 0 1 .924 0l2.066 4.967a.5.5 0 0 0 .421.307l5.363.43a.5.5 0 0 1 .286.878l-4.086 3.5a.5.5 0 0 0-.161.496l1.248 5.233a.5.5 0 0 1-.747.543l-4.591-2.805a.5.5 0 0 0-.522 0l-4.59 2.804a.5.5 0 0 1-.748-.542l1.248-5.233a.5.5 0 0 0-.16-.496l-4.087-3.5a.5.5 0 0 1 .286-.878l5.363-.43a.5.5 0 0 0 .421-.307L9.538 2.11Z" fill="#2B3674"/></g></g><defs><clipPath id="cga"><path fill="#fff" transform="translate(0 .5)" d="M0 0h20v20H0z"/></clipPath><clipPath id="cgb"><path fill="#fff" transform="translate(0 .5)" d="M0 0h20v20H0z"/></clipPath></defs></symbol><symbol fill="none" viewBox="0 0 24 24" id="target" xmlns="http://www.w3.org/2000/svg"><path d="M16 8.5v-3l3-3 1 2 2 1-3 3h-3Zm0 0-4 4m10 0c0 5.523-4.477 10-10 10s-10-4.477-10-10 4.477-10 10-10m5 10a5 5 0 1 1-5-5" stroke="#667085" stroke-width="2" stroke-linecap="round" stroke-linejoin="round"/></symbol><symbol fill="none" viewBox="0 0 20 20" id="thermometer" xmlns="http://www.w3.org/2000/svg"><g stroke="#7839EE" stroke-width="1.667" stroke-linecap="round" stroke-linejoin="round"><path d="M12.083 3.75a2.083 2.083 0 1 0-4.166 0v7.714a3.75 3.75 0 1 0 4.167 0V3.75Z"/><path d="M10 15.416a.833.833 0 1 0 0-1.667.833.833 0 0 0 0 1.667Z"/></g></symbol><symbol fill="none" viewBox="0 0 20 21" id="threeStars" xmlns="http://www.w3.org/2000/svg"><path d="M3.75 18.833v-4.166m0-8.334V2.167M1.667 4.25h4.166m-4.166 12.5h4.166m5-13.75L9.388 6.757c-.235.611-.352.917-.535 1.174a2.5 2.5 0 0 1-.589.589c-.257.182-.562.3-1.173.535L3.333 10.5l3.758 1.445c.61.235.916.353 1.173.535.228.162.427.361.589.59.183.256.3.562.535 1.173L10.833 18l1.445-3.757c.236-.611.353-.917.536-1.174.162-.228.36-.427.588-.589.257-.182.563-.3 1.174-.535l3.757-1.445-3.757-1.445c-.611-.235-.917-.353-1.174-.535a2.502 2.502 0 0 1-.588-.59c-.183-.256-.3-.562-.536-1.173L10.833 3Z" stroke="#667085" stroke-width="1.667" stroke-linecap="round" stroke-linejoin="round"/></symbol><symbol fill="none" viewBox="0 0 24 24" id="trendup" xmlns="http://www.w3.org/2000/svg"><path d="m22 7-7.869 7.869c-.396.396-.594.594-.822.668a1 1 0 0 1-.618 0c-.228-.074-.426-.272-.822-.668L9.13 12.13c-.396-.396-.594-.594-.822-.668a1 1 0 0 0-.618 0c-.228.074-.426.272-.822.668L2 17M22 7h-7m7 0v7" stroke="#667085" stroke-width="2" stroke-linecap="round" stroke-linejoin="round"/></symbol><symbol fill="none" viewBox="0 0 19 18" id="umbrella" xmlns="http://www.w3.org/2000/svg"><path d="M5.583 14.55c0 1.077.84 1.95 1.875 1.95 1.036 0 1.875-.873 1.875-1.95v-6.3m0 0c-1.207 0-3 .75-3 .75s-1.042-.75-2.25-.75c-1.207 0-2.25.75-2.25.75a7.5 7.5 0 0 1 15 0s-1.042-.75-2.25-.75c-1.207 0-2.25.75-2.25.75s-1.792-.75-3-.75Z" stroke="#667085" stroke-width="2" stroke-linecap="round" stroke-linejoin="round"/></symbol><symbol fill="none" viewBox="0 0 20 20" id="user-group" xmlns="http://www.w3.org/2000/svg"><path d="M18.333 17.5v-1.667a3.335 3.335 0 0 0-2.5-3.228m-2.916-9.863a3.334 3.334 0 0 1 0 6.182m1.25 8.576c0-1.553 0-2.33-.254-2.942a3.334 3.334 0 0 0-1.804-1.804c-.613-.254-1.39-.254-2.942-.254h-2.5c-1.553 0-2.33 0-2.943.254a3.334 3.334 0 0 0-1.804 1.804c-.253.612-.253 1.389-.253 2.942M11.25 5.833a3.333 3.333 0 1 1-6.667 0 3.333 3.333 0 0 1 6.667 0Z" stroke="#667085" stroke-width="1.667" stroke-linecap="round" stroke-linejoin="round"/></symbol><symbol fill="none" viewBox="0 0 12 13" id="warning" xmlns="http://www.w3.org/2000/svg"><path d="M6 5.22v2m0 2h.005m-.697-6.553L1.195 9.77c-.228.394-.342.591-.325.753a.5.5 0 0 0 .203.352c.132.096.36.096.814.096h8.225c.456 0 .683 0 .815-.096a.5.5 0 0 0 .203-.352c.017-.162-.097-.359-.325-.753L6.692 2.667c-.227-.393-.34-.59-.489-.655a.5.5 0 0 0-.406 0c-.149.066-.262.262-.49.655Z" stroke="#F79009" stroke-width="1.5" stroke-linecap="round" stroke-linejoin="round"/></symbol></svg>