<svg width="14" height="14" viewBox="0 0 14 14" stroke-width="1.3333" fill="none" xmlns="http://www.w3.org/2000/svg">
<path d="M2.49994 13.334V10.334M2.49994 4.33398V1.33398M0.999939 2.83398H3.99994M0.999939 11.834H3.99994M7.59994 1.93398L6.55943 4.6393C6.39023 5.07924 6.30562 5.29921 6.17406 5.48424C6.05745 5.64822 5.91418 5.7915 5.75019 5.9081C5.56516 6.03967 5.34519 6.12427 4.90526 6.29348L2.19994 7.33398L4.90526 8.37449C5.34519 8.5437 5.56516 8.6283 5.75019 8.75987C5.91418 8.87647 6.05745 9.01975 6.17406 9.18373C6.30562 9.36876 6.39023 9.58873 6.55943 10.0287L7.59994 12.734L8.64045 10.0287C8.80965 9.58873 8.89426 9.36876 9.02582 9.18373C9.14243 9.01975 9.2857 8.87647 9.44969 8.75987C9.63472 8.6283 9.85468 8.5437 10.2946 8.37449L12.9999 7.33398L10.2946 6.29348C9.85468 6.12427 9.63471 6.03967 9.44969 5.9081C9.2857 5.7915 9.14243 5.64822 9.02582 5.48424C8.89426 5.29921 8.80965 5.07924 8.64045 4.6393L7.59994 1.93398Z" stroke="#4318FF" stroke-linecap="round" stroke-linejoin="round"/>
</svg>
