<svg width="12" height="12" viewBox="0 0 12 12" fill="none" xmlns="http://www.w3.org/2000/svg">
<g id="alert-octagon" clip-path="url(#clip0_4944_11229)">
<path id="Icon" d="M6 4V6M6 8H6.005M1 4.26137V7.73863C1 7.86092 1 7.92207 1.01382 7.97962C1.02606 8.03063 1.04627 8.07941 1.07368 8.12414C1.1046 8.1746 1.14784 8.21784 1.23431 8.30431L3.69569 10.7657C3.78216 10.8522 3.8254 10.8954 3.87586 10.9263C3.92059 10.9537 3.96937 10.9739 4.02038 10.9862C4.07793 11 4.13908 11 4.26137 11H7.73863C7.86092 11 7.92207 11 7.97962 10.9862C8.03063 10.9739 8.07941 10.9537 8.12414 10.9263C8.1746 10.8954 8.21784 10.8522 8.30431 10.7657L10.7657 8.30431C10.8522 8.21784 10.8954 8.1746 10.9263 8.12414C10.9537 8.07941 10.9739 8.03063 10.9862 7.97962C11 7.92207 11 7.86092 11 7.73863V4.26137C11 4.13908 11 4.07793 10.9862 4.02038C10.9739 3.96937 10.9537 3.92059 10.9263 3.87586C10.8954 3.8254 10.8522 3.78216 10.7657 3.69569L8.30431 1.23431C8.21784 1.14784 8.1746 1.1046 8.12414 1.07368C8.07941 1.04627 8.03063 1.02606 7.97962 1.01382C7.92207 1 7.86092 1 7.73863 1H4.26137C4.13908 1 4.07793 1 4.02038 1.01382C3.96937 1.02606 3.92059 1.04627 3.87586 1.07368C3.8254 1.1046 3.78216 1.14784 3.69569 1.23431L1.23431 3.69569C1.14784 3.78216 1.1046 3.8254 1.07368 3.87586C1.04627 3.92059 1.02606 3.96937 1.01382 4.02038C1 4.07793 1 4.13908 1 4.26137Z" stroke="#F04438" stroke-width="1.5" stroke-linecap="round" stroke-linejoin="round"/>
</g>
<defs>
<clipPath id="clip0_4944_11229">
<rect width="12" height="12" fill="white"/>
</clipPath>
</defs>
</svg>
