<svg width="20" height="20" viewBox="0 0 20 20" fill="none" xmlns="http://www.w3.org/2000/svg">
  <g clip-path="url(#clip0_9624_19584)">
    <path d="M18.3307 9.23745V10.0041C18.3297 11.8011 17.7478 13.5497 16.6718 14.989C15.5959 16.4283 14.0835 17.4812 12.3602 17.9907C10.6369 18.5002 8.79511 18.439 7.10945 17.8163C5.4238 17.1935 3.98461 16.0425 3.00653 14.535C2.02845 13.0275 1.56389 11.2442 1.68213 9.45105C1.80036 7.65792 2.49507 5.95106 3.66263 4.58501C4.83019 3.21897 6.40805 2.26694 8.16089 1.87091C9.91372 1.47488 11.7476 1.65607 13.3891 2.38745M18.3307 3.33268L9.9974 11.6743L7.4974 9.17435" stroke="#514141" stroke-width="1.66667" stroke-linecap="round" stroke-linejoin="round"/>
  </g>
  <defs>
    <clipPath id="clip0_9624_19584">
      <rect width="20" height="20" fill="white"/>
    </clipPath>
  </defs>
</svg>