<svg width="21" height="20" viewBox="0 0 21 20" fill="none" xmlns="http://www.w3.org/2000/svg">
<g clip-path="url(#clip0_9624_10287)">
<path d="M15.2565 5.49144L10.5977 9.99895M10.5977 9.99895L4.30933 8.42472M10.5977 9.99895L12.2369 16.1165M17.0936 11.0596L15.693 5.83254C15.6339 5.6119 15.6043 5.50158 15.5454 5.41189C15.4934 5.33255 15.4249 5.26525 15.3448 5.21448C15.2541 5.15709 15.1433 5.12936 14.9217 5.07388L9.44713 3.70337C9.23732 3.65085 9.13241 3.62458 9.03038 3.63061C8.94008 3.63594 8.8518 3.65959 8.77093 3.70013C8.67956 3.74593 8.60184 3.82112 8.4464 3.97152L4.39052 7.89571C4.22635 8.05455 4.14427 8.13397 4.09446 8.22899C4.0504 8.31305 4.02479 8.40555 4.01936 8.5003C4.01321 8.60741 4.04277 8.71773 4.1019 8.93837L5.50247 14.1654C5.56159 14.386 5.59115 14.4964 5.65003 14.586C5.70211 14.6654 5.77054 14.7327 5.85073 14.7835C5.94137 14.8408 6.05217 14.8686 6.27376 14.9241L11.7483 16.2946C11.9582 16.3471 12.0631 16.3733 12.1651 16.3673C12.2554 16.362 12.3437 16.3383 12.4245 16.2978C12.5159 16.252 12.5936 16.1768 12.7491 16.0264L16.805 12.1022C16.9691 11.9434 17.0512 11.864 17.101 11.7689C17.1451 11.6849 17.1707 11.5924 17.1761 11.4976C17.1823 11.3905 17.1527 11.2802 17.0936 11.0596Z" stroke="#625353" stroke-width="1.33333" stroke-linecap="round" stroke-linejoin="round"/>
</g>
<defs>
<clipPath id="clip0_9624_10287">
<rect width="16" height="16" fill="white" transform="translate(0.796875 4.3418) rotate(-15)"/>
</clipPath>
</defs>
</svg>