<svg width="16" height="16" viewBox="0 0 16 16" fill="none" xmlns="http://www.w3.org/2000/svg">
<g id="dataflow-04" clip-path="url(#clip0_9362_12634)">
<path id="Icon" d="M2.66536 11.9997V11.8663C2.66536 10.7462 2.66536 10.1862 2.88335 9.75836C3.0751 9.38204 3.38106 9.07608 3.75738 8.88433C4.18521 8.66634 4.74526 8.66634 5.86536 8.66634H10.132C11.2521 8.66634 11.8122 8.66634 12.24 8.88433C12.6163 9.07608 12.9223 9.38204 13.114 9.75836C13.332 10.1862 13.332 10.7462 13.332 11.8663V11.9997M2.66536 11.9997C1.92898 11.9997 1.33203 12.5966 1.33203 13.333C1.33203 14.0694 1.92898 14.6663 2.66536 14.6663C3.40174 14.6663 3.9987 14.0694 3.9987 13.333C3.9987 12.5966 3.40174 11.9997 2.66536 11.9997ZM13.332 11.9997C12.5957 11.9997 11.9987 12.5966 11.9987 13.333C11.9987 14.0694 12.5957 14.6663 13.332 14.6663C14.0684 14.6663 14.6654 14.0694 14.6654 13.333C14.6654 12.5966 14.0684 11.9997 13.332 11.9997ZM7.9987 11.9997C7.26232 11.9997 6.66536 12.5966 6.66536 13.333C6.66536 14.0694 7.26232 14.6663 7.9987 14.6663C8.73508 14.6663 9.33203 14.0694 9.33203 13.333C9.33203 12.5966 8.73508 11.9997 7.9987 11.9997ZM7.9987 11.9997V5.33301M3.9987 5.33301H11.9987C12.62 5.33301 12.9306 5.33301 13.1756 5.23151C13.5023 5.09619 13.7619 4.83662 13.8972 4.50992C13.9987 4.26489 13.9987 3.95426 13.9987 3.33301C13.9987 2.71175 13.9987 2.40112 13.8972 2.1561C13.7619 1.82939 13.5023 1.56983 13.1756 1.4345C12.9306 1.33301 12.62 1.33301 11.9987 1.33301H3.9987C3.37744 1.33301 3.06681 1.33301 2.82179 1.4345C2.49508 1.56983 2.23552 1.82939 2.10019 2.1561C1.9987 2.40112 1.9987 2.71175 1.9987 3.33301C1.9987 3.95426 1.9987 4.26489 2.10019 4.50992C2.23552 4.83662 2.49508 5.09619 2.82179 5.23151C3.06681 5.33301 3.37744 5.33301 3.9987 5.33301Z" stroke="#514141" stroke-width="1.3333" stroke-linecap="round" stroke-linejoin="round"/>
</g>
<defs>
<clipPath id="clip0_9362_12634">
<rect width="16" height="16" fill="white"/>
</clipPath>
</defs>
</svg>
