<svg width="19" height="19" viewBox="0 0 19 19" fill="none" xmlns="http://www.w3.org/2000/svg">
<path d="M11.9355 7.07705V12.4617M11.9355 12.4617H6.55086M11.9355 12.4617L6.55086 7.07695M5.47377 17.8462H13.0122C14.5201 17.8462 15.274 17.8462 15.8499 17.5528C16.3565 17.2947 16.7684 16.8828 17.0265 16.3762C17.3199 15.8003 17.3199 15.0464 17.3199 13.5385V6.00008C17.3199 4.49224 17.3199 3.73832 17.0265 3.16241C16.7684 2.65582 16.3565 2.24395 15.8499 1.98583C15.274 1.69238 14.5201 1.69238 13.0122 1.69238H5.47377C3.96594 1.69238 3.21202 1.69238 2.6361 1.98583C2.12951 2.24395 1.71764 2.65582 1.45952 3.16241C1.16608 3.73832 1.16608 4.49224 1.16608 6.00007V13.5385C1.16608 15.0464 1.16608 15.8003 1.45952 16.3762C1.71764 16.8828 2.12951 17.2947 2.6361 17.5528C3.21202 17.8462 3.96594 17.8462 5.47377 17.8462Z" stroke="#F04438" stroke-width="2" stroke-linecap="round" stroke-linejoin="round"/>
</svg>
