<svg width="20" height="20" viewBox="0 0 20 20" fill="none" xmlns="http://www.w3.org/2000/svg"><path d="M8.953 4.243Q9.461 4.168 10 4.167c4.254 0 7.046 3.754 7.983 5.239 0.114 0.179 0.171 0.269 0.203 0.408 0.024 0.104 0.024 0.268 0 0.372 -0.032 0.138 -0.089 0.228 -0.203 0.41 -0.25 0.395 -0.631 0.951 -1.136 1.554M5.603 5.596c-1.802 1.223 -3.025 2.92 -3.586 3.808 -0.114 0.181 -0.171 0.271 -0.203 0.41a1 1 0 0 0 0 0.372c0.032 0.139 0.088 0.228 0.202 0.408C2.955 12.079 5.746 15.833 10 15.833c1.716 0 3.193 -0.61 4.407 -1.436M2.5 2.5l15 15M8.233 8.232a2.5 2.5 0 1 0 3.536 3.536" stroke="#667085" stroke-width="1.6666666666666667" stroke-linecap="round" stroke-linejoin="round"/></svg>
