<svg xmlns="http://www.w3.org/2000/svg" width="24" height="24" viewBox="0 0 24 24" fill="none" stroke="currentColor" stroke-width="2" stroke-linecap="round" stroke-linejoin="round" class="lucide lucide-folder-open h-4 w-4 text-primary" data-lov-id="src/components/testing/new-testing/modal-sections/TabBanner.tsx:15:10" data-lov-name="Icon" data-component-path="src/components/testing/new-testing/modal-sections/TabBanner.tsx" data-component-line="15" data-component-file="TabBanner.tsx" data-component-name="Icon" data-component-content="%7B%22className%22%3A%22h-4%20w-4%20text-primary%22%7D"><path d="m6 14 1.5-2.9A2 2 0 0 1 9.24 10H20a2 2 0 0 1 1.94 2.5l-1.54 6a2 2 0 0 1-1.95 1.5H4a2 2 0 0 1-2-2V5a2 2 0 0 1 2-2h3.9a2 2 0 0 1 1.69.9l.81 1.2a2 2 0 0 0 1.67.9H18a2 2 0 0 1 2 2v2"></path></svg>