<svg data-lov-id="src/pages/EcosystemNew.tsx:750:22" data-lov-name="svg" data-component-path="src/pages/EcosystemNew.tsx" data-component-line="750" data-component-file="EcosystemNew.tsx" data-component-name="svg" data-component-content="%7B%7D" xmlns="http://www.w3.org/2000/svg" viewBox="0 0 32 32" width="20px" height="20px" fill="currentColor"><path data-lov-id="src/pages/EcosystemNew.tsx:751:24" data-lov-name="path" data-component-path="src/pages/EcosystemNew.tsx" data-component-line="751" data-component-file="EcosystemNew.tsx" data-component-name="path" data-component-content="%7B%7D" d="M 16 1 C 9.383 1 4 6.383 4 13 C 4 15.786 4.9732813 18.497719 6.7382812 20.636719 L 7 20.953125 L 7 24 C 5.346 24 4 25.346 4 27 C 4 28.654 5.346 30 7 30 L 25 30 C 26.654 30 28 28.654 28 27 C 28 25.346 26.654 24 25 24 L 25 20.953125 L 25.261719 20.636719 C 27.026719 18.497719 28 15.786 28 13 C 28 6.383 22.617 1 16 1 z M 3.984375 2.0175781 L 3.2929688 3.3046875 L 2.0175781 4.015625 L 3.3046875 4.7070312 L 4.015625 5.9824219 L 4.7070312 4.6953125 L 5.9824219 3.984375 L 4.6953125 3.2929688 L 3.984375 2.0175781 z M 16 3 C 21.514 3 26 7.486 26 13 C 26 15.167 25.295859 17.28 25.005859 19 L 7.9941406 19 C 6.7041406 17.28 6 15.167 6 13 C 6 7.486 10.486 3 16 3 z M 16 5 C 11.665 5 8.0779531 8.5244219 8.0019531 12.857422 C 7.9919531 13.410422 8.4314219 13.865 8.9824219 13.875 L 9.0019531 13.875 C 9.5469531 13.875 9.9919531 13.437578 10.001953 12.892578 C 10.058953 9.6435781 12.749 7 16 7 L 16.226562 7.0039062 C 16.755562 6.9989063 17.238 6.5793438 17.25 6.0273438 C 17.262 5.4753437 16.825437 5.0169062 16.273438 5.0039062 L 16 5 z M 20.974609 9.0253906 L 19.939453 10.957031 L 18.025391 12.025391 L 19.957031 13.060547 L 21.025391 14.974609 L 22.060547 13.042969 L 23.974609 11.974609 L 22.042969 10.939453 L 20.974609 9.0253906 z M 16.984375 14.017578 L 16.292969 15.304688 L 15.017578 16.015625 L 16.304688 16.707031 L 17.015625 17.982422 L 17.707031 16.695312 L 18.982422 15.984375 L 17.695312 15.292969 L 16.984375 14.017578 z M 9 21 L 23 21 L 23 24 L 9 24 L 9 21 z M 7 26 L 25 26 C 25.552 26 26 26.448 26 27 C 26 27.552 25.552 28 25 28 L 7 28 C 6.448 28 6 27.552 6 27 C 6 26.448 6.448 26 7 26 z"></path></svg>