<svg xmlns="http://www.w3.org/2000/svg" width="24" height="24" viewBox="0 0 24 24" fill="none" stroke="currentColor" stroke-width="2" stroke-linecap="round" stroke-linejoin="round" class="lucide lucide-handshake h-4 w-4" data-lov-id="src/components/ecosystem/CompanyDetailPanel.tsx:35:15" data-lov-name="Handshake" data-component-path="src/components/ecosystem/CompanyDetailPanel.tsx" data-component-line="35" data-component-file="CompanyDetailPanel.tsx" data-component-name="Handshake" data-component-content="%7B%22className%22%3A%22h-4%20w-4%22%7D"><path d="m11 17 2 2a1 1 0 1 0 3-3"></path><path d="m14 14 2.5 2.5a1 1 0 1 0 3-3l-3.88-3.88a3 3 0 0 0-4.24 0l-.88.88a1 1 0 1 1-3-3l2.81-2.81a5.79 5.79 0 0 1 7.06-.87l.47.28a2 2 0 0 0 1.42.25L21 4"></path><path d="m21 3 1 11h-2"></path><path d="M3 3 2 14l6.5 6.5a1 1 0 1 0 3-3"></path><path d="M3 4h8"></path></svg>