<svg width="16" height="16" viewBox="0 0 16 16" fill="none" xmlns="http://www.w3.org/2000/svg">
<g id="help-circle" clip-path="url(#clip0_5216_3630)">
<path id="Icon" d="M6.05992 5.9987C6.21665 5.55314 6.52602 5.17744 6.93322 4.93812C7.34042 4.6988 7.81918 4.61132 8.2847 4.69117C8.75022 4.77102 9.17246 5.01305 9.47664 5.37438C9.78081 5.73572 9.94729 6.19305 9.94659 6.66536C9.94659 7.9987 7.94659 8.66536 7.94659 8.66536M7.99992 11.332H8.00659M14.6666 7.9987C14.6666 11.6806 11.6818 14.6654 7.99992 14.6654C4.31802 14.6654 1.33325 11.6806 1.33325 7.9987C1.33325 4.3168 4.31802 1.33203 7.99992 1.33203C11.6818 1.33203 14.6666 4.3168 14.6666 7.9987Z" stroke="#98A2B3" stroke-width="1.33333" stroke-linecap="round" stroke-linejoin="round"/>
</g>
<defs>
<clipPath id="clip0_5216_3630">
<rect width="16" height="16" fill="white"/>
</clipPath>
</defs>
</svg>
