<svg width="24" height="24" viewBox="0 0 24 24" fill="none" xmlns="http://www.w3.org/2000/svg">
<path d="M4.80952 4C3.55621 4 2.52381 5.0324 2.52381 6.28571V16.1905C2.52381 16.7761 2.75552 17.3079 3.12351 17.7143H1C1 18.9768 2.02324 20 3.28571 20H21.5714C22.8339 20 23.8571 18.9768 23.8571 17.7143H21.7336C22.1016 17.3079 22.3333 16.7761 22.3333 16.1905V6.28571C22.3333 5.0324 21.3009 4 20.0476 4H4.80952ZM4.80952 5.52381H20.0476C20.4781 5.52381 20.8095 5.85522 20.8095 6.28571V16.1905C20.8095 16.621 20.4781 16.9524 20.0476 16.9524H4.80952C4.37902 16.9524 4.04762 16.621 4.04762 16.1905V6.28571C4.04762 5.85522 4.37902 5.52381 4.80952 5.52381ZM10.7351 7.80952C10.4075 7.80952 10.1429 8.07417 10.1429 8.40179V13.7351C10.1429 14.0627 10.4075 14.3289 10.7351 14.3289C10.9058 14.3289 11.057 14.2542 11.1652 14.1384L11.1682 14.1399L12.1577 12.9717L13.1756 15.0074C13.2203 15.097 13.2823 15.1768 13.3579 15.2424C13.4335 15.308 13.5212 15.358 13.6162 15.3897C13.7111 15.4213 13.8114 15.434 13.9112 15.4269C14.011 15.4198 14.1085 15.3931 14.198 15.3483C14.2875 15.3036 14.3673 15.2416 14.4329 15.166C14.4984 15.0904 14.5485 15.0026 14.5801 14.9077C14.6118 14.8127 14.6244 14.7125 14.6173 14.6127C14.6102 14.5128 14.5835 14.4154 14.5387 14.3259L13.4836 12.2158L15.0476 11.9345L15.0491 11.9241C15.2937 11.8517 15.4762 11.635 15.4762 11.3661C15.4762 11.1588 15.3631 10.9854 15.2024 10.8795L15.2039 10.8676L11.1354 7.96577L11.1324 7.96726C11.0273 7.87126 10.889 7.80952 10.7351 7.80952Z" fill="black"/>
</svg>
