<svg width="19" height="19" viewBox="0 0 19 19" fill="none" xmlns="http://www.w3.org/2000/svg">
<path d="M11.9616 12.4617V7.07705M11.9616 7.07705H6.577M11.9616 7.07705L6.577 12.4616M5.49991 17.8462H13.0384C14.5462 17.8462 15.3001 17.8462 15.876 17.5528C16.3826 17.2947 16.7945 16.8828 17.0526 16.3762C17.3461 15.8003 17.3461 15.0464 17.3461 13.5385V6.00008C17.3461 4.49224 17.3461 3.73832 17.0526 3.16241C16.7945 2.65582 16.3826 2.24395 15.876 1.98583C15.3001 1.69238 14.5462 1.69238 13.0384 1.69238H5.49991C3.99207 1.69238 3.23816 1.69238 2.66224 1.98583C2.15565 2.24395 1.74378 2.65582 1.48566 3.16241C1.19221 3.73832 1.19221 4.49224 1.19221 6.00007V13.5385C1.19221 15.0464 1.19221 15.8003 1.48566 16.3762C1.74378 16.8828 2.15565 17.2947 2.66224 17.5528C3.23816 17.8462 3.99207 17.8462 5.49991 17.8462Z" stroke="#17B26A" stroke-width="2" stroke-linecap="round" stroke-linejoin="round"/>
</svg>
