<svg xmlns="http://www.w3.org/2000/svg" width="24" height="24" viewBox="0 0 24 24" fill="none" stroke="currentColor" stroke-width="2" stroke-linecap="round" stroke-linejoin="round" class="lucide lucide-layers w-6 h-6 text-white/80 flex-shrink-0 mt-0.5" data-lov-id="src/components/playground/OpportunityMapGrid.tsx:280:24" data-lov-name="idea.icon" data-component-path="src/components/playground/OpportunityMapGrid.tsx" data-component-line="280" data-component-file="OpportunityMapGrid.tsx" data-component-name="idea.icon" data-component-content="%7B%22className%22%3A%22w-6%20h-6%20text-white%2F80%20flex-shrink-0%20mt-0.5%22%7D"><path d="m12.83 2.18a2 2 0 0 0-1.66 0L2.6 6.08a1 1 0 0 0 0 1.83l8.58 3.91a2 2 0 0 0 1.66 0l8.58-3.9a1 1 0 0 0 0-1.83Z"></path><path d="m22 17.65-9.17 4.16a2 2 0 0 1-1.66 0L2 17.65"></path><path d="m22 12.65-9.17 4.16a2 2 0 0 1-1.66 0L2 12.65"></path></svg>