<svg width="21" height="20" viewBox="0 0 21 20" fill="none" xmlns="http://www.w3.org/2000/svg">
<g id="link-external-01">
<path id="Icon" d="M18.1667 7.5L18.1667 2.5M18.1667 2.5H13.1667M18.1667 2.5L11.5001 9.16667M9.00008 4.16667H7.16675C5.76662 4.16667 5.06655 4.16667 4.53177 4.43915C4.06137 4.67883 3.67892 5.06129 3.43923 5.53169C3.16675 6.06647 3.16675 6.76654 3.16675 8.16667V13.5C3.16675 14.9001 3.16675 15.6002 3.43923 16.135C3.67892 16.6054 4.06137 16.9878 4.53177 17.2275C5.06655 17.5 5.76662 17.5 7.16675 17.5H12.5001C13.9002 17.5 14.6003 17.5 15.1351 17.2275C15.6055 16.9878 15.9879 16.6054 16.2276 16.135C16.5001 15.6002 16.5001 14.9001 16.5001 13.5V11.6667" stroke="#667085" stroke-width="1.66667" stroke-linecap="round" stroke-linejoin="round"/>
</g>
</svg>
