<svg width="20" height="16" viewBox="0 0 20 16" fill="none" xmlns="http://www.w3.org/2000/svg">
<path d="M10.2368 14.4168H4.57015C3.63673 14.4168 3.17002 14.4168 2.8135 14.2352C2.4999 14.0754 2.24493 13.8204 2.08514 13.5068C1.90349 13.1503 1.90349 12.6836 1.90349 11.7502V3.75016C1.90349 2.81674 1.90349 2.35003 2.08514 1.99351C2.24493 1.67991 2.4999 1.42494 2.8135 1.26515C3.17002 1.0835 3.63673 1.0835 4.57015 1.0835H4.90349C6.77033 1.0835 7.70375 1.0835 8.41679 1.44681C9.044 1.76639 9.55393 2.27632 9.87351 2.90353C10.2368 3.61657 10.2368 4.54999 10.2368 6.41683M10.2368 14.4168V6.41683M10.2368 14.4168H15.9035C16.8369 14.4168 17.3036 14.4168 17.6601 14.2352C17.9737 14.0754 18.2287 13.8204 18.3885 13.5068C18.5702 13.1503 18.5702 12.6836 18.5702 11.7502V3.75016C18.5702 2.81674 18.5702 2.35003 18.3885 1.99351C18.2287 1.67991 17.9737 1.42494 17.6601 1.26515C17.3036 1.0835 16.8369 1.0835 15.9035 1.0835H15.5702C13.7033 1.0835 12.7699 1.0835 12.0569 1.44681C11.4296 1.76639 10.9197 2.27632 10.6001 2.90353C10.2368 3.61657 10.2368 4.54999 10.2368 6.41683" stroke="#0C111D" stroke-width="2" stroke-linecap="round" stroke-linejoin="round"/>
</svg>
