<svg width="12" height="12" viewBox="0 0 12 12" fill="none" xmlns="http://www.w3.org/2000/svg">
<path d="M11.3655 4.4425L11.3655 0.980963M11.3655 0.980963H7.90392M11.3655 0.980963L6.17317 6.17327M5.01932 0.980957H3.75009C2.78077 0.980957 2.29611 0.980957 1.92587 1.1696C1.60021 1.33553 1.33544 1.60031 1.1695 1.92597C0.980858 2.29621 0.980858 2.78087 0.980858 3.75019V8.59634C0.980858 9.56566 0.980858 10.0503 1.1695 10.4206C1.33544 10.7462 1.60021 11.011 1.92587 11.1769C2.29611 11.3656 2.78077 11.3656 3.75009 11.3656H8.59624C9.56556 11.3656 10.0502 11.3656 10.4205 11.1769C10.7461 11.011 11.0109 10.7462 11.1768 10.4206C11.3655 10.0503 11.3655 9.56566 11.3655 8.59634V7.32711" stroke="#0C111D" stroke-linecap="round" stroke-linejoin="round"/>
</svg>
