<svg data-lov-id="src/pages/EcosystemNew.tsx:366:22" data-lov-name="svg" data-component-path="src/pages/EcosystemNew.tsx" data-component-line="366" data-component-file="EcosystemNew.tsx" data-component-name="svg" data-component-content="%7B%7D" xmlns="http://www.w3.org/2000/svg" viewBox="0 0 24 24" width="20px" height="20px" fill="currentColor"><path data-lov-id="src/pages/EcosystemNew.tsx:367:24" data-lov-name="path" data-component-path="src/pages/EcosystemNew.tsx" data-component-line="367" data-component-file="EcosystemNew.tsx" data-component-name="path" data-component-content="%7B%7D" d="M 18 0 C 15.791 0 14 1.791 14 4 C 14 6.857 18 11 18 11 C 18 11 22 6.857 22 4 C 22 1.791 20.209 0 18 0 z M 18 2.5703125 C 18.789 2.5703125 19.429688 3.211 19.429688 4 C 19.429688 4.789 18.789 5.4296875 18 5.4296875 C 17.211 5.4296875 16.570312 4.789 16.570312 4 C 16.570312 3.211 17.211 2.5703125 18 2.5703125 z M 8.96875 2.9355469 L 3.6289062 5.0722656 C 3.2489063 5.2242656 3 5.591 3 6 L 3 20 C 3 20.707 3.7140937 21.191688 4.3710938 20.929688 L 9.03125 19.064453 L 15.03125 21.064453 L 20.371094 18.929688 C 20.751094 18.776688 21 18.409 21 18 L 21 10.585938 C 20.308 11.465937 19.6965 12.122625 19.4375 12.390625 L 19 12.84375 L 19 17.324219 L 16 18.523438 L 16 11.78125 C 15.471 11.18725 14.716 10.284844 14 9.2148438 L 14 18.613281 L 10 17.28125 L 10 5.3867188 L 12.427734 6.1953125 C 12.165734 5.4603125 12 4.718 12 4 C 12 3.982 12.003906 3.9652656 12.003906 3.9472656 L 8.96875 2.9355469 z M 8 5.4765625 L 8 17.322266 L 5 18.523438 L 5 6.6777344 L 8 5.4765625 z"></path></svg>