<svg width="20" height="20" viewBox="0 0 20 20" fill="none" xmlns="http://www.w3.org/2000/svg">
<path d="M3.91026 1.55791C3.93383 1.509 4.20412 1 4.82168 1C5.37954 1 5.82739 1.45703 5.82739 1.97826C5.82739 2.5056 5.65453 3.1323 5.09825 4.56301C5.02125 4.75713 5.03854 4.88247 5.04011 4.88706C5.04168 4.89012 5.01025 4.91304 5.22397 4.91304H7.8388C8.50037 4.91304 9.04565 5.44344 9.04565 6.08696V6.32846C9.20908 6.48438 9.44793 6.76257 9.44793 7.26087C9.44793 7.59868 9.31279 7.857 9.17608 8.04348C9.31279 8.22996 9.44793 8.48828 9.44793 8.82609C9.44793 9.32439 9.20908 9.60258 9.04565 9.75849V10C9.04565 10.6435 8.50037 11.1739 7.8388 11.1739H3.21255C1.99471 11.1739 1 10.2064 1 9.02174V6.47826C1 5.97537 1.15557 5.4893 1.45885 5.07354V5.07201L3.91026 1.55791Z" stroke="black" stroke-width="1.666"/>
<path d="M10.9544 10C10.9544 9.35649 11.4996 8.82609 12.1612 8.82609H16.7874C18.0053 8.82609 19 9.79365 19 10.9783V13.5217C19 14.0246 18.8444 14.5107 18.5411 14.9265V14.928L16.0897 18.4421C16.0662 18.491 15.7959 19 15.1783 19C14.6205 19 14.1726 18.543 14.1726 18.0217C14.1726 17.4944 14.3455 16.8677 14.9017 15.437C14.9787 15.2429 14.9615 15.1175 14.9599 15.1129C14.9583 15.1099 14.9897 15.087 14.776 15.087H12.1612C11.4996 15.087 10.9544 14.5566 10.9544 13.913V13.6715C10.7909 13.5156 10.5521 13.2374 10.5521 12.7391C10.5521 12.4013 10.6872 12.143 10.8239 11.9565C10.6872 11.77 10.5521 11.5117 10.5521 11.1739C10.5521 10.6756 10.7909 10.3974 10.9544 10.2415V10Z" stroke="black" stroke-width="1.666"/>
</svg>
