<svg width="17" height="16" viewBox="0 0 17 16" fill="none" xmlns="http://www.w3.org/2000/svg">
  <path
    d="M15.4166 8C15.4166 11.7279 12.3945 14.75 8.66663 14.75C7.76877 14.75 6.91185 14.5747 6.12824 14.2565C5.97827 14.1955 5.90328 14.1651 5.84267 14.1515C5.78337 14.1382 5.73949 14.1334 5.67873 14.1333C5.6166 14.1333 5.54894 14.1446 5.41361 14.1672L2.7452 14.6119C2.46576 14.6585 2.32605 14.6818 2.22501 14.6384C2.13659 14.6005 2.06612 14.53 2.0282 14.4416C1.98486 14.3406 2.00815 14.2009 2.05472 13.9214L2.49946 11.253C2.52201 11.1177 2.53329 11.05 2.53328 10.9879C2.53327 10.9271 2.52841 10.8833 2.51512 10.824C2.50154 10.7633 2.47108 10.6884 2.41017 10.5384C2.09193 9.75477 1.91663 8.89786 1.91663 8C1.91663 4.27208 4.9387 1.25 8.66663 1.25C12.3945 1.25 15.4166 4.27208 15.4166 8Z"
    stroke="#667085" stroke-width="2" stroke-linecap="round" stroke-linejoin="round" />
</svg>