<svg width="25" height="24" viewBox="0 0 25 24" fill="none" xmlns="http://www.w3.org/2000/svg">
<path d="M5.57154 18.4292H4.92865C4.41798 18.4265 3.92898 18.2225 3.56788 17.8614C3.20677 17.5003 3.0027 17.0113 3 16.5006V4.92865C3.0027 4.41798 3.20677 3.92898 3.56788 3.56788C3.92898 3.20677 4.41798 3.0027 4.92865 3H15.2148C15.7255 3.0027 16.2145 3.20677 16.5756 3.56788C16.9367 3.92898 17.1408 4.41798 17.1435 4.92865V5.57154M16.3825 9.44188L17.4271 10.6158M13.8963 11.3644L14.9409 12.5384M11.4101 13.287L12.4547 14.4609M8.92388 15.2095L9.9685 16.3834M6.48339 17.1835L9.17754 20.2112C9.31544 20.3661 9.38439 20.4436 9.46899 20.4781C9.54341 20.5084 9.6259 20.5161 9.70464 20.5C9.79415 20.4817 9.8762 20.4182 10.0403 20.2914L21.5337 11.4037C21.6978 11.2768 21.7799 11.2133 21.8157 11.1347C21.8472 11.0656 21.8544 10.9886 21.8362 10.9148C21.8154 10.8309 21.7465 10.7534 21.6086 10.5984L18.9144 7.57077C18.7765 7.4158 18.7076 7.33832 18.623 7.30382C18.5486 7.27348 18.4661 7.26581 18.3873 7.28192C18.2978 7.30022 18.2158 7.36367 18.0517 7.49056L6.55824 16.3782C6.39414 16.5051 6.3121 16.5686 6.27626 16.6472C6.24473 16.7164 6.23757 16.7933 6.25581 16.8671C6.27654 16.951 6.34549 17.0285 6.48339 17.1835Z" stroke="black" stroke-width="1.666" stroke-linecap="round"/>
</svg>
