<svg width="19" height="19" viewBox="0 0 19 19" fill="none" xmlns="http://www.w3.org/2000/svg">
<path d="M9.25605 13.359L12.8458 9.76931M12.8458 9.76931L9.25605 6.17956M12.8458 9.76931H5.6663M5.48681 17.8462H13.0253C14.5331 17.8462 15.287 17.8462 15.8629 17.5528C16.3695 17.2947 16.7814 16.8828 17.0395 16.3762C17.333 15.8003 17.333 15.0464 17.333 13.5385V6.00008C17.333 4.49224 17.333 3.73832 17.0395 3.16241C16.7814 2.65582 16.3695 2.24395 15.8629 1.98583C15.287 1.69238 14.5331 1.69238 13.0253 1.69238H5.48682C3.97898 1.69238 3.22506 1.69238 2.64915 1.98583C2.14256 2.24395 1.73069 2.65582 1.47257 3.16241C1.17912 3.73832 1.17912 4.49224 1.17912 6.00007V13.5385C1.17912 15.0464 1.17912 15.8003 1.47257 16.3762C1.73069 16.8828 2.14256 17.2947 2.64915 17.5528C3.22506 17.8462 3.97898 17.8462 5.48681 17.8462Z" stroke="#F79009" stroke-width="2" stroke-linecap="round" stroke-linejoin="round"/>
</svg>
