<svg width="24" height="24" viewBox="0 0 24 24" fill="none" xmlns="http://www.w3.org/2000/svg">
<path d="M11.2826 3.45356C11.5131 2.98662 11.6284 2.75315 11.7848 2.67856C11.9209 2.61366 12.0791 2.61366 12.2152 2.67856C12.3716 2.75315 12.4869 2.98662 12.7174 3.45356L14.904 7.88353C14.9721 8.02138 15.0061 8.0903 15.0558 8.14382C15.0999 8.1912 15.1527 8.22959 15.2113 8.25687C15.2775 8.28767 15.3536 8.29878 15.5057 8.32102L20.397 9.03595C20.912 9.11124 21.1696 9.14888 21.2888 9.27468C21.3925 9.38414 21.4412 9.53454 21.4215 9.68402C21.3988 9.85582 21.2124 10.0374 20.8395 10.4006L17.3014 13.8467C17.1911 13.9541 17.136 14.0078 17.1004 14.0717C17.0689 14.1283 17.0487 14.1905 17.0409 14.2548C17.0321 14.3274 17.0451 14.4032 17.0711 14.555L17.9059 19.4224C17.994 19.9357 18.038 20.1924 17.9553 20.3447C17.8833 20.4773 17.7553 20.5702 17.607 20.5977C17.4366 20.6293 17.2061 20.5081 16.7451 20.2657L12.3724 17.9661C12.2361 17.8944 12.168 17.8586 12.0962 17.8445C12.0327 17.8321 11.9673 17.8321 11.9038 17.8445C11.832 17.8586 11.7639 17.8944 11.6276 17.9661L7.25491 20.2657C6.7939 20.5081 6.5634 20.6293 6.39296 20.5977C6.24467 20.5702 6.11671 20.4773 6.04472 20.3447C5.96199 20.1924 6.00601 19.9357 6.09406 19.4224L6.92887 14.555C6.9549 14.4032 6.96791 14.3274 6.9591 14.2548C6.95131 14.1905 6.9311 14.1283 6.89959 14.0717C6.86401 14.0078 6.80886 13.9541 6.69857 13.8467L3.16054 10.4006C2.78765 10.0374 2.6012 9.85582 2.57851 9.68402C2.55877 9.53454 2.60754 9.38414 2.71124 9.27468C2.83042 9.14888 3.08796 9.11124 3.60303 9.03595L8.4943 8.32102C8.64641 8.29878 8.72247 8.28767 8.7887 8.25687C8.84735 8.22959 8.90015 8.1912 8.94417 8.14382C8.99389 8.0903 9.02791 8.02138 9.09596 7.88353L11.2826 3.45356Z" stroke="black" stroke-width="2" stroke-linecap="round" stroke-linejoin="round"/>
</svg>
