<svg width="29" height="29" viewBox="0 0 29 29" fill="none" xmlns="http://www.w3.org/2000/svg">
<g id="telescope">
<path id="Icon" d="M15.8097 17.8186L21.5015 26.1664M13.1932 17.8186L7.50145 26.1664M16.8348 15.8998C16.8348 17.1885 15.7901 18.2331 14.5015 18.2331C13.2128 18.2331 12.1681 17.1885 12.1681 15.8998C12.1681 14.6111 13.2128 13.5665 14.5015 13.5665C15.7901 13.5665 16.8348 14.6111 16.8348 15.8998ZM20.508 5.78746L6.7597 9.47132C6.44413 9.55587 6.28635 9.59815 6.18228 9.69186C6.09073 9.77429 6.02763 9.88358 6.00202 10.0041C5.9729 10.1411 6.01518 10.2988 6.09973 10.6144L7.12638 14.4459C7.21094 14.7615 7.25322 14.9193 7.34692 15.0233C7.42935 15.1149 7.53865 15.178 7.65914 15.2036C7.79613 15.2327 7.95391 15.1904 8.26948 15.1059L22.0178 11.422L20.508 5.78746ZM25.9259 11.5827C24.6636 11.9209 24.0325 12.09 23.4846 11.9735C23.0026 11.8711 22.5654 11.6187 22.2357 11.2525C21.8609 10.8362 21.6917 10.2051 21.3535 8.94282L21.1723 8.26667C20.8341 7.00441 20.665 6.37328 20.7815 5.82533C20.8839 5.34335 21.1363 4.90617 21.5025 4.57646C21.9188 4.20162 22.5499 4.03251 23.8122 3.69429C24.1278 3.60973 24.2856 3.56746 24.4225 3.59657C24.543 3.62218 24.6523 3.68529 24.7348 3.77683C24.8285 3.88091 24.8707 4.03869 24.9553 4.35425L26.5859 10.4396C26.6704 10.7552 26.7127 10.9129 26.6836 11.0499C26.658 11.1704 26.5949 11.2797 26.5033 11.3621C26.3992 11.4558 26.2415 11.4981 25.9259 11.5827ZM4.58678 14.8848L6.16446 14.4621C6.48003 14.3775 6.63781 14.3353 6.74188 14.2416C6.83343 14.1591 6.89653 14.0498 6.92214 13.9293C6.95126 13.7924 6.90898 13.6346 6.82443 13.319L6.40169 11.7413C6.31713 11.4258 6.27486 11.268 6.18115 11.1639C6.09872 11.0724 5.98942 11.0093 5.86893 10.9836C5.73194 10.9545 5.57416 10.9968 5.25859 11.0814L3.68091 11.5041C3.36535 11.5887 3.20757 11.6309 3.10349 11.7246C3.01195 11.8071 2.94884 11.9164 2.92323 12.0369C2.89412 12.1738 2.93639 12.3316 3.02095 12.6472L3.44369 14.2249C3.52824 14.5404 3.57052 14.6982 3.66423 14.8023C3.74666 14.8938 3.85595 14.9569 3.97645 14.9826C4.11343 15.0117 4.27122 14.9694 4.58678 14.8848Z" stroke="black" stroke-width="2" stroke-linecap="round" stroke-linejoin="round"/>
</g>
</svg>
