<svg width="24" height="24" viewBox="0 0 24 24" fill="none" xmlns="http://www.w3.org/2000/svg">
<path d="M3.9 15.8V7.88C3.9 6.87191 3.9 6.36786 4.09619 5.98282C4.26876 5.64413 4.54413 5.36876 4.88282 5.19619C5.26786 5 5.77191 5 6.78 5H17.22C18.2281 5 18.7321 5 19.1172 5.19619C19.4559 5.36876 19.7312 5.64413 19.9038 5.98282C20.1 6.36786 20.1 6.87191 20.1 7.88V15.8H15.2965C15.0763 15.8 14.9663 15.8 14.8627 15.8249C14.7709 15.8469 14.6831 15.8833 14.6025 15.9326C14.5117 15.9883 14.4339 16.0661 14.2782 16.2218L14.2218 16.2782C14.0661 16.4339 13.9883 16.5117 13.8975 16.5674C13.8169 16.6167 13.7291 16.6531 13.6373 16.6751C13.5337 16.7 13.4237 16.7 13.2035 16.7H10.7965C10.5763 16.7 10.4663 16.7 10.3627 16.6751C10.2709 16.6531 10.1831 16.6167 10.1025 16.5674C10.0117 16.5117 9.93389 16.4339 9.77823 16.2782L9.72177 16.2218C9.56611 16.0661 9.48828 15.9883 9.39746 15.9326C9.31693 15.8833 9.22914 15.8469 9.13731 15.8249C9.03373 15.8 8.92366 15.8 8.70353 15.8H3.9ZM3.9 15.8C3.40294 15.8 3 16.2029 3 16.7V17C3 17.558 3 17.837 3.06133 18.0659C3.22777 18.687 3.71296 19.1722 4.33413 19.3387C4.56303 19.4 4.84202 19.4 5.4 19.4H18.6C19.158 19.4 19.437 19.4 19.6659 19.3387C20.287 19.1722 20.7722 18.687 20.9387 18.0659C21 17.837 21 17.558 21 17C21 16.721 21 16.5815 20.9693 16.4671C20.8861 16.1565 20.6435 15.9139 20.3329 15.8307C20.2185 15.8 20.079 15.8 19.8 15.8H19.2M8.84392 7.7L14.2198 13.0759M14.2164 10.0571C14.1922 10.0996 14.1265 10.1307 14.0058 10.1739C13.9103 10.2081 13.8111 10.2311 13.7107 10.246L12.3497 10.4481C12.1579 10.4766 12.198 10.74 12.0383 10.8498V10.8498C12.0208 10.8618 12.0057 10.8769 11.9937 10.8943V10.8943C11.8375 11.1216 11.7594 11.2352 11.69 11.3828C11.6473 11.4736 11.5427 11.8106 11.5264 11.9096C11.5 12.0706 11.5 11.1346 11.5 11.509V11.7303C11.5 11.7639 11.5 11.7807 11.4996 11.8016C11.4969 11.9289 11.4778 12.0835 11.4492 12.2076C11.4446 12.2279 11.4417 12.2392 11.436 12.2618C11.3881 12.4521 11.32 12.711 11.2552 12.9143C11.2225 13.0174 11.1376 13.1249 11.0403 13.0778V13.0778C10.9812 13.0493 10.9375 12.9446 10.8503 12.7351L8.94567 8.16348C8.8647 7.96914 8.82422 7.87197 8.84392 7.81118C8.86101 7.75844 8.90236 7.71709 8.9551 7.7C9.01589 7.6803 9.11306 7.72078 9.3074 7.80175L13.879 9.70637C14.0885 9.79363 14.1932 9.83726 14.2218 9.89637C14.2465 9.94759 14.2445 10.0077 14.2164 10.0571Z" stroke="black" stroke-width="1.6" stroke-linecap="round" stroke-linejoin="round"/>
</svg>
