<svg width="20" height="20" viewBox="0 0 20 20" fill="none" xmlns="http://www.w3.org/2000/svg">
<g id="thermometer-02">
<g id="Icon">
<path d="M12.0833 3.74935C12.0833 2.59876 11.1506 1.66602 10 1.66602C8.84941 1.66602 7.91667 2.59875 7.91667 3.74935V11.4642C6.91168 12.1369 6.25 13.2825 6.25 14.5827C6.25 16.6538 7.92893 18.3327 10 18.3327C12.0711 18.3327 13.75 16.6538 13.75 14.5827C13.75 13.2825 13.0883 12.1369 12.0833 11.4642V3.74935Z" stroke="#7839EE" stroke-width="1.66667" stroke-linecap="round" stroke-linejoin="round"/>
<path d="M10 15.416C10.4602 15.416 10.8333 15.0429 10.8333 14.5827C10.8333 14.1224 10.4602 13.7493 10 13.7493C9.53976 13.7493 9.16667 14.1224 9.16667 14.5827C9.16667 15.0429 9.53976 15.416 10 15.416Z" stroke="#7839EE" stroke-width="1.66667" stroke-linecap="round" stroke-linejoin="round"/>
</g>
</g>
</svg>
