<svg width="19" height="18" viewBox="0 0 19 18" fill="none" xmlns="http://www.w3.org/2000/svg">
  <path id="Icon" d="M5.58334 14.55C5.58334 15.627 6.42281 16.5 7.45834 16.5C8.49388 16.5 9.33334 15.627 9.33334 14.55V8.25M9.33334 8.25C8.12571 8.25 6.33334 9 6.33334 9C6.33334 9 5.29097 8.25 4.08334 8.25C2.87571 8.25 1.83334 9 1.83334 9C1.83334 4.85786 5.19121 1.5 9.33334 1.5C13.4755 1.5 16.8333 4.85786 16.8333 9C16.8333 9 15.791 8.25 14.5833 8.25C13.3757 8.25 12.3333 9 12.3333 9C12.3333 9 10.541 8.25 9.33334 8.25Z" stroke="#667085"
    stroke-width="2" stroke-linecap="round" stroke-linejoin="round" />
</svg>