<svg width="20" height="20" viewBox="0 0 20 20" fill="none" xmlns="http://www.w3.org/2000/svg">
<path d="M9.16675 12.5H6.66675C5.11361 12.5 4.33704 12.5 3.72447 12.7537C2.90771 13.092 2.2588 13.741 1.92048 14.5577C1.66675 15.1703 1.66675 15.9469 1.66675 17.5M12.9167 2.7423C14.1383 3.23679 15.0001 4.43443 15.0001 5.83333M9.99998 17.9167L11.6875 17.5792C11.8347 17.5497 11.9083 17.535 11.9769 17.5081C12.0378 17.4842 12.0956 17.4533 12.1493 17.4159C12.2097 17.3737 12.2628 17.3206 12.3689 17.2145L17.9168 11.6667C18.377 11.2065 18.377 10.4602 17.9168 9.99998C17.4565 9.53975 16.7103 9.53976 16.2501 10L10.7022 15.5479C10.5961 15.654 10.543 15.707 10.5009 15.7675C10.4635 15.8211 10.4325 15.879 10.4086 15.9399C10.3817 16.0085 10.367 16.082 10.3376 16.2292L9.99998 17.9167ZM11.2501 5.83333C11.2501 7.67428 9.7577 9.16667 7.91675 9.16667C6.0758 9.16667 4.58341 7.67428 4.58341 5.83333C4.58341 3.99238 6.0758 2.5 7.91675 2.5C9.7577 2.5 11.2501 3.99238 11.2501 5.83333Z" stroke="#626BA3" stroke-width="1.66667" stroke-linecap="round" stroke-linejoin="round"/>
</svg>
