<svg width="24" height="24" viewBox="0 0 24 24" fill="none" xmlns="http://www.w3.org/2000/svg">
<path d="M2.99995 2.2C2.55812 2.2 2.19995 2.55817 2.19995 3C2.19995 3.44183 2.55812 3.8 2.99995 3.8V2.2ZM20.9988 3.8C21.4406 3.8 21.7988 3.44183 21.7988 3C21.7988 2.55817 21.4406 2.2 20.9988 2.2V3.8ZM8.17752 15.718L8.9141 15.4058L8.90775 15.3908L8.9008 15.3761L8.17752 15.718ZM7.54485 14.7237L8.16012 14.2122L8.15182 14.2026L7.54485 14.7237ZM7.4979 14.674H6.6979V14.9604L6.87967 15.1817L7.4979 14.674ZM7.4979 14.5994L6.95241 14.0142L6.6979 14.2515V14.5994H7.4979ZM8.13057 13.9047L8.76377 14.3937L8.76833 14.3876L8.13057 13.9047ZM9.46634 11.7707L8.75368 11.4073L8.75354 11.4075L9.46634 11.7707ZM11.2259 5.6239L10.4368 5.4923L10.4283 5.54334L10.4264 5.59506L11.2259 5.6239ZM9.72462 5.5456L10.4696 5.83708L10.4795 5.81177L10.4877 5.78584L9.72462 5.5456ZM9.58422 5.72654L10.0456 6.38012L10.0902 6.34858L10.1302 6.31126L9.58422 5.72654ZM9.37248 5.79417L9.3917 6.59394L9.37248 5.79417ZM12.7718 5.62017L13.5712 5.59133L13.5694 5.53962L13.5609 5.48857L12.7718 5.62017ZM14.5336 11.767L15.2464 11.4038L15.2462 11.4035L14.5336 11.767ZM15.8693 13.9009L15.2315 14.3839L15.2362 14.3899L15.8693 13.9009ZM16.502 14.5957H17.302V14.2477L17.0475 14.0105L16.502 14.5957ZM16.502 14.6703L17.109 15.1914L17.302 14.9666V14.6703H16.502ZM16.4551 14.72L17.0703 15.2314L17.0733 15.2277L16.4551 14.72ZM15.8224 15.7142L15.0991 15.3724L15.0922 15.3871L15.0858 15.4021L15.8224 15.7142ZM20.9989 5.75061L20.1989 5.75066L20.9989 5.75061ZM20.9997 17.9998L21.7997 17.9997L20.9997 17.9998ZM2.99995 3.8H20.9988V2.2H2.99995V3.8ZM2.19888 5.75013L2.19974 17.9978L3.79974 17.9977L3.79888 5.75002L2.19888 5.75013ZM5.99974 21.7975H8.21122V20.1975H5.99974V21.7975ZM9.79862 20.2391C9.86006 18.5788 9.55784 16.9247 8.9141 15.4058L7.44094 16.0301C7.99234 17.3312 8.25256 18.7517 8.19972 20.18L9.79862 20.2391ZM8.9008 15.3761C8.70281 14.9572 8.45404 14.566 8.16004 14.2123L6.92966 15.2351C7.13647 15.4839 7.31299 15.761 7.45424 16.0598L8.9008 15.3761ZM8.15182 14.2026C8.13593 14.1841 8.11878 14.1651 8.09974 14.1459C8.09037 14.1364 8.08212 14.1285 8.07539 14.1221C8.07221 14.1191 8.06953 14.1166 8.06781 14.115C8.06696 14.1142 8.06621 14.1135 8.06579 14.1131C8.06524 14.1126 8.06519 14.1126 8.06508 14.1125C8.0648 14.1122 8.06873 14.1158 8.07391 14.1209C8.07956 14.1263 8.0857 14.1325 8.09207 14.1392C8.10465 14.1525 8.11306 14.1625 8.11613 14.1663L6.87967 15.1817C6.89448 15.1997 6.91169 15.2197 6.9316 15.2407C6.95282 15.2631 6.97035 15.2794 6.97767 15.2862C6.98389 15.2919 6.97311 15.2821 6.96209 15.2709C6.95038 15.2591 6.94203 15.2497 6.93788 15.2448L8.15182 14.2026ZM8.2979 14.674V14.5994H6.6979V14.674H8.2979ZM8.04339 15.1846C8.3039 14.9418 8.54477 14.6772 8.76374 14.3937L7.4974 13.4157C7.33107 13.6311 7.14875 13.8312 6.95241 14.0142L8.04339 15.1846ZM8.76833 14.3876C9.30231 13.6825 9.77444 12.9282 10.1791 12.1339L8.75354 11.4075C8.3913 12.1184 7.96926 12.7925 7.49281 13.4217L8.76833 14.3876ZM10.179 12.1342C11.2826 9.97042 11.9336 8.19637 12.0254 5.65274L10.4264 5.59506C10.3459 7.82635 9.79449 9.36657 8.75368 11.4073L10.179 12.1342ZM12.015 5.75551C12.03 5.66568 12.0494 5.51237 12.0494 5.40019H10.4494C10.4494 5.39111 10.4496 5.38559 10.4496 5.38495C10.4497 5.38386 10.4497 5.38472 10.4494 5.38777C10.449 5.39408 10.4481 5.40424 10.4467 5.41757C10.4438 5.44529 10.4399 5.47349 10.4368 5.4923L12.015 5.75551ZM10.8492 4.2H10.2191V5.8H10.8492V4.2ZM8.94809 5.47103C8.94809 5.47845 8.94806 5.47306 8.94818 5.46654C8.94826 5.46228 8.94847 5.45271 8.94916 5.44026C8.94984 5.42789 8.95126 5.40758 8.95456 5.38251C8.95797 5.35655 8.96361 5.32372 8.97338 5.28636C8.98345 5.24785 8.99605 5.21155 9.01043 5.17767C9.02412 5.14539 9.03724 5.12055 9.04491 5.10657C9.05141 5.09475 9.0575 5.08453 9.05557 5.0878C9.05331 5.09165 9.0432 5.10873 9.03154 5.13132C9.02032 5.15304 9.0105 5.17425 9.00176 5.19484C8.98521 5.23383 8.97219 5.27154 8.96154 5.30537L10.4877 5.78584C10.4888 5.78238 10.4846 5.79646 10.4746 5.81989C10.4692 5.8327 10.4621 5.84815 10.4532 5.86543C10.4488 5.87399 10.4446 5.88172 10.4408 5.88846C10.4372 5.89469 10.4343 5.89967 10.4347 5.8989C10.4348 5.89885 10.4352 5.89814 10.4357 5.89736C10.4361 5.89651 10.437 5.89512 10.438 5.89341C10.4398 5.89015 10.4432 5.88422 10.4473 5.87676C10.4556 5.86176 10.4692 5.83597 10.4833 5.80272C10.5161 5.72532 10.5328 5.65266 10.5409 5.59112C10.5472 5.54303 10.5478 5.50409 10.5479 5.49571C10.5481 5.48417 10.5481 5.47228 10.5481 5.47103H8.94809ZM8.97961 5.25413C8.97766 5.2591 8.9765 5.26208 8.97547 5.26468C8.97449 5.26714 8.97423 5.26778 8.97439 5.2674C8.97454 5.26702 8.97809 5.25829 8.98419 5.24554C8.99077 5.23177 9.00003 5.21387 9.01228 5.19366C9.02463 5.17327 9.03734 5.15493 9.04961 5.13891C9.07201 5.10964 9.08897 5.09348 9.0836 5.09884C9.07817 5.10425 9.06669 5.11525 9.03823 5.14183L10.1302 6.31126C10.1664 6.2775 10.2525 6.19978 10.32 6.11153C10.4169 5.98506 10.4606 5.86016 10.4696 5.83708L8.97961 5.25413ZM9.12287 5.07297C9.10886 5.08286 9.10956 5.08243 9.10417 5.0862C9.10174 5.0879 9.10638 5.08458 9.11458 5.07939C9.13442 5.06683 9.17141 5.04548 9.22117 5.0268C9.31708 4.99082 9.38561 4.99362 9.35326 4.9944L9.3917 6.59394C9.4857 6.59168 9.62875 6.5828 9.78327 6.52482C9.86234 6.49515 9.92465 6.46023 9.97033 6.43131C10.0055 6.40904 10.0437 6.38143 10.0456 6.38012L9.12287 5.07297ZM9.35326 4.9944C9.41863 4.99283 9.48251 5.00541 9.54052 5.03003L8.91523 6.50279C9.06511 6.56643 9.22737 6.59789 9.3917 6.59394L9.35326 4.9944ZM9.54052 5.03003C9.59838 5.0546 9.64769 5.08996 9.68682 5.1314L8.5236 6.23C8.63273 6.34554 8.76549 6.43922 8.91523 6.50279L9.54052 5.03003ZM9.68682 5.1314C9.72586 5.17273 9.7542 5.21943 9.77241 5.2675L8.27611 5.83415C8.33115 5.97949 8.41457 6.11455 8.5236 6.23L9.68682 5.1314ZM9.77241 5.2675C9.77016 5.26157 9.78257 5.29286 9.79096 5.33832C9.79879 5.38077 9.79804 5.4076 9.79804 5.39771H8.19804C8.19804 5.56946 8.22399 5.69652 8.27611 5.83415L9.77241 5.2675ZM8.60034 4.2H7.89441V5.8H8.60034V4.2ZM6.69795 5.39646C6.69795 5.30389 6.73225 5.20656 6.80649 5.12795L7.96972 6.22654C8.18462 5.999 8.29795 5.69967 8.29795 5.39646H6.69795ZM6.80649 5.12795C6.8822 5.04779 6.99498 4.99355 7.12292 4.99355V6.59355C7.44979 6.59355 7.75335 6.45564 7.96972 6.22654L6.80649 5.12795ZM7.12292 4.99355C7.25087 4.99355 7.36364 5.04779 7.43935 5.12795L6.27613 6.22654C6.4925 6.45564 6.79605 6.59355 7.12292 6.59355V4.99355ZM7.43935 5.12795C7.51359 5.20655 7.5479 5.30389 7.5479 5.39646H5.9479C5.9479 5.69967 6.06123 5.999 6.27613 6.22654L7.43935 5.12795ZM6.35143 4.2H5.64544V5.8H6.35143V4.2ZM4.44897 5.39646C4.44897 5.30389 4.48328 5.20656 4.55752 5.12795L5.72074 6.22654C5.93565 5.999 6.04897 5.69966 6.04897 5.39646L4.44897 5.39646ZM4.55752 5.12795C4.63323 5.04779 4.74601 4.99355 4.87395 4.99355V6.59355C5.20082 6.59355 5.50437 6.45564 5.72074 6.22654L4.55752 5.12795ZM4.87395 4.99355C5.00189 4.99355 5.11467 5.04779 5.19038 5.12795L4.02716 6.22654C4.24353 6.45564 4.54708 6.59355 4.87395 6.59355V4.99355ZM5.19038 5.12795C5.26462 5.20656 5.29892 5.30389 5.29892 5.39646H3.69892C3.69892 5.69966 3.81225 5.999 4.02716 6.22654L5.19038 5.12795ZM4.10246 4.2H3.7489V5.8H4.10246V4.2ZM11.9483 5.39646C11.9483 5.48894 11.9666 5.65557 11.9827 5.75178L13.5609 5.48857C13.5601 5.48375 13.5585 5.47355 13.5566 5.45818C13.5547 5.44345 13.5529 5.42733 13.5513 5.41177C13.5497 5.39598 13.5486 5.38312 13.548 5.37486C13.5477 5.37071 13.5477 5.36948 13.5477 5.37071C13.5478 5.3714 13.5479 5.37368 13.548 5.37722C13.5481 5.38039 13.5483 5.38721 13.5483 5.39646H11.9483ZM11.9723 5.64901C12.0641 8.19311 12.7176 9.9673 13.8209 12.1305L15.2462 11.4035C14.2051 9.36224 13.6517 7.82215 13.5712 5.59133L11.9723 5.64901ZM13.8208 12.1302C14.2255 12.9244 14.6976 13.6788 15.2316 14.3839L16.5071 13.418C16.0306 12.7888 15.6086 12.1147 15.2464 11.4038L13.8208 12.1302ZM15.2362 14.3899C15.4551 14.6735 15.696 14.938 15.9565 15.1809L17.0475 14.0105C16.8512 13.8275 16.6688 13.6273 16.5025 13.412L15.2362 14.3899ZM15.702 14.5957V14.6703H17.302V14.5957H15.702ZM15.895 14.1491C15.8992 14.1443 15.9075 14.1348 15.9193 14.123C15.9303 14.1119 15.9411 14.102 15.9348 14.1078C15.9275 14.1146 15.91 14.1309 15.8888 14.1532C15.8688 14.1742 15.8516 14.1942 15.8368 14.2122L17.0733 15.2277C17.0702 15.2314 17.0618 15.2415 17.0492 15.2547C17.0428 15.2615 17.0367 15.2676 17.0311 15.2731C17.0259 15.2781 17.0219 15.2818 17.0222 15.2815C17.0223 15.2814 17.0224 15.2814 17.0229 15.2809C17.0234 15.2805 17.0241 15.2798 17.0249 15.279C17.0267 15.2774 17.0293 15.2749 17.0325 15.2719C17.0393 15.2655 17.0475 15.2575 17.0569 15.2481C17.0759 15.2288 17.0931 15.2099 17.109 15.1914L15.895 14.1491ZM15.8399 14.2086C15.5459 14.5622 15.2971 14.9535 15.0991 15.3724L16.5457 16.0561C16.6869 15.7573 16.8634 15.4802 17.0703 15.2314L15.8399 14.2086ZM15.0858 15.4021C14.4421 16.921 14.1398 18.5751 14.2013 20.2354L15.8002 20.1763C15.7473 18.748 16.0076 17.3275 16.559 16.0264L15.0858 15.4021ZM15.7949 21.8H17.9997V20.2H15.7949V21.8ZM21.7997 17.9997L21.7989 5.75055L20.1989 5.75066L20.1997 17.9998L21.7997 17.9997ZM20.2482 4.2H19.894V5.8H20.2482V4.2ZM18.6976 5.39646C18.6976 5.3039 18.7319 5.20656 18.8061 5.12795L19.9693 6.22654C20.1842 5.99899 20.2976 5.69966 20.2976 5.39646H18.6976ZM18.8061 5.12795C18.8818 5.04778 18.9946 4.99355 19.1225 4.99355V6.59355C19.4494 6.59355 19.753 6.45564 19.9693 6.22654L18.8061 5.12795ZM19.1225 4.99355C19.2505 4.99355 19.3633 5.04779 19.439 5.12795L18.2757 6.22654C18.4921 6.45564 18.7957 6.59355 19.1225 6.59355V4.99355ZM19.439 5.12795C19.5132 5.20655 19.5475 5.30388 19.5475 5.39646H17.9475C17.9475 5.69967 18.0608 5.999 18.2757 6.22654L19.439 5.12795ZM18.351 4.2H17.6439V5.8H18.351V4.2ZM16.4474 5.39646C16.4474 5.30388 16.4817 5.20655 16.556 5.12795L17.7192 6.22654C17.9341 5.999 18.0474 5.69967 18.0474 5.39646L16.4474 5.39646ZM16.556 5.12795C16.6317 5.04779 16.7444 4.99355 16.8724 4.99355V6.59355C17.1993 6.59355 17.5028 6.45564 17.7192 6.22654L16.556 5.12795ZM16.8724 4.99355C17.0003 4.99355 17.1131 5.04779 17.1888 5.12795L16.0256 6.22654C16.242 6.45564 16.5455 6.59355 16.8724 6.59355V4.99355ZM17.1888 5.12795C17.2631 5.20656 17.2974 5.30389 17.2974 5.39646H15.6974C15.6974 5.69967 15.8107 5.999 16.0256 6.22654L17.1888 5.12795ZM16.1009 4.2H15.3949V5.8H16.1009V4.2ZM14.1984 5.39646C14.1984 5.30389 14.2327 5.20656 14.307 5.12795L15.4702 6.22654C15.6851 5.999 15.7984 5.69966 15.7984 5.39646H14.1984ZM14.307 5.12795C14.3827 5.04779 14.4955 4.99355 14.6234 4.99355V6.59355C14.9503 6.59355 15.2538 6.45564 15.4702 6.22654L14.307 5.12795ZM14.6234 4.99355C14.7514 4.99355 14.8641 5.04779 14.9398 5.12795L13.7766 6.22654C13.993 6.45564 14.2965 6.59355 14.6234 6.59355V4.99355ZM14.9398 5.12795C15.0141 5.20656 15.0484 5.30389 15.0484 5.39646H13.4484C13.4484 5.69967 13.5617 5.999 13.7766 6.22654L14.9398 5.12795ZM13.8519 4.2H13.1448V5.8H13.8519V4.2ZM15.3949 4.2C14.7341 4.2 14.1984 4.73567 14.1984 5.39646H15.7984C15.7984 5.61933 15.6178 5.8 15.3949 5.8V4.2ZM17.2974 5.39646C17.2974 4.73568 16.7617 4.2 16.1009 4.2V5.8C15.878 5.8 15.6974 5.61933 15.6974 5.39646H17.2974ZM17.6439 4.2C16.9831 4.2 16.4474 4.73568 16.4474 5.39646H18.0474C18.0474 5.61933 17.8667 5.8 17.6439 5.8V4.2ZM19.5475 5.39646C19.5475 4.73568 19.0118 4.2 18.351 4.2V5.8C18.1282 5.8 17.9475 5.61933 17.9475 5.39646H19.5475ZM19.894 4.2C19.2332 4.2 18.6976 4.73568 18.6976 5.39646H20.2976C20.2976 5.61933 20.1169 5.8 19.894 5.8V4.2ZM21.7989 5.75055C21.7988 4.89419 21.1046 4.2 20.2482 4.2V5.8C20.221 5.8 20.1989 5.77791 20.1989 5.75066L21.7989 5.75055ZM13.5483 5.39646C13.5483 5.61933 13.3676 5.8 13.1448 5.8V4.2C12.484 4.2 11.9483 4.73568 11.9483 5.39646H13.5483ZM10.2191 4.2C9.51716 4.2 8.94809 4.76906 8.94809 5.47103H10.5481C10.5481 5.65272 10.4008 5.8 10.2191 5.8V4.2ZM5.29892 5.39646C5.29892 4.73568 4.76325 4.2 4.10246 4.2V5.8C3.87959 5.8 3.69892 5.61933 3.69892 5.39646H5.29892ZM5.64544 4.2C4.98465 4.2 4.44897 4.73568 4.44897 5.39646H6.04897C6.04897 5.61933 5.8683 5.8 5.64544 5.8V4.2ZM7.5479 5.39646C7.5479 4.73568 7.01222 4.2 6.35143 4.2V5.8C6.12857 5.8 5.9479 5.61933 5.9479 5.39646H7.5479ZM17.9997 21.8C20.0985 21.8 21.7999 20.0985 21.7997 17.9997L20.1997 17.9998C20.1998 19.2149 19.2148 20.2 17.9997 20.2V21.8ZM8.21122 21.7975C9.08822 21.7975 9.79917 21.0866 9.79917 20.2096H8.19917C8.19917 20.2098 8.19916 20.2092 8.1994 20.208C8.19964 20.2068 8.2 20.2057 8.20045 20.2046C8.2013 20.2026 8.20219 20.2015 8.2027 20.201C8.20321 20.2005 8.20426 20.1996 8.20628 20.1988C8.20734 20.1983 8.2085 20.198 8.20964 20.1977C8.21082 20.1975 8.21144 20.1975 8.21122 20.1975V21.7975ZM3.79888 5.75002C3.79888 5.77762 3.77651 5.8 3.7489 5.8V4.2C2.89281 4.2 2.19882 4.89404 2.19888 5.75013L3.79888 5.75002ZM7.89441 4.2C7.23362 4.2 6.69795 4.73568 6.69795 5.39646H8.29795C8.29795 5.61933 8.11728 5.8 7.89441 5.8V4.2ZM12.0494 5.40019C12.0494 4.73734 11.512 4.2 10.8492 4.2V5.8C10.6284 5.8 10.4494 5.621 10.4494 5.40019H12.0494ZM15.0484 5.39646C15.0484 4.73568 14.5127 4.2 13.8519 4.2V5.8C13.6291 5.8 13.4484 5.61933 13.4484 5.39646H15.0484ZM14.2007 20.2058C14.2007 21.0863 14.9145 21.8 15.7949 21.8V20.2C15.7942 20.2 15.7956 20.2 15.7974 20.2008C15.7981 20.2011 15.7985 20.2013 15.7987 20.2015C15.7989 20.2016 15.799 20.2017 15.799 20.2017C15.799 20.2017 15.7991 20.2018 15.7993 20.202C15.7994 20.2022 15.7997 20.2027 15.7999 20.2033C15.8007 20.2051 15.8007 20.2065 15.8007 20.2058H14.2007ZM2.19974 17.9978C2.19989 20.0964 3.90116 21.7975 5.99974 21.7975V20.1975C4.78477 20.1975 3.79983 19.2126 3.79974 17.9977L2.19974 17.9978ZM9.79804 5.39771C9.79804 4.73623 9.26181 4.2 8.60034 4.2V5.8C8.37816 5.8 8.19804 5.61989 8.19804 5.39771H9.79804Z" fill="black"/>
</svg>
