<svg width="12" height="12" viewBox="0 0 12 12" fill="none" xmlns="http://www.w3.org/2000/svg">
<g id="alert-triangle">
<path id="Icon" d="M5.99988 4.50012V6.50012M5.99988 8.50012H6.00488M5.30754 1.94598L1.19509 9.04929C0.966991 9.44328 0.85294 9.64028 0.869797 9.80196C0.884499 9.94299 0.958384 10.0711 1.07306 10.1545C1.20454 10.2501 1.43217 10.2501 1.88744 10.2501H10.1123C10.5676 10.2501 10.7952 10.2501 10.9267 10.1545C11.0414 10.0711 11.1153 9.94299 11.13 9.80196C11.1468 9.64028 11.0328 9.44328 10.8047 9.04929L6.69222 1.94598C6.46493 1.55339 6.35129 1.3571 6.20303 1.29118C6.0737 1.23367 5.92606 1.23367 5.79673 1.29118C5.64846 1.3571 5.53482 1.55339 5.30754 1.94598Z" stroke="#F79009" stroke-width="1.5" stroke-linecap="round" stroke-linejoin="round"/>
</g>
</svg>
