<svg width="18" height="22" viewBox="0 0 18 22" fill="none" xmlns="http://www.w3.org/2000/svg">
  <path
    d="M7 1.00008V5.6605C7 5.87768 7 5.98626 6.9669 6.07264C6.93568 6.15413 6.89435 6.21328 6.82858 6.27063C6.75885 6.33142 6.64593 6.37279 6.42008 6.45553C3.54892 7.50734 1.5 10.2644 1.5 13.5C1.5 17.6421 4.85786 21 9 21C13.1421 21 16.5 17.6421 16.5 13.5C16.5 10.2644 14.4511 7.50734 11.5799 6.45553C11.3541 6.37279 11.2411 6.33142 11.1714 6.27063C11.1056 6.21328 11.0643 6.15413 11.0331 6.07264C11 5.98626 11 5.87768 11 5.6605V1.00008M5.5 1H12.5"
    stroke="stroke" stroke-width="2" stroke-linecap="round" stroke-linejoin="round" />
</svg>