<svg width="29" height="28" viewBox="0 0 29 28" fill="none" xmlns="http://www.w3.org/2000/svg">
  <path
    d="M25 11.6663H4M19.1667 2.33301V6.99967M9.83333 2.33301V6.99967M9.6 25.6663H19.4C21.3602 25.6663 22.3403 25.6663 23.089 25.2849C23.7475 24.9493 24.283 24.4139 24.6185 23.7553C25 23.0066 25 22.0265 25 20.0663V10.2663C25 8.30616 25 7.32607 24.6185 6.57737C24.283 5.91881 23.7475 5.38337 23.089 5.04782C22.3403 4.66634 21.3602 4.66634 19.4 4.66634H9.6C7.63982 4.66634 6.65972 4.66634 5.91103 5.04782C5.25247 5.38337 4.71703 5.91881 4.38148 6.57737C4 7.32607 4 8.30616 4 10.2663V20.0663C4 22.0265 4 23.0066 4.38148 23.7553C4.71703 24.4139 5.25247 24.9493 5.91103 25.2849C6.65972 25.6663 7.63982 25.6663 9.6 25.6663Z"
    stroke="stroke" stroke-width="2" stroke-linecap="round" stroke-linejoin="round" />
</svg>