<svg width="140" height="34" viewBox="0 0 140 34" fill="none" xmlns="http://www.w3.org/2000/svg">
  <path fill-rule="evenodd" clip-rule="evenodd" d="M0 17C9.6916 17 15.2475 11.4887 15.2475 1.875C15.2475 11.4887 20.8034 17 30.4951 17C20.8034 17 15.2475 22.5113 15.2475 32.125C15.2475 22.5113 9.6916 17 0 17Z" fill="fill" />
  <path d="M36.5178 23.8126L41.8406 9.37506H44.8347L50.1574 23.8126H47.3297L46.1653 20.4713H40.4891L39.304 23.8126H36.5178ZM41.2168 18.4088H45.4376L43.3168 12.4069L41.2168 18.4088Z" fill="fill" />
  <path
    d="M55.4955 24.0601C54.442 24.0601 53.5133 23.8332 52.7093 23.3794C51.9054 22.9257 51.2677 22.2932 50.7965 21.4819C50.339 20.6707 50.1103 19.7426 50.1103 18.6976C50.1103 17.6526 50.339 16.7244 50.7965 15.9132C51.2677 15.1019 51.9054 14.4694 52.7093 14.0157C53.5133 13.5619 54.442 13.3351 55.4955 13.3351C56.8123 13.3351 57.9212 13.6788 58.8222 14.3663C59.7232 15.0401 60.2984 15.9751 60.5479 17.1713H57.741C57.6024 16.6763 57.3252 16.2913 56.9093 16.0163C56.5073 15.7276 56.0291 15.5832 55.4747 15.5832C54.74 15.5832 54.1163 15.8582 53.6034 16.4082C53.0905 16.9582 52.8341 17.7213 52.8341 18.6976C52.8341 19.6738 53.0905 20.4369 53.6034 20.9869C54.1163 21.5369 54.74 21.8119 55.4747 21.8119C56.0291 21.8119 56.5073 21.6744 56.9093 21.3994C57.3252 21.1244 57.6024 20.7326 57.741 20.2238H60.5479C60.2984 21.3788 59.7232 22.3069 58.8222 23.0082C57.9212 23.7094 56.8123 24.0601 55.4955 24.0601Z"
    fill="fill" />
  <path
    d="M61.8705 23.8126V13.5826H64.22L64.4487 14.9644C64.7814 14.4694 65.218 14.0776 65.7586 13.7888C66.3131 13.4863 66.9507 13.3351 67.6715 13.3351C69.2656 13.3351 70.3953 13.9469 71.0606 15.1707C71.4349 14.6069 71.9339 14.1601 72.5576 13.8301C73.1953 13.5001 73.8883 13.3351 74.6368 13.3351C75.9814 13.3351 77.0141 13.7338 77.7349 14.5313C78.4557 15.3288 78.8161 16.4976 78.8161 18.0376V23.8126H76.1547V18.2851C76.1547 17.4051 75.9814 16.7313 75.6349 16.2638C75.3022 15.7963 74.7824 15.5626 74.0755 15.5626C73.3547 15.5626 72.7725 15.8238 72.3289 16.3463C71.8992 16.8688 71.6844 17.5976 71.6844 18.5326V23.8126H69.023V18.2851C69.023 17.4051 68.8497 16.7313 68.5032 16.2638C68.1567 15.7963 67.623 15.5626 66.9022 15.5626C66.1953 15.5626 65.62 15.8238 65.1765 16.3463C64.7467 16.8688 64.5319 17.5976 64.5319 18.5326V23.8126H61.8705Z"
    fill="fill" />
  <path
    d="M85.3141 24.0601C84.2745 24.0601 83.3527 23.8401 82.5487 23.4001C81.7448 22.9601 81.1141 22.3413 80.6566 21.5438C80.1992 20.7463 79.9705 19.8251 79.9705 18.7801C79.9705 17.7213 80.1923 16.7794 80.6358 15.9544C81.0933 15.1294 81.717 14.4901 82.5071 14.0363C83.3111 13.5688 84.2537 13.3351 85.3349 13.3351C86.3467 13.3351 87.2408 13.5551 88.017 13.9951C88.7933 14.4351 89.3962 15.0401 89.8259 15.8101C90.2695 16.5663 90.4913 17.4119 90.4913 18.3469C90.4913 18.4982 90.4844 18.6563 90.4705 18.8213C90.4705 18.9863 90.4636 19.1582 90.4497 19.3369H82.6111C82.6665 20.1344 82.9438 20.7601 83.4428 21.2138C83.9556 21.6676 84.5725 21.8944 85.2933 21.8944C85.8339 21.8944 86.2844 21.7776 86.6448 21.5438C87.019 21.2963 87.2962 20.9801 87.4764 20.5951H90.1794C89.9853 21.2413 89.6596 21.8326 89.2022 22.3688C88.7586 22.8913 88.2042 23.3038 87.5388 23.6063C86.8873 23.9088 86.1457 24.0601 85.3141 24.0601ZM85.3349 15.4801C84.6834 15.4801 84.1081 15.6657 83.6091 16.0369C83.1101 16.3944 82.7913 16.9444 82.6527 17.6869H87.7883C87.7467 17.0132 87.4972 16.4769 87.0398 16.0782C86.5824 15.6794 86.0141 15.4801 85.3349 15.4801Z"
    fill="fill" />
  <path
    d="M102.258 24.0601C100.789 24.0601 99.5276 23.7507 98.4742 23.1319C97.4207 22.4994 96.6098 21.6263 96.0415 20.5126C95.4732 19.3851 95.189 18.0857 95.189 16.6144C95.189 15.1432 95.4732 13.8438 96.0415 12.7163C96.6098 11.5888 97.4207 10.7088 98.4742 10.0763C99.5276 9.44381 100.789 9.12756 102.258 9.12756C104.005 9.12756 105.433 9.56069 106.541 10.4269C107.664 11.2794 108.364 12.4826 108.641 14.0363H105.71C105.53 13.2526 105.141 12.6407 104.545 12.2007C103.963 11.7469 103.187 11.5201 102.217 11.5201C100.872 11.5201 99.8187 11.9738 99.0563 12.8813C98.294 13.7888 97.9128 15.0332 97.9128 16.6144C97.9128 18.1957 98.294 19.4401 99.0563 20.3476C99.8187 21.2413 100.872 21.6882 102.217 21.6882C103.187 21.6882 103.963 21.4819 104.545 21.0694C105.141 20.6432 105.53 20.0588 105.71 19.3163H108.641C108.364 20.8013 107.664 21.9632 106.541 22.8019C105.433 23.6407 104.005 24.0601 102.258 24.0601Z"
    fill="fill" />
  <path
    d="M114.844 24.0601C113.846 24.0601 112.945 23.8332 112.141 23.3794C111.351 22.9257 110.72 22.3001 110.249 21.5026C109.791 20.6913 109.563 19.7563 109.563 18.6976C109.563 17.6388 109.798 16.7107 110.27 15.9132C110.741 15.1019 111.372 14.4694 112.162 14.0157C112.966 13.5619 113.867 13.3351 114.865 13.3351C115.849 13.3351 116.736 13.5619 117.526 14.0157C118.33 14.4694 118.961 15.1019 119.418 15.9132C119.889 16.7107 120.125 17.6388 120.125 18.6976C120.125 19.7563 119.889 20.6913 119.418 21.5026C118.961 22.3001 118.33 22.9257 117.526 23.3794C116.722 23.8332 115.828 24.0601 114.844 24.0601ZM114.844 21.7707C115.537 21.7707 116.14 21.5163 116.653 21.0076C117.166 20.4851 117.422 19.7151 117.422 18.6976C117.422 17.6801 117.166 16.9169 116.653 16.4082C116.14 15.8857 115.544 15.6244 114.865 15.6244C114.158 15.6244 113.548 15.8857 113.035 16.4082C112.536 16.9169 112.286 17.6801 112.286 18.6976C112.286 19.7151 112.536 20.4851 113.035 21.0076C113.548 21.5163 114.151 21.7707 114.844 21.7707Z"
    fill="fill" />
  <path d="M121.465 23.8126V13.5826H123.835L124.085 15.5007C124.459 14.8407 124.965 14.3182 125.603 13.9332C126.254 13.5344 127.016 13.3351 127.89 13.3351V16.1194H127.141C126.559 16.1194 126.039 16.2088 125.582 16.3876C125.124 16.5663 124.764 16.8757 124.501 17.3157C124.251 17.7557 124.126 18.3676 124.126 19.1513V23.8126H121.465Z" fill="fill" />
  <path
    d="M128.669 28.3501V13.5826H131.039L131.33 15.0469C131.663 14.5932 132.1 14.1944 132.64 13.8507C133.195 13.5069 133.909 13.3351 134.782 13.3351C135.752 13.3351 136.619 13.5688 137.381 14.0363C138.143 14.5038 138.746 15.1432 139.19 15.9544C139.633 16.7657 139.855 17.6869 139.855 18.7182C139.855 19.7494 139.633 20.6707 139.19 21.4819C138.746 22.2794 138.143 22.9119 137.381 23.3794C136.619 23.8332 135.752 24.0601 134.782 24.0601C134.006 24.0601 133.327 23.9157 132.744 23.6269C132.162 23.3382 131.691 22.9326 131.33 22.4101V28.3501H128.669ZM134.221 21.7501C135.066 21.7501 135.766 21.4682 136.321 20.9044C136.875 20.3407 137.152 19.6119 137.152 18.7182C137.152 17.8244 136.875 17.0888 136.321 16.5113C135.766 15.9338 135.066 15.6451 134.221 15.6451C133.361 15.6451 132.654 15.9338 132.1 16.5113C131.559 17.0751 131.289 17.8038 131.289 18.6976C131.289 19.5913 131.559 20.3269 132.1 20.9044C132.654 21.4682 133.361 21.7501 134.221 21.7501Z"
    fill="fill" />
</svg>