<svg width="184" height="136" viewBox="0 0 184 136" fill="none" xmlns="http://www.w3.org/2000/svg">
<circle cx="94" cy="64" r="64" fill="#C7D6FA"/>
<circle cx="28" cy="12" r="6" fill="#DEE7FC"/>
<circle cx="25" cy="112" r="8" fill="#DEE7FC"/>
<circle cx="172" cy="96" r="8" fill="#DEE7FC"/>
<circle cx="157" cy="9" r="5" fill="#DEE7FC"/>
<g filter="url(#filter0_dd_1000_33158)">
<path d="M52.9372 95.3137L92.8147 76.7185C94.8169 75.7848 95.6831 73.4049 94.7495 71.4028L71.1994 20.8995L55.2523 15.0953L22.6252 30.3095C20.6231 31.2431 19.7569 33.6231 20.6905 35.6252L47.6215 93.3789C48.5551 95.3811 50.935 96.2473 52.9372 95.3137Z" fill="url(#paint0_linear_1000_33158)"/>
<path d="M55.2522 15.0952L71.1993 20.8995L60.3236 25.9709L55.2522 15.0952Z" fill="#9EB5FA"/>
</g>
<g filter="url(#filter1_dd_1000_33158)">
<path d="M72 81.7241H116C118.209 81.7241 120 79.9333 120 77.7241V22L108 10H72C69.7909 10 68 11.7909 68 14V77.7241C68 79.9333 69.7909 81.7241 72 81.7241Z" fill="url(#paint1_linear_1000_33158)"/>
<path d="M108 10L120 22H108V10Z" fill="#9EB5FA"/>
</g>
<g filter="url(#filter2_dd_1000_33158)">
<path d="M94.6253 76.6946L134.503 95.2898C136.505 96.2234 138.885 95.3572 139.819 93.3551L163.369 42.8518L157.564 26.9047L124.937 11.6905C122.935 10.7569 120.555 11.6231 119.622 13.6252L92.6906 71.3789C91.7569 73.3811 92.6232 75.761 94.6253 76.6946Z" fill="url(#paint2_linear_1000_33158)"/>
<path d="M157.564 26.9048L163.368 42.8519L152.493 37.7805L157.564 26.9048Z" fill="#9EB5FA"/>
</g>
<g filter="url(#filter3_b_1000_33158)">
<rect x="66" y="68" width="56" height="56" rx="28" fill="#6941C6" fill-opacity="0.4"/>
<path d="M94.0001 99.5L90.5001 96M94.0001 99.5C95.6297 98.8802 97.1931 98.0985 98.6667 97.1666M94.0001 99.5V105.333C94.0001 105.333 97.5351 104.692 98.6667 103C99.9267 101.11 98.6667 97.1666 98.6667 97.1666M90.5001 96C91.1209 94.3893 91.9027 92.8454 92.8334 91.3916C94.1928 89.2181 96.0856 87.4285 98.3319 86.1931C100.578 84.9576 103.103 84.3174 105.667 84.3333C105.667 87.5066 104.757 93.0833 98.6667 97.1666M90.5001 96H84.6667C84.6667 96 85.3084 92.465 87.0001 91.3333C88.8901 90.0733 92.8334 91.3333 92.8334 91.3333M85.2501 101.25C83.5001 102.72 82.9167 107.083 82.9167 107.083C82.9167 107.083 87.2801 106.5 88.7501 104.75C89.5784 103.77 89.5667 102.265 88.6451 101.355C88.1916 100.922 87.5943 100.672 86.9677 100.653C86.3411 100.633 85.7294 100.846 85.2501 101.25Z" stroke="white" stroke-width="2" stroke-linecap="round" stroke-linejoin="round"/>
</g>
<defs>
<filter id="filter0_dd_1000_33158" x="-1" y="10.0239" width="117.44" height="126.98" filterUnits="userSpaceOnUse" color-interpolation-filters="sRGB">
<feFlood flood-opacity="0" result="BackgroundImageFix"/>
<feColorMatrix in="SourceAlpha" type="matrix" values="0 0 0 0 0 0 0 0 0 0 0 0 0 0 0 0 0 0 127 0" result="hardAlpha"/>
<feMorphology radius="4" operator="erode" in="SourceAlpha" result="effect1_dropShadow_1000_33158"/>
<feOffset dy="8"/>
<feGaussianBlur stdDeviation="4"/>
<feColorMatrix type="matrix" values="0 0 0 0 0.0627451 0 0 0 0 0.0941176 0 0 0 0 0.156863 0 0 0 0.03 0"/>
<feBlend mode="normal" in2="BackgroundImageFix" result="effect1_dropShadow_1000_33158"/>
<feColorMatrix in="SourceAlpha" type="matrix" values="0 0 0 0 0 0 0 0 0 0 0 0 0 0 0 0 0 0 127 0" result="hardAlpha"/>
<feMorphology radius="4" operator="erode" in="SourceAlpha" result="effect2_dropShadow_1000_33158"/>
<feOffset dy="20"/>
<feGaussianBlur stdDeviation="12"/>
<feColorMatrix type="matrix" values="0 0 0 0 0.0627451 0 0 0 0 0.0941176 0 0 0 0 0.156863 0 0 0 0.08 0"/>
<feBlend mode="normal" in2="effect1_dropShadow_1000_33158" result="effect2_dropShadow_1000_33158"/>
<feBlend mode="normal" in="SourceGraphic" in2="effect2_dropShadow_1000_33158" result="shape"/>
</filter>
<filter id="filter1_dd_1000_33158" x="48" y="10" width="92" height="111.724" filterUnits="userSpaceOnUse" color-interpolation-filters="sRGB">
<feFlood flood-opacity="0" result="BackgroundImageFix"/>
<feColorMatrix in="SourceAlpha" type="matrix" values="0 0 0 0 0 0 0 0 0 0 0 0 0 0 0 0 0 0 127 0" result="hardAlpha"/>
<feMorphology radius="4" operator="erode" in="SourceAlpha" result="effect1_dropShadow_1000_33158"/>
<feOffset dy="8"/>
<feGaussianBlur stdDeviation="4"/>
<feColorMatrix type="matrix" values="0 0 0 0 0.0627451 0 0 0 0 0.0941176 0 0 0 0 0.156863 0 0 0 0.03 0"/>
<feBlend mode="normal" in2="BackgroundImageFix" result="effect1_dropShadow_1000_33158"/>
<feColorMatrix in="SourceAlpha" type="matrix" values="0 0 0 0 0 0 0 0 0 0 0 0 0 0 0 0 0 0 127 0" result="hardAlpha"/>
<feMorphology radius="4" operator="erode" in="SourceAlpha" result="effect2_dropShadow_1000_33158"/>
<feOffset dy="20"/>
<feGaussianBlur stdDeviation="12"/>
<feColorMatrix type="matrix" values="0 0 0 0 0.0627451 0 0 0 0 0.0941176 0 0 0 0 0.156863 0 0 0 0.08 0"/>
<feBlend mode="normal" in2="effect1_dropShadow_1000_33158" result="effect2_dropShadow_1000_33158"/>
<feBlend mode="normal" in="SourceGraphic" in2="effect2_dropShadow_1000_33158" result="shape"/>
</filter>
<filter id="filter2_dd_1000_33158" x="71" y="10" width="117.44" height="126.98" filterUnits="userSpaceOnUse" color-interpolation-filters="sRGB">
<feFlood flood-opacity="0" result="BackgroundImageFix"/>
<feColorMatrix in="SourceAlpha" type="matrix" values="0 0 0 0 0 0 0 0 0 0 0 0 0 0 0 0 0 0 127 0" result="hardAlpha"/>
<feMorphology radius="4" operator="erode" in="SourceAlpha" result="effect1_dropShadow_1000_33158"/>
<feOffset dy="8"/>
<feGaussianBlur stdDeviation="4"/>
<feColorMatrix type="matrix" values="0 0 0 0 0.0627451 0 0 0 0 0.0941176 0 0 0 0 0.156863 0 0 0 0.03 0"/>
<feBlend mode="normal" in2="BackgroundImageFix" result="effect1_dropShadow_1000_33158"/>
<feColorMatrix in="SourceAlpha" type="matrix" values="0 0 0 0 0 0 0 0 0 0 0 0 0 0 0 0 0 0 127 0" result="hardAlpha"/>
<feMorphology radius="4" operator="erode" in="SourceAlpha" result="effect2_dropShadow_1000_33158"/>
<feOffset dy="20"/>
<feGaussianBlur stdDeviation="12"/>
<feColorMatrix type="matrix" values="0 0 0 0 0.0627451 0 0 0 0 0.0941176 0 0 0 0 0.156863 0 0 0 0.08 0"/>
<feBlend mode="normal" in2="effect1_dropShadow_1000_33158" result="effect2_dropShadow_1000_33158"/>
<feBlend mode="normal" in="SourceGraphic" in2="effect2_dropShadow_1000_33158" result="shape"/>
</filter>
<filter id="filter3_b_1000_33158" x="58" y="60" width="72" height="72" filterUnits="userSpaceOnUse" color-interpolation-filters="sRGB">
<feFlood flood-opacity="0" result="BackgroundImageFix"/>
<feGaussianBlur in="BackgroundImageFix" stdDeviation="4"/>
<feComposite in2="SourceAlpha" operator="in" result="effect1_backgroundBlur_1000_33158"/>
<feBlend mode="normal" in="SourceGraphic" in2="effect1_backgroundBlur_1000_33158" result="shape"/>
</filter>
<linearGradient id="paint0_linear_1000_33158" x1="50.5944" y1="95.4694" x2="18.8151" y2="38.1371" gradientUnits="userSpaceOnUse">
<stop stop-color="#E9D7FE"/>
<stop offset="1" stop-color="#F4EBFF"/>
</linearGradient>
<linearGradient id="paint1_linear_1000_33158" x1="69.8109" y1="80.8751" x2="65.2388" y2="15.484" gradientUnits="userSpaceOnUse">
<stop stop-color="#E9D7FE"/>
<stop offset="1" stop-color="#F4EBFF"/>
</linearGradient>
<linearGradient id="paint2_linear_1000_33158" x1="93.0001" y1="75" x2="116.492" y2="13.8032" gradientUnits="userSpaceOnUse">
<stop stop-color="#E9D7FE"/>
<stop offset="1" stop-color="#F4EBFF"/>
</linearGradient>
</defs>
</svg>
