<svg width="29" height="30" viewBox="0 0 29 30" fill="none" xmlns="http://www.w3.org/2000/svg">
  <path
    d="M20.3333 11.4999C20.3333 10.9028 20.1055 10.3057 19.6499 9.85008C19.1943 9.39447 18.5972 9.16667 18 9.16667M18 18.5C21.866 18.5 25 15.366 25 11.5C25 7.63401 21.866 4.5 18 4.5C14.134 4.5 11 7.63401 11 11.5C11 11.8193 11.0214 12.1336 11.0628 12.4415C11.1309 12.948 11.1649 13.2013 11.142 13.3615C11.1181 13.5284 11.0877 13.6184 11.0055 13.7655C10.9265 13.9068 10.7873 14.046 10.509 14.3243L4.54673 20.2866C4.34496 20.4884 4.24407 20.5893 4.17192 20.707C4.10795 20.8114 4.06081 20.9252 4.03224 21.0442C4 21.1785 4 21.3212 4 21.6065V23.6333C4 24.2867 4 24.6134 4.12716 24.863C4.23901 25.0825 4.41749 25.261 4.63701 25.3728C4.88657 25.5 5.21327 25.5 5.86667 25.5H8.66667V23.1667H11V20.8333H13.3333L15.1757 18.991C15.454 18.7127 15.5932 18.5735 15.7345 18.4945C15.8816 18.4123 15.9716 18.3819 16.1385 18.358C16.2987 18.3351 16.552 18.3691 17.0585 18.4372C17.3664 18.4786 17.6807 18.5 18 18.5Z"
    stroke="stroke" stroke-width="2" stroke-linecap="round" stroke-linejoin="round" />
</svg>