<svg width="20" height="21" viewBox="0 0 20 21" fill="none" xmlns="http://www.w3.org/2000/svg">
<path d="M3.75002 18.8333V14.6666M3.75002 6.33329V2.16663M1.66669 4.24996H5.83335M1.66669 16.75H5.83335M10.8334 2.99996L9.38821 6.75734C9.1532 7.36837 9.03569 7.67388 8.85296 7.93086C8.69101 8.15862 8.49202 8.35762 8.26426 8.51957C8.00728 8.7023 7.70176 8.8198 7.09074 9.05481L3.33335 10.5L7.09074 11.9451C7.70176 12.1801 8.00728 12.2976 8.26426 12.4804C8.49202 12.6423 8.69101 12.8413 8.85296 13.0691C9.03569 13.326 9.1532 13.6315 9.38821 14.2426L10.8334 18L12.2785 14.2426C12.5135 13.6315 12.631 13.326 12.8137 13.0691C12.9757 12.8413 13.1747 12.6423 13.4025 12.4804C13.6594 12.2976 13.9649 12.1801 14.576 11.9451L18.3334 10.5L14.576 9.05481C13.9649 8.8198 13.6594 8.7023 13.4024 8.51957C13.1747 8.35762 12.9757 8.15862 12.8137 7.93086C12.631 7.67388 12.5135 7.36837 12.2785 6.75734L10.8334 2.99996Z" stroke="#626BA3" stroke-width="1.66667" stroke-linecap="round" stroke-linejoin="round"/>
</svg>
