<svg xmlns="http://www.w3.org/2000/svg" width="12" height="13" viewBox="0 0 12 13" fill="none">
  <path d="M5.99988 5.22082V7.22082M5.99988 9.22082H6.00488M5.30754 2.66668L1.19509 9.76999C0.966991 10.164 0.85294 10.361 0.869797 10.5227C0.884499 10.6637 0.958384 10.7918 1.07306 10.8752C1.20454 10.9708 1.43217 10.9708 1.88744 10.9708H10.1123C10.5676 10.9708 10.7952 10.9708 10.9267 10.8752C11.0414 10.7918 11.1153 10.6637 11.13 10.5227C11.1468 10.361 11.0328 10.164 10.8047 9.76999L6.69222 2.66668C6.46493 2.2741 6.35129 2.07781 6.20303 2.01188C6.0737 1.95437 5.92606 1.95437 5.79673 2.01188C5.64846 2.07781 5.53482 2.2741 5.30754 2.66668Z" stroke="#F79009" stroke-width="1.5" stroke-linecap="round" stroke-linejoin="round"/>
</svg>
