<?xml version="1.0" encoding="utf-8"?><svg xmlns="http://www.w3.org/2000/svg" xmlns:xlink="http://www.w3.org/1999/xlink"><symbol viewBox="0 0 20 20" fill="none" stroke="stroke" stroke-width="1.66667" stroke-linecap="round" stroke-linejoin="round" id="alert" xmlns="http://www.w3.org/2000/svg"><path id="acIcon" d="M18.3337 6.66635V9.99968M8.54199 4.58302H5.66699C4.26686 4.58302 3.56679 4.58302 3.03201 4.8555C2.56161 5.09518 2.17916 5.47763 1.93947 5.94804C1.66699 6.48282 1.66699 7.18289 1.66699 8.58302L1.66699 9.58302C1.66699 10.3596 1.66699 10.7479 1.79386 11.0542C1.96302 11.4625 2.28747 11.787 2.69585 11.9561C3.00214 12.083 3.39042 12.083 4.16699 12.083V15.6247C4.16699 15.8182 4.16699 15.9149 4.17502 15.9964C4.25296 16.7877 4.879 17.4137 5.6703 17.4917C5.75178 17.4997 5.84852 17.4997 6.04199 17.4997C6.23547 17.4997 6.33221 17.4997 6.41369 17.4917C7.20498 17.4137 7.83103 16.7877 7.90897 15.9964C7.91699 15.9149 7.91699 15.8182 7.91699 15.6247V12.083H8.54199C10.014 12.083 11.8147 12.8721 13.2039 13.6294C14.0143 14.0712 14.4196 14.2921 14.685 14.2596C14.9311 14.2294 15.1172 14.1189 15.2614 13.9173C15.417 13.6998 15.417 13.2647 15.417 12.3944V4.27159C15.417 3.40135 15.417 2.96622 15.2614 2.74876C15.1172 2.5471 14.9311 2.4366 14.685 2.40646C14.4196 2.37395 14.0143 2.59485 13.2039 3.03664C11.8147 3.79394 10.014 4.58302 8.54199 4.58302Z"/></symbol><symbol viewBox="0 0 24 24" fill="none" stroke="stroke" stroke-width="1.66667" stroke-linecap="round" stroke-linejoin="round" id="alert-octagon" xmlns="http://www.w3.org/2000/svg"><path d="M12 8V12M12 16H12.01M2 8.52274V15.4773C2 15.7218 2 15.8441 2.02763 15.9592C2.05213 16.0613 2.09253 16.1588 2.14736 16.2483C2.2092 16.3492 2.29568 16.4357 2.46863 16.6086L7.39137 21.5314C7.56432 21.7043 7.6508 21.7908 7.75172 21.8526C7.84119 21.9075 7.93873 21.9479 8.04077 21.9724C8.15586 22 8.27815 22 8.52274 22H15.4773C15.7218 22 15.8441 22 15.9592 21.9724C16.0613 21.9479 16.1588 21.9075 16.2483 21.8526C16.3492 21.7908 16.4357 21.7043 16.6086 21.5314L21.5314 16.6086C21.7043 16.4357 21.7908 16.3492 21.8526 16.2483C21.9075 16.1588 21.9479 16.0613 21.9724 15.9592C22 15.8441 22 15.7218 22 15.4773V8.52274C22 8.27815 22 8.15586 21.9724 8.04077C21.9479 7.93873 21.9075 7.84119 21.8526 7.75172C21.7908 7.6508 21.7043 7.56432 21.5314 7.39137L16.6086 2.46863C16.4357 2.29568 16.3492 2.2092 16.2483 2.14736C16.1588 2.09253 16.0613 2.05213 15.9592 2.02763C15.8441 2 15.7218 2 15.4773 2H8.52274C8.27815 2 8.15586 2 8.04077 2.02763C7.93873 2.05213 7.84119 2.09253 7.75172 2.14736C7.6508 2.2092 7.56432 2.29568 7.39137 2.46863L2.46863 7.39137C2.29568 7.56432 2.2092 7.6508 2.14736 7.75172C2.09253 7.84119 2.05213 7.93873 2.02763 8.04077C2 8.15586 2 8.27815 2 8.52274Z"/></symbol><symbol viewBox="0 0 24 24" fill="none" stroke="stroke" stroke-width="1.66667" stroke-linecap="round" stroke-linejoin="round" id="alert-triangle" xmlns="http://www.w3.org/2000/svg"><path d="M11.9998 9.00023V13.0002M11.9998 17.0002H12.0098M10.6151 3.89195L2.39019 18.0986C1.93398 18.8866 1.70588 19.2806 1.73959 19.6039C1.769 19.886 1.91677 20.1423 2.14613 20.309C2.40908 20.5002 2.86435 20.5002 3.77487 20.5002H20.2246C21.1352 20.5002 21.5904 20.5002 21.8534 20.309C22.0827 20.1423 22.2305 19.886 22.2599 19.6039C22.2936 19.2806 22.0655 18.8866 21.6093 18.0986L13.3844 3.89195C12.9299 3.10679 12.7026 2.71421 12.4061 2.58235C12.1474 2.46734 11.8521 2.46734 11.5935 2.58235C11.2969 2.71421 11.0696 3.10679 10.6151 3.89195Z"/></symbol><symbol viewBox="0 0 20 20" fill="none" stroke="stroke" stroke-width="1.66667" stroke-linecap="round" stroke-linejoin="round" id="announcement" xmlns="http://www.w3.org/2000/svg"><path id="adIcon" d="M18.3337 6.66635V9.99968M8.54199 4.58302H5.66699C4.26686 4.58302 3.56679 4.58302 3.03201 4.8555C2.56161 5.09518 2.17916 5.47763 1.93947 5.94804C1.66699 6.48282 1.66699 7.18289 1.66699 8.58302L1.66699 9.58302C1.66699 10.3596 1.66699 10.7479 1.79386 11.0542C1.96302 11.4625 2.28747 11.787 2.69585 11.9561C3.00214 12.083 3.39042 12.083 4.16699 12.083V15.6247C4.16699 15.8182 4.16699 15.9149 4.17502 15.9964C4.25296 16.7877 4.879 17.4137 5.6703 17.4917C5.75178 17.4997 5.84852 17.4997 6.04199 17.4997C6.23547 17.4997 6.33221 17.4997 6.41369 17.4917C7.20498 17.4137 7.83103 16.7877 7.90897 15.9964C7.91699 15.9149 7.91699 15.8182 7.91699 15.6247V12.083H8.54199C10.014 12.083 11.8147 12.8721 13.2039 13.6294C14.0143 14.0712 14.4196 14.2921 14.685 14.2596C14.9311 14.2294 15.1172 14.1189 15.2614 13.9173C15.417 13.6998 15.417 13.2647 15.417 12.3944V4.27159C15.417 3.40135 15.417 2.96622 15.2614 2.74876C15.1172 2.5471 14.9311 2.4366 14.685 2.40646C14.4196 2.37395 14.0143 2.59485 13.2039 3.03664C11.8147 3.79394 10.014 4.58302 8.54199 4.58302Z"/></symbol><symbol viewBox="0 0 16 16" fill="none" stroke="stroke" stroke-width="1.66667" stroke-linecap="round" stroke-linejoin="round" id="arrowdown" xmlns="http://www.w3.org/2000/svg"><path d="M7.99992 3.33325V12.6666M7.99992 12.6666L12.6666 7.99992M7.99992 12.6666L3.33325 7.99992"/></symbol><symbol viewBox="0 0 20 20" fill="none" stroke="stroke" stroke-width="1.66667" stroke-linecap="round" stroke-linejoin="round" id="arrowleft" xmlns="http://www.w3.org/2000/svg"><path d="M15.8333 10H4.16666M4.16666 10L9.99999 15.8334M4.16666 10L9.99999 4.16669"/></symbol><symbol viewBox="0 0 20 21" fill="none" stroke="stroke" stroke-width="1.66667" stroke-linecap="round" stroke-linejoin="round" id="arrowright" xmlns="http://www.w3.org/2000/svg"><path d="M3.33331 10.5H16.6666M16.6666 10.5L11.6666 5.5M16.6666 10.5L11.6666 15.5"/></symbol><symbol viewBox="0 0 12 13" fill="none" stroke="stroke" stroke-width="1.66667" stroke-linecap="round" stroke-linejoin="round" id="arrowup" xmlns="http://www.w3.org/2000/svg"><path d="M6 10V3M6 3L2.5 6.5M6 3L9.5 6.5"/></symbol><symbol viewBox="0 0 24 24" fill="none" stroke="stroke" stroke-width="1.66667" stroke-linecap="round" stroke-linejoin="round" id="arrowupright" xmlns="http://www.w3.org/2000/svg"><path d="M7 17L17 7M17 7H7M17 7V17"/></symbol><symbol viewBox="0 0 20 20" fill="none" stroke="stroke" stroke-width="1.66667" stroke-linecap="round" stroke-linejoin="round" id="bank" xmlns="http://www.w3.org/2000/svg"><path d="M4.16667 7.50006V14.1667M7.91667 7.50006V14.1667M12.0833 7.50006V14.1667M15.8333 7.50006V14.1667M2.5 15.5001L2.5 16.1667C2.5 16.6334 2.5 16.8668 2.59083 17.045C2.67072 17.2019 2.79821 17.3293 2.95501 17.4092C3.13327 17.5001 3.36662 17.5001 3.83333 17.5001H16.1667C16.6334 17.5001 16.8667 17.5001 17.045 17.4092C17.2018 17.3293 17.3293 17.2019 17.4092 17.045C17.5 16.8668 17.5 16.6334 17.5 16.1667V15.5001C17.5 15.0333 17.5 14.8 17.4092 14.6217C17.3293 14.4649 17.2018 14.3374 17.045 14.2576C16.8667 14.1667 16.6334 14.1667 16.1667 14.1667H3.83333C3.36662 14.1667 3.13327 14.1667 2.95501 14.2576C2.79821 14.3374 2.67072 14.4649 2.59083 14.6217C2.5 14.8 2.5 15.0333 2.5 15.5001ZM9.71076 2.56433L3.54409 3.9347C3.17154 4.01749 2.98527 4.05889 2.84622 4.15906C2.72358 4.24742 2.62727 4.36747 2.56762 4.50636C2.5 4.66383 2.5 4.85465 2.5 5.23629L2.5 6.16672C2.5 6.63343 2.5 6.86679 2.59083 7.04505C2.67072 7.20185 2.79821 7.32933 2.95501 7.40923C3.13327 7.50006 3.36662 7.50006 3.83333 7.50006H16.1667C16.6334 7.50006 16.8667 7.50006 17.045 7.40923C17.2018 7.32933 17.3293 7.20185 17.4092 7.04505C17.5 6.86679 17.5 6.63343 17.5 6.16672V5.23629C17.5 4.85465 17.5 4.66383 17.4324 4.50636C17.3727 4.36747 17.2764 4.24742 17.1538 4.15906C17.0147 4.05889 16.8285 4.01749 16.4559 3.9347L10.2892 2.56433C10.1813 2.54035 10.1273 2.52835 10.0728 2.52357C10.0244 2.51932 9.97564 2.51932 9.9272 2.52357C9.87267 2.52835 9.8187 2.54035 9.71076 2.56433Z"/></symbol><symbol viewBox="0 0 24 24" fill="none" stroke="stroke" stroke-width="1.66667" stroke-linecap="round" stroke-linejoin="round" id="barchart" xmlns="http://www.w3.org/2000/svg"><path d="M18.25 20V10M12.25 20V4M6.25 20V14"/></symbol><symbol viewBox="0 0 18 22" fill="none" stroke="stroke" stroke-width="1.66667" stroke-linecap="round" stroke-linejoin="round" id="beaker" xmlns="http://www.w3.org/2000/svg"><path d="M7 1.00008V5.6605C7 5.87768 7 5.98626 6.9669 6.07264C6.93568 6.15413 6.89435 6.21328 6.82858 6.27063C6.75885 6.33142 6.64593 6.37279 6.42008 6.45553C3.54892 7.50734 1.5 10.2644 1.5 13.5C1.5 17.6421 4.85786 21 9 21C13.1421 21 16.5 17.6421 16.5 13.5C16.5 10.2644 14.4511 7.50734 11.5799 6.45553C11.3541 6.37279 11.2411 6.33142 11.1714 6.27063C11.1056 6.21328 11.0643 6.15413 11.0331 6.07264C11 5.98626 11 5.87768 11 5.6605V1.00008M5.5 1H12.5"/></symbol><symbol viewBox="0 0 20 20" fill="none" stroke="stroke" stroke-width="1.66667" stroke-linecap="round" stroke-linejoin="round" id="board" xmlns="http://www.w3.org/2000/svg"><g id="amcolumns-03"><path id="amIcon" d="M7.5 2.5V17.5M12.5 2.5V17.5M6.5 2.5H13.5C14.9001 2.5 15.6002 2.5 16.135 2.77248C16.6054 3.01217 16.9878 3.39462 17.2275 3.86502C17.5 4.3998 17.5 5.09987 17.5 6.5V13.5C17.5 14.9001 17.5 15.6002 17.2275 16.135C16.9878 16.6054 16.6054 16.9878 16.135 17.2275C15.6002 17.5 14.9001 17.5 13.5 17.5H6.5C5.09987 17.5 4.3998 17.5 3.86502 17.2275C3.39462 16.9878 3.01217 16.6054 2.77248 16.135C2.5 15.6002 2.5 14.9001 2.5 13.5V6.5C2.5 5.09987 2.5 4.3998 2.77248 3.86502C3.01217 3.39462 3.39462 3.01217 3.86502 2.77248C4.3998 2.5 5.09987 2.5 6.5 2.5Z"/></g></symbol><symbol viewBox="0 0 20 20" fill="none" stroke="stroke" stroke-width="1.66667" stroke-linecap="round" stroke-linejoin="round" id="building" xmlns="http://www.w3.org/2000/svg"><g id="anbuilding-06"><path id="anIcon" d="M9.1665 9.16667H5.1665C4.23308 9.16667 3.76637 9.16667 3.40985 9.34832C3.09625 9.50811 2.84128 9.76308 2.68149 10.0767C2.49984 10.4332 2.49984 10.8999 2.49984 11.8333V17.5M17.4998 17.5V5.16667C17.4998 4.23325 17.4998 3.76654 17.3182 3.41002C17.1584 3.09641 16.9034 2.84144 16.5898 2.68166C16.2333 2.5 15.7666 2.5 14.8332 2.5H11.8332C10.8998 2.5 10.433 2.5 10.0765 2.68166C9.76292 2.84144 9.50795 3.09641 9.34816 3.41002C9.1665 3.76654 9.1665 4.23325 9.1665 5.16667V17.5M18.3332 17.5H1.6665M12.0832 5.83333H14.5832M12.0832 9.16667H14.5832M12.0832 12.5H14.5832"/></g></symbol><symbol viewBox="0 0 29 28" fill="none" stroke="stroke" stroke-width="1.66667" stroke-linecap="round" stroke-linejoin="round" id="calendar" xmlns="http://www.w3.org/2000/svg"><path d="M25 11.6663H4M19.1667 2.33301V6.99967M9.83333 2.33301V6.99967M9.6 25.6663H19.4C21.3602 25.6663 22.3403 25.6663 23.089 25.2849C23.7475 24.9493 24.283 24.4139 24.6185 23.7553C25 23.0066 25 22.0265 25 20.0663V10.2663C25 8.30616 25 7.32607 24.6185 6.57737C24.283 5.91881 23.7475 5.38337 23.089 5.04782C22.3403 4.66634 21.3602 4.66634 19.4 4.66634H9.6C7.63982 4.66634 6.65972 4.66634 5.91103 5.04782C5.25247 5.38337 4.71703 5.91881 4.38148 6.57737C4 7.32607 4 8.30616 4 10.2663V20.0663C4 22.0265 4 23.0066 4.38148 23.7553C4.71703 24.4139 5.25247 24.9493 5.91103 25.2849C6.65972 25.6663 7.63982 25.6663 9.6 25.6663Z"/></symbol><symbol viewBox="0 0 12 13" fill="none" stroke="stroke" stroke-width="1.66667" stroke-linecap="round" stroke-linejoin="round" id="check" xmlns="http://www.w3.org/2000/svg"><g id="apcheck"><path id="apIcon" d="M10 3.7207L4.5 9.2207L2 6.7207"/></g></symbol><symbol viewBox="0 0 20 20" fill="none" stroke="stroke" stroke-width="1.66667" stroke-linecap="round" stroke-linejoin="round" id="chevrondown" xmlns="http://www.w3.org/2000/svg"><path d="M5 7.5L10 12.5L15 7.5"/></symbol><symbol viewBox="0 0 20 20" fill="none" stroke="stroke" stroke-width="1.66667" stroke-linecap="round" stroke-linejoin="round" id="chevronleft" xmlns="http://www.w3.org/2000/svg"><path id="archevron-left" d="M12.5 15L7.5 10L12.5 5"/></symbol><symbol viewBox="0 0 15 15" fill="none" stroke="stroke" stroke-width="1.66667" stroke-linecap="round" stroke-linejoin="round" id="chevronright" xmlns="http://www.w3.org/2000/svg"><path d="M4 10.4167L6.91667 7.50004L4 4.58337M8.08333 10.4167L11 7.50004L8.08333 4.58337"/></symbol><symbol viewBox="0 0 24 24" fill="none" stroke="stroke" stroke-width="1.66667" stroke-linecap="round" stroke-linejoin="round" id="chevronup" xmlns="http://www.w3.org/2000/svg"><path d="M15 12.5L10 7.5L5 12.5"/></symbol><symbol viewBox="0 0 20 20" fill="none" stroke="stroke" stroke-width="1.66667" stroke-linecap="round" stroke-linejoin="round" id="circle" xmlns="http://www.w3.org/2000/svg"><circle cx="10" cy="10" r="10" fill="#C9BDFF"/></symbol><symbol viewBox="0 0 18 18" fill="none" stroke="stroke" stroke-width="1.66667" stroke-linecap="round" stroke-linejoin="round" id="clipboard" xmlns="http://www.w3.org/2000/svg"><path d="M12 3C12.6975 3 13.0462 3 13.3323 3.07667C14.1088 3.28472 14.7153 3.8912 14.9233 4.66766C15 4.95378 15 5.30252 15 6V12.9C15 14.1601 15 14.7902 14.7548 15.2715C14.539 15.6948 14.1948 16.039 13.7715 16.2548C13.2902 16.5 12.6601 16.5 11.4 16.5H6.6C5.33988 16.5 4.70982 16.5 4.22852 16.2548C3.80516 16.039 3.46095 15.6948 3.24524 15.2715C3 14.7902 3 14.1601 3 12.9V6C3 5.30252 3 4.95378 3.07667 4.66766C3.28472 3.8912 3.8912 3.28472 4.66766 3.07667C4.95378 3 5.30252 3 6 3M7.2 4.5H10.8C11.22 4.5 11.4301 4.5 11.5905 4.41826C11.7316 4.34635 11.8463 4.23161 11.9183 4.09049C12 3.93006 12 3.72004 12 3.3V2.7C12 2.27996 12 2.06994 11.9183 1.90951C11.8463 1.76839 11.7316 1.65365 11.5905 1.58175C11.4301 1.5 11.22 1.5 10.8 1.5H7.2C6.77996 1.5 6.56994 1.5 6.40951 1.58175C6.26839 1.65365 6.15365 1.76839 6.08175 1.90951C6 2.06994 6 2.27996 6 2.7V3.3C6 3.72004 6 3.93006 6.08175 4.09049C6.15365 4.23161 6.26839 4.34635 6.40951 4.41826C6.56994 4.5 6.77996 4.5 7.2 4.5Z"/></symbol><symbol viewBox="0 0 24 24" fill="none" stroke="stroke" stroke-width="1.66667" stroke-linecap="round" stroke-linejoin="round" id="clock" xmlns="http://www.w3.org/2000/svg"><path d="M12 6V12L16 14M22 12C22 17.5228 17.5228 22 12 22C6.47715 22 2 17.5228 2 12C2 6.47715 6.47715 2 12 2C17.5228 2 22 6.47715 22 12Z"/></symbol><symbol viewBox="0 0 24 24" fill="none" stroke="stroke" stroke-width="1.66667" stroke-linecap="round" stroke-linejoin="round" id="clock-stopwatch" xmlns="http://www.w3.org/2000/svg"><path d="M12 9.5V13.5L14.5 15M12 5C7.30558 5 3.5 8.80558 3.5 13.5C3.5 18.1944 7.30558 22 12 22C16.6944 22 20.5 18.1944 20.5 13.5C20.5 8.80558 16.6944 5 12 5ZM12 5V2M10 2H14M20.329 5.59204L18.829 4.09204L19.579 4.84204M3.67102 5.59204L5.17102 4.09204L4.42102 4.84204"/></symbol><symbol viewBox="0 0 24 24" fill="none" stroke="stroke" stroke-width="1.66667" stroke-linecap="round" stroke-linejoin="round" id="closeX" xmlns="http://www.w3.org/2000/svg"><g id="ayx-close"><path id="ayIcon" d="M18 6L6 18M6 6L18 18"/></g></symbol><symbol viewBox="0 0 20 20" fill="none" stroke="stroke" stroke-width="1.66667" stroke-linecap="round" stroke-linejoin="round" id="columns" xmlns="http://www.w3.org/2000/svg"><g id="azcolumns-03"><path id="azIcon" d="M7.5 2.5V17.5M12.5 2.5V17.5M6.5 2.5H13.5C14.9001 2.5 15.6002 2.5 16.135 2.77248C16.6054 3.01217 16.9878 3.39462 17.2275 3.86502C17.5 4.3998 17.5 5.09987 17.5 6.5V13.5C17.5 14.9001 17.5 15.6002 17.2275 16.135C16.9878 16.6054 16.6054 16.9878 16.135 17.2275C15.6002 17.5 14.9001 17.5 13.5 17.5H6.5C5.09987 17.5 4.3998 17.5 3.86502 17.2275C3.39462 16.9878 3.01217 16.6054 2.77248 16.135C2.5 15.6002 2.5 14.9001 2.5 13.5V6.5C2.5 5.09987 2.5 4.3998 2.77248 3.86502C3.01217 3.39462 3.39462 3.01217 3.86502 2.77248C4.3998 2.5 5.09987 2.5 6.5 2.5Z"/></g></symbol><symbol viewBox="0 0 29 29" fill="none" stroke="stroke" stroke-width="1.66667" stroke-linecap="round" stroke-linejoin="round" id="currencydollar" xmlns="http://www.w3.org/2000/svg"><path d="M7.66663 19.1667C7.66663 21.744 9.75596 23.8334 12.3333 23.8334H17C19.5773 23.8334 21.6666 21.744 21.6666 19.1667C21.6666 16.5894 19.5773 14.5 17 14.5H12.3333C9.75596 14.5 7.66663 12.4107 7.66663 9.83337C7.66663 7.25605 9.75596 5.16671 12.3333 5.16671H17C19.5773 5.16671 21.6666 7.25605 21.6666 9.83337M14.6666 2.83337V26.1667"/></symbol><symbol viewBox="0 0 20 20" fill="none" stroke="stroke" stroke-width="1.66667" stroke-linecap="round" stroke-linejoin="round" id="dots-vertical" xmlns="http://www.w3.org/2000/svg"><path d="M10.0001 10.8334C10.4603 10.8334 10.8334 10.4603 10.8334 10C10.8334 9.5398 10.4603 9.16671 10.0001 9.16671C9.53984 9.16671 9.16675 9.5398 9.16675 10C9.16675 10.4603 9.53984 10.8334 10.0001 10.8334Z"/><path d="M10.0001 5.00004C10.4603 5.00004 10.8334 4.62694 10.8334 4.16671C10.8334 3.70647 10.4603 3.33337 10.0001 3.33337C9.53984 3.33337 9.16675 3.70647 9.16675 4.16671C9.16675 4.62694 9.53984 5.00004 10.0001 5.00004Z"/><path d="M10.0001 16.6667C10.4603 16.6667 10.8334 16.2936 10.8334 15.8334C10.8334 15.3731 10.4603 15 10.0001 15C9.53984 15 9.16675 15.3731 9.16675 15.8334C9.16675 16.2936 9.53984 16.6667 10.0001 16.6667Z"/></symbol><symbol viewBox="0 0 24 24" fill="none" stroke="stroke" stroke-width="1.66667" stroke-linecap="round" stroke-linejoin="round" id="download" xmlns="http://www.w3.org/2000/svg"><path d="M17.5 13V14C17.5 15.4001 17.5 16.1002 17.2275 16.635C16.9878 17.1054 16.6054 17.4878 16.135 17.7275C15.6002 18 14.9001 18 13.5 18H6.5C5.09987 18 4.3998 18 3.86502 17.7275C3.39462 17.4878 3.01217 17.1054 2.77248 16.635C2.5 16.1002 2.5 15.4001 2.5 14V13M14.1667 8.83333L10 13M10 13L5.83333 8.83333M10 13V3"/></symbol><symbol viewBox="0 0 20 20" fill="none" stroke="stroke" stroke-width="1.66667" stroke-linecap="round" stroke-linejoin="round" id="download-cloud" xmlns="http://www.w3.org/2000/svg"><g id="bcdownload-cloud"><path id="bcIcon" d="M3.33341 13.5352C2.32843 12.8625 1.66675 11.7168 1.66675 10.4167C1.66675 8.46369 3.15967 6.85941 5.06653 6.68281C5.45659 4.31011 7.51695 2.5 10.0001 2.5C12.4832 2.5 14.5436 4.31011 14.9336 6.68281C16.8405 6.85941 18.3334 8.46369 18.3334 10.4167C18.3334 11.7168 17.6717 12.8625 16.6667 13.5352M6.66675 14.1667L10.0001 17.5M10.0001 17.5L13.3334 14.1667M10.0001 17.5V10"/></g></symbol><symbol viewBox="0 0 20 20" fill="none" stroke="stroke" stroke-width="1.66667" stroke-linecap="round" stroke-linejoin="round" id="edit" xmlns="http://www.w3.org/2000/svg"><g id="beedit-05" clip-path="url(#beclip0_5216_3606)"><path id="beIcon" d="M9.16675 3.33417H5.66675C4.26662 3.33417 3.56655 3.33417 3.03177 3.60666C2.56137 3.84634 2.17892 4.22879 1.93923 4.6992C1.66675 5.23398 1.66675 5.93404 1.66675 7.33417V14.3342C1.66675 15.7343 1.66675 16.4344 1.93923 16.9691C2.17892 17.4396 2.56137 17.822 3.03177 18.0617C3.56655 18.3342 4.26662 18.3342 5.66675 18.3342H12.6667C14.0669 18.3342 14.7669 18.3342 15.3017 18.0617C15.7721 17.822 16.1546 17.4396 16.3943 16.9691C16.6667 16.4344 16.6667 15.7343 16.6667 14.3342V10.8342M6.66673 13.3342H8.06218C8.46983 13.3342 8.67366 13.3342 8.86547 13.2881C9.03553 13.2473 9.1981 13.18 9.34722 13.0886C9.51542 12.9855 9.65954 12.8414 9.9478 12.5531L17.9167 4.58417C18.6071 3.89382 18.6071 2.77453 17.9167 2.08417C17.2264 1.39382 16.1071 1.39382 15.4167 2.08417L7.44778 10.0531C7.15952 10.3414 7.0154 10.4855 6.91233 10.6537C6.82094 10.8028 6.7536 10.9654 6.71278 11.1355C6.66673 11.3273 6.66673 11.5311 6.66673 11.9387V13.3342Z"/></g><defs><clipPath id="beclip0_5216_3606"><rect width="20" height="20" fill="#000000"/></clipPath></defs></symbol><symbol viewBox="0 0 20 20" fill="none" stroke="stroke" stroke-width="1.66667" stroke-linecap="round" stroke-linejoin="round" id="eye" xmlns="http://www.w3.org/2000/svg"><path d="M2.01677 10.5956C1.90328 10.4159 1.84654 10.3261 1.81477 10.1875C1.79091 10.0834 1.79091 9.91922 1.81477 9.81512C1.84654 9.67654 1.90328 9.58669 2.01677 9.40699C2.95461 7.922 5.74617 4.16797 10.0003 4.16797C14.2545 4.16797 17.0461 7.922 17.9839 9.40699C18.0974 9.58669 18.1541 9.67654 18.1859 9.81512C18.2098 9.91922 18.2098 10.0834 18.1859 10.1875C18.1541 10.3261 18.0974 10.4159 17.9839 10.5956C17.0461 12.0806 14.2545 15.8346 10.0003 15.8346C5.74617 15.8346 2.95461 12.0806 2.01677 10.5956Z"/><path d="M10.0003 12.5013C11.381 12.5013 12.5003 11.382 12.5003 10.0013C12.5003 8.62059 11.381 7.5013 10.0003 7.5013C8.61962 7.5013 7.50034 8.62059 7.50034 10.0013C7.50034 11.382 8.61962 12.5013 10.0003 12.5013Z"/></symbol><symbol viewBox="0 0 20 20" fill="none" stroke="stroke" stroke-width="1.66667" stroke-linecap="round" stroke-linejoin="round" id="eye-off" xmlns="http://www.w3.org/2000/svg"><path d="M8.953 4.243Q9.461 4.168 10 4.167c4.254 0 7.046 3.754 7.983 5.239 0.114 0.179 0.171 0.269 0.203 0.408 0.024 0.104 0.024 0.268 0 0.372 -0.032 0.138 -0.089 0.228 -0.203 0.41 -0.25 0.395 -0.631 0.951 -1.136 1.554M5.603 5.596c-1.802 1.223 -3.025 2.92 -3.586 3.808 -0.114 0.181 -0.171 0.271 -0.203 0.41a1 1 0 0 0 0 0.372c0.032 0.139 0.088 0.228 0.202 0.408C2.955 12.079 5.746 15.833 10 15.833c1.716 0 3.193 -0.61 4.407 -1.436M2.5 2.5l15 15M8.233 8.232a2.5 2.5 0 1 0 3.536 3.536"/></symbol><symbol fill="none" viewBox="0 0 24 24" stroke="stroke" stroke-width="1.66667" stroke-linecap="round" stroke-linejoin="round" id="file" xmlns="http://www.w3.org/2000/svg"><path d="M14 11H8m2 4H8m8-8H8m12 3.5V6.8c0-1.68 0-2.52-.327-3.162a3 3 0 0 0-1.311-1.311C17.72 2 16.88 2 15.2 2H8.8c-1.68 0-2.52 0-3.162.327a3 3 0 0 0-1.311 1.311C4 4.28 4 5.12 4 6.8v10.4c0 1.68 0 2.52.327 3.162a3 3 0 0 0 1.311 1.311C6.28 22 7.12 22 8.8 22h2.7M22 22l-1.5-1.5m1-2.5a3.5 3.5 0 1 1-7 0 3.5 3.5 0 0 1 7 0Z"/></symbol><symbol viewBox="0 0 20 20" fill="none" stroke="stroke" stroke-width="1.66667" stroke-linecap="round" stroke-linejoin="round" id="filecode" xmlns="http://www.w3.org/2000/svg"><g id="bifile-code-01"><path id="biIcon" d="M11.6668 1.89063V5.33274C11.6668 5.79945 11.6668 6.03281 11.7577 6.21107C11.8376 6.36787 11.965 6.49535 12.1218 6.57525C12.3001 6.66608 12.5335 6.66608 13.0002 6.66608H16.4423M11.6668 14.5827L13.7502 12.4993L11.6668 10.416M8.3335 10.416L6.25016 12.4993L8.3335 14.5827M16.6668 8.32287V14.3327C16.6668 15.7328 16.6668 16.4329 16.3943 16.9677C16.1547 17.4381 15.7722 17.8205 15.3018 18.0602C14.767 18.3327 14.067 18.3327 12.6668 18.3327H7.3335C5.93336 18.3327 5.2333 18.3327 4.69852 18.0602C4.22811 17.8205 3.84566 17.4381 3.60598 16.9677C3.3335 16.4329 3.3335 15.7328 3.3335 14.3327V5.66602C3.3335 4.26588 3.3335 3.56582 3.60598 3.03104C3.84566 2.56063 4.22811 2.17818 4.69852 1.9385C5.2333 1.66602 5.93336 1.66602 7.3335 1.66602H10.01C10.6215 1.66602 10.9272 1.66602 11.2149 1.73509C11.47 1.79633 11.7139 1.89734 11.9375 2.03442C12.1898 2.18902 12.406 2.40521 12.8384 2.83759L15.4953 5.49444C15.9276 5.92682 16.1438 6.14301 16.2984 6.3953C16.4355 6.61898 16.5365 6.86285 16.5978 7.11794C16.6668 7.40566 16.6668 7.71139 16.6668 8.32287Z"/></g></symbol><symbol viewBox="0 0 20 20" fill="none" stroke="stroke" stroke-width="1.66667" stroke-linecap="round" stroke-linejoin="round" id="filter-lines" xmlns="http://www.w3.org/2000/svg"><path d="M5 10H15M2.5 5H17.5M7.5 15H12.5"/></symbol><symbol viewBox="0 0 24 24" fill="none" stroke="stroke" stroke-width="1.66667" stroke-linecap="round" stroke-linejoin="round" id="gear" xmlns="http://www.w3.org/2000/svg"><path d="M12 15C13.6569 15 15 13.6569 15 12C15 10.3431 13.6569 9 12 9C10.3431 9 9 10.3431 9 12C9 13.6569 10.3431 15 12 15Z"/><path d="M18.7273 14.7273C18.6063 15.0015 18.5702 15.3056 18.6236 15.6005C18.6771 15.8954 18.8177 16.1676 19.0273 16.3818L19.0818 16.4364C19.2509 16.6052 19.385 16.8057 19.4765 17.0265C19.568 17.2472 19.6151 17.4838 19.6151 17.7227C19.6151 17.9617 19.568 18.1983 19.4765 18.419C19.385 18.6397 19.2509 18.8402 19.0818 19.0091C18.913 19.1781 18.7124 19.3122 18.4917 19.4037C18.271 19.4952 18.0344 19.5423 17.7955 19.5423C17.5565 19.5423 17.3199 19.4952 17.0992 19.4037C16.8785 19.3122 16.678 19.1781 16.5091 19.0091L16.4545 18.9545C16.2403 18.745 15.9682 18.6044 15.6733 18.5509C15.3784 18.4974 15.0742 18.5335 14.8 18.6545C14.5311 18.7698 14.3018 18.9611 14.1403 19.205C13.9788 19.4489 13.8921 19.7347 13.8909 20.0273V20.1818C13.8909 20.664 13.6994 21.1265 13.3584 21.4675C13.0174 21.8084 12.5549 22 12.0727 22C11.5905 22 11.1281 21.8084 10.7871 21.4675C10.4461 21.1265 10.2545 20.664 10.2545 20.1818V20.1C10.2475 19.7991 10.1501 19.5073 9.97501 19.2625C9.79991 19.0176 9.55521 18.8312 9.27273 18.7273C8.99853 18.6063 8.69437 18.5702 8.39947 18.6236C8.10456 18.6771 7.83244 18.8177 7.61818 19.0273L7.56364 19.0818C7.39478 19.2509 7.19425 19.385 6.97353 19.4765C6.7528 19.568 6.51621 19.6151 6.27727 19.6151C6.03834 19.6151 5.80174 19.568 5.58102 19.4765C5.36029 19.385 5.15977 19.2509 4.99091 19.0818C4.82186 18.913 4.68775 18.7124 4.59626 18.4917C4.50476 18.271 4.45766 18.0344 4.45766 17.7955C4.45766 17.5565 4.50476 17.3199 4.59626 17.0992C4.68775 16.8785 4.82186 16.678 4.99091 16.5091L5.04545 16.4545C5.25503 16.2403 5.39562 15.9682 5.4491 15.6733C5.50257 15.3784 5.46647 15.0742 5.34545 14.8C5.23022 14.5311 5.03887 14.3018 4.79497 14.1403C4.55107 13.9788 4.26526 13.8921 3.97273 13.8909H3.81818C3.33597 13.8909 2.87351 13.6994 2.53253 13.3584C2.19156 13.0174 2 12.5549 2 12.0727C2 11.5905 2.19156 11.1281 2.53253 10.7871C2.87351 10.4461 3.33597 10.2545 3.81818 10.2545H3.9C4.2009 10.2475 4.49273 10.1501 4.73754 9.97501C4.98236 9.79991 5.16883 9.55521 5.27273 9.27273C5.39374 8.99853 5.42984 8.69437 5.37637 8.39947C5.3229 8.10456 5.18231 7.83244 4.97273 7.61818L4.91818 7.56364C4.74913 7.39478 4.61503 7.19425 4.52353 6.97353C4.43203 6.7528 4.38493 6.51621 4.38493 6.27727C4.38493 6.03834 4.43203 5.80174 4.52353 5.58102C4.61503 5.36029 4.74913 5.15977 4.91818 4.99091C5.08704 4.82186 5.28757 4.68775 5.50829 4.59626C5.72901 4.50476 5.96561 4.45766 6.20455 4.45766C6.44348 4.45766 6.68008 4.50476 6.9008 4.59626C7.12152 4.68775 7.32205 4.82186 7.49091 4.99091L7.54545 5.04545C7.75971 5.25503 8.03183 5.39562 8.32674 5.4491C8.62164 5.50257 8.9258 5.46647 9.2 5.34545H9.27273C9.54161 5.23022 9.77093 5.03887 9.93245 4.79497C10.094 4.55107 10.1807 4.26526 10.1818 3.97273V3.81818C10.1818 3.33597 10.3734 2.87351 10.7144 2.53253C11.0553 2.19156 11.5178 2 12 2C12.4822 2 12.9447 2.19156 13.2856 2.53253C13.6266 2.87351 13.8182 3.33597 13.8182 3.81818V3.9C13.8193 4.19253 13.906 4.47834 14.0676 4.72224C14.2291 4.96614 14.4584 5.15749 14.7273 5.27273C15.0015 5.39374 15.3056 5.42984 15.6005 5.37637C15.8954 5.3229 16.1676 5.18231 16.3818 4.97273L16.4364 4.91818C16.6052 4.74913 16.8057 4.61503 17.0265 4.52353C17.2472 4.43203 17.4838 4.38493 17.7227 4.38493C17.9617 4.38493 18.1983 4.43203 18.419 4.52353C18.6397 4.61503 18.8402 4.74913 19.0091 4.91818C19.1781 5.08704 19.3122 5.28757 19.4037 5.50829C19.4952 5.72901 19.5423 5.96561 19.5423 6.20455C19.5423 6.44348 19.4952 6.68008 19.4037 6.9008C19.3122 7.12152 19.1781 7.32205 19.0091 7.49091L18.9545 7.54545C18.745 7.75971 18.6044 8.03183 18.5509 8.32674C18.4974 8.62164 18.5335 8.9258 18.6545 9.2V9.27273C18.7698 9.54161 18.9611 9.77093 19.205 9.93245C19.4489 10.094 19.7347 10.1807 20.0273 10.1818H20.1818C20.664 10.1818 21.1265 10.3734 21.4675 10.7144C21.8084 11.0553 22 11.5178 22 12C22 12.4822 21.8084 12.9447 21.4675 13.2856C21.1265 13.6266 20.664 13.8182 20.1818 13.8182H20.1C19.8075 13.8193 19.5217 13.906 19.2778 14.0676C19.0339 14.2291 18.8425 14.4584 18.7273 14.7273Z"/></symbol><symbol viewBox="0 0 20 20" fill="none" stroke="stroke" stroke-width="1.66667" stroke-linecap="round" stroke-linejoin="round" id="globe" xmlns="http://www.w3.org/2000/svg"><g clip-path="url(#blclip0_29_1180)"><path d="M2.23904 13.0376L3.8292 12.1196C3.91533 12.0699 4.01641 12.0526 4.11417 12.0709L7.24292 12.6564C7.50004 12.7046 7.7374 12.5066 7.73623 12.245L7.72405 9.50367C7.72372 9.42919 7.74336 9.35598 7.78092 9.29166L9.35986 6.58847C9.44204 6.44779 9.43467 6.27211 9.34101 6.13879L6.68252 2.3547M15.8336 4.04917C11.2503 6.24999 13.7501 9.16666 14.5836 9.58333C16.1478 10.3653 18.3231 10.4166 18.3231 10.4166C18.3299 10.2786 18.3334 10.1397 18.3334 9.99996C18.3334 5.39759 14.6025 1.66663 10.0001 1.66663C5.39771 1.66663 1.66675 5.39759 1.66675 9.99996C1.66675 14.6023 5.39771 18.3333 10.0001 18.3333C10.1398 18.3333 10.2787 18.3299 10.4167 18.3231M13.9649 18.2831L11.3259 11.3258L18.2832 13.9648L15.1981 15.198L13.9649 18.2831Z"/></g><defs><clipPath id="blclip0_29_1180"><rect width="20" height="20" fill="white"/></clipPath></defs></symbol><symbol viewBox="0 0 24 24" fill="none" stroke="stroke" stroke-width="1.66667" stroke-linecap="round" stroke-linejoin="round" id="help" xmlns="http://www.w3.org/2000/svg"><path d="M9.08997 8.99995C9.32507 8.33162 9.78912 7.76806 10.3999 7.40908C11.0107 7.05011 11.7289 6.91889 12.4271 7.03866C13.1254 7.15844 13.7588 7.52148 14.215 8.06348C14.6713 8.60548 14.921 9.29147 14.92 9.99995C14.92 12 11.92 13 11.92 13M12 17H12.01M3 7.94141V16.0585C3 16.4012 3 16.5725 3.05048 16.7253C3.09515 16.8605 3.16816 16.9845 3.26463 17.0892C3.37369 17.2076 3.52345 17.2908 3.82297 17.4572L11.223 21.5683C11.5066 21.7258 11.6484 21.8046 11.7985 21.8355C11.9315 21.8628 12.0685 21.8628 12.2015 21.8355C12.3516 21.8046 12.4934 21.7258 12.777 21.5683L20.177 17.4572C20.4766 17.2908 20.6263 17.2076 20.7354 17.0892C20.8318 16.9845 20.9049 16.8605 20.9495 16.7253C21 16.5725 21 16.4012 21 16.0585V7.94141C21 7.59876 21 7.42744 20.9495 7.27464C20.9049 7.13947 20.8318 7.01539 20.7354 6.9107C20.6263 6.79236 20.4766 6.70916 20.177 6.54276L12.777 2.43164C12.4934 2.27409 12.3516 2.19531 12.2015 2.16442C12.0685 2.13709 11.9315 2.13709 11.7985 2.16442C11.6484 2.19531 11.5066 2.27409 11.223 2.43164L3.82297 6.54276C3.52345 6.70916 3.37369 6.79236 3.26463 6.9107C3.16816 7.01539 3.09515 7.13947 3.05048 7.27464C3 7.42744 3 7.59876 3 7.94141Z"/></symbol><symbol viewBox="0 0 16 16" fill="none" stroke="stroke" stroke-width="1.66667" stroke-linecap="round" stroke-linejoin="round" id="help-circle" xmlns="http://www.w3.org/2000/svg"><g id="bmhelp-circle" clip-path="url(#bmclip0_5216_3630)"><path id="bmIcon" d="M6.05992 5.9987C6.21665 5.55314 6.52602 5.17744 6.93322 4.93812C7.34042 4.6988 7.81918 4.61132 8.2847 4.69117C8.75022 4.77102 9.17246 5.01305 9.47664 5.37438C9.78081 5.73572 9.94729 6.19305 9.94659 6.66536C9.94659 7.9987 7.94659 8.66536 7.94659 8.66536M7.99992 11.332H8.00659M14.6666 7.9987C14.6666 11.6806 11.6818 14.6654 7.99992 14.6654C4.31802 14.6654 1.33325 11.6806 1.33325 7.9987C1.33325 4.3168 4.31802 1.33203 7.99992 1.33203C11.6818 1.33203 14.6666 4.3168 14.6666 7.9987Z"/></g><defs><clipPath id="bmclip0_5216_3630"><rect width="16" height="16" fill="white"/></clipPath></defs></symbol><symbol viewBox="0 0 24 24" fill="none" stroke="stroke" stroke-width="1.66667" stroke-linecap="round" stroke-linejoin="round" id="home" xmlns="http://www.w3.org/2000/svg"><path d="M9 21V13.6C9 13.0399 9 12.7599 9.10899 12.546C9.20487 12.3578 9.35785 12.2049 9.54601 12.109C9.75992 12 10.0399 12 10.6 12H13.4C13.9601 12 14.2401 12 14.454 12.109C14.6422 12.2049 14.7951 12.3578 14.891 12.546C15 12.7599 15 13.0399 15 13.6V21M11.0177 2.764L4.23539 8.03912C3.78202 8.39175 3.55534 8.56806 3.39203 8.78886C3.24737 8.98444 3.1396 9.20478 3.07403 9.43905C3 9.70352 3 9.9907 3 10.5651V17.8C3 18.9201 3 19.4801 3.21799 19.908C3.40973 20.2843 3.71569 20.5903 4.09202 20.782C4.51984 21 5.07989 21 6.2 21H17.8C18.9201 21 19.4802 21 19.908 20.782C20.2843 20.5903 20.5903 20.2843 20.782 19.908C21 19.4801 21 18.9201 21 17.8V10.5651C21 9.9907 21 9.70352 20.926 9.43905C20.8604 9.20478 20.7526 8.98444 20.608 8.78886C20.4447 8.56806 20.218 8.39175 19.7646 8.03913L12.9823 2.764C12.631 2.49075 12.4553 2.35412 12.2613 2.3016C12.0902 2.25526 11.9098 2.25526 11.7387 2.3016C11.5447 2.35412 11.369 2.49075 11.0177 2.764Z"/></symbol><symbol viewBox="0 0 29 30" fill="none" stroke="stroke" stroke-width="1.66667" stroke-linecap="round" stroke-linejoin="round" id="key" xmlns="http://www.w3.org/2000/svg"><path d="M20.3333 11.4999C20.3333 10.9028 20.1055 10.3057 19.6499 9.85008C19.1943 9.39447 18.5972 9.16667 18 9.16667M18 18.5C21.866 18.5 25 15.366 25 11.5C25 7.63401 21.866 4.5 18 4.5C14.134 4.5 11 7.63401 11 11.5C11 11.8193 11.0214 12.1336 11.0628 12.4415C11.1309 12.948 11.1649 13.2013 11.142 13.3615C11.1181 13.5284 11.0877 13.6184 11.0055 13.7655C10.9265 13.9068 10.7873 14.046 10.509 14.3243L4.54673 20.2866C4.34496 20.4884 4.24407 20.5893 4.17192 20.707C4.10795 20.8114 4.06081 20.9252 4.03224 21.0442C4 21.1785 4 21.3212 4 21.6065V23.6333C4 24.2867 4 24.6134 4.12716 24.863C4.23901 25.0825 4.41749 25.261 4.63701 25.3728C4.88657 25.5 5.21327 25.5 5.86667 25.5H8.66667V23.1667H11V20.8333H13.3333L15.1757 18.991C15.454 18.7127 15.5932 18.5735 15.7345 18.4945C15.8816 18.4123 15.9716 18.3819 16.1385 18.358C16.2987 18.3351 16.552 18.3691 17.0585 18.4372C17.3664 18.4786 17.6807 18.5 18 18.5Z"/></symbol><symbol viewBox="0 0 24 24" fill="none" stroke="stroke" stroke-width="1.66667" stroke-linecap="round" stroke-linejoin="round" id="lifebuoy" xmlns="http://www.w3.org/2000/svg"><path d="M9.13626 9.13628L4.92893 4.92896M4.92893 19.0711L9.16797 14.8321M14.8611 14.8638L19.0684 19.0711M19.0684 4.92896L14.8287 9.16862M22 12C22 17.5228 17.5228 22 12 22C6.47715 22 2 17.5228 2 12C2 6.47715 6.47715 2 12 2C17.5228 2 22 6.47715 22 12ZM16 12C16 14.2091 14.2091 16 12 16C9.79086 16 8 14.2091 8 12C8 9.79086 9.79086 8 12 8C14.2091 8 16 9.79086 16 12Z"/></symbol><symbol viewBox="0 0 24 24" fill="none" stroke="stroke" stroke-width="1.66667" stroke-linecap="round" stroke-linejoin="round" id="lightbulb" xmlns="http://www.w3.org/2000/svg"><path d="M10 17.6586V20C10 21.1046 10.8954 22 12 22C13.1046 22 14 21.1046 14 20V17.6586M12 2V3M3 12H2M5.5 5.5L4.8999 4.8999M18.5 5.5L19.1002 4.8999M22 12H21M18 12C18 15.3137 15.3137 18 12 18C8.68629 18 6 15.3137 6 12C6 8.68629 8.68629 6 12 6C15.3137 6 18 8.68629 18 12Z"/></symbol><symbol viewBox="0 0 20 20" fill="none" stroke="stroke" stroke-width="1.66667" stroke-linecap="round" stroke-linejoin="round" id="line-chart-up" xmlns="http://www.w3.org/2000/svg"><path d="M17.5 17.5H3.83333C3.36662 17.5 3.13327 17.5 2.95501 17.4092C2.79821 17.3293 2.67072 17.2018 2.59083 17.045C2.5 16.8667 2.5 16.6334 2.5 16.1667V2.5M16.6667 6.66667L13.4009 10.1522C13.2772 10.2843 13.2153 10.3504 13.1406 10.3845C13.0747 10.4146 13.0021 10.4271 12.93 10.4206C12.8482 10.4132 12.7679 10.3715 12.6072 10.2881L9.89277 8.8786C9.73212 8.79519 9.65179 8.75348 9.57003 8.74611C9.49787 8.73961 9.42526 8.75204 9.35936 8.78217C9.28471 8.81631 9.22282 8.88236 9.09906 9.01445L5.83333 12.5"/></symbol><symbol viewBox="0 0 21 20" fill="none" stroke="stroke" stroke-width="1.66667" stroke-linecap="round" stroke-linejoin="round" id="link-external" xmlns="http://www.w3.org/2000/svg"><g id="btlink-external-01"><path id="btIcon" d="M18.1667 7.5L18.1667 2.5M18.1667 2.5H13.1667M18.1667 2.5L11.5001 9.16667M9.00008 4.16667H7.16675C5.76662 4.16667 5.06655 4.16667 4.53177 4.43915C4.06137 4.67883 3.67892 5.06129 3.43923 5.53169C3.16675 6.06647 3.16675 6.76654 3.16675 8.16667V13.5C3.16675 14.9001 3.16675 15.6002 3.43923 16.135C3.67892 16.6054 4.06137 16.9878 4.53177 17.2275C5.06655 17.5 5.76662 17.5 7.16675 17.5H12.5001C13.9002 17.5 14.6003 17.5 15.1351 17.2275C15.6055 16.9878 15.9879 16.6054 16.2276 16.135C16.5001 15.6002 16.5001 14.9001 16.5001 13.5V11.6667"/></g></symbol><symbol viewBox="0 0 20 20" fill="none" stroke="stroke" stroke-width="1.66667" stroke-linecap="round" stroke-linejoin="round" id="list" xmlns="http://www.w3.org/2000/svg"><g id="bulist"><path id="buIcon" d="M17.5 9.99996L7.5 9.99996M17.5 4.99996L7.5 4.99996M17.5 15L7.5 15M4.16667 9.99996C4.16667 10.4602 3.79357 10.8333 3.33333 10.8333C2.8731 10.8333 2.5 10.4602 2.5 9.99996C2.5 9.53972 2.8731 9.16663 3.33333 9.16663C3.79357 9.16663 4.16667 9.53972 4.16667 9.99996ZM4.16667 4.99996C4.16667 5.4602 3.79357 5.83329 3.33333 5.83329C2.8731 5.83329 2.5 5.4602 2.5 4.99996C2.5 4.53972 2.8731 4.16663 3.33333 4.16663C3.79357 4.16663 4.16667 4.53972 4.16667 4.99996ZM4.16667 15C4.16667 15.4602 3.79357 15.8333 3.33333 15.8333C2.8731 15.8333 2.5 15.4602 2.5 15C2.5 14.5397 2.8731 14.1666 3.33333 14.1666C3.79357 14.1666 4.16667 14.5397 4.16667 15Z"/></g></symbol><symbol viewBox="0 0 24 24" fill="none" stroke="stroke" stroke-width="1.66667" stroke-linecap="round" stroke-linejoin="round" id="lock" xmlns="http://www.w3.org/2000/svg"><path d="M14.1666 8.33333V6.66667C14.1666 4.36548 12.3011 2.5 9.99992 2.5C7.69873 2.5 5.83325 4.36548 5.83325 6.66667V8.33333M9.99992 12.0833V13.75M7.33325 17.5H12.6666C14.0667 17.5 14.7668 17.5 15.3016 17.2275C15.772 16.9878 16.1544 16.6054 16.3941 16.135C16.6666 15.6002 16.6666 14.9001 16.6666 13.5V12.3333C16.6666 10.9332 16.6666 10.2331 16.3941 9.69836C16.1544 9.22795 15.772 8.8455 15.3016 8.60582C14.7668 8.33333 14.0667 8.33333 12.6666 8.33333H7.33325C5.93312 8.33333 5.23306 8.33333 4.69828 8.60582C4.22787 8.8455 3.84542 9.22795 3.60574 9.69836C3.33325 10.2331 3.33325 10.9332 3.33325 12.3333V13.5C3.33325 14.9001 3.33325 15.6002 3.60574 16.135C3.84542 16.6054 4.22787 16.9878 4.69828 17.2275C5.23306 17.5 5.93312 17.5 7.33325 17.5Z"/></symbol><symbol viewBox="0 0 24 24" fill="none" stroke="stroke" stroke-width="1.66667" stroke-linecap="round" stroke-linejoin="round" id="logout" xmlns="http://www.w3.org/2000/svg"><path d="M16 17L21 12M21 12L16 7M21 12H9M9 3H7.8C6.11984 3 5.27976 3 4.63803 3.32698C4.07354 3.6146 3.6146 4.07354 3.32698 4.63803C3 5.27976 3 6.11984 3 7.8V16.2C3 17.8802 3 18.7202 3.32698 19.362C3.6146 19.9265 4.07354 20.3854 4.63803 20.673C5.27976 21 6.11984 21 7.8 21H9"/></symbol><symbol viewBox="0 0 32 28" fill="none" stroke="stroke" stroke-width="1.66667" stroke-linecap="round" stroke-linejoin="round" id="mail" xmlns="http://www.w3.org/2000/svg"><path d="M4 8.16663L13.5257 14.8346C14.2971 15.3746 14.6828 15.6446 15.1023 15.7492C15.4729 15.8415 15.8605 15.8415 16.231 15.7492C16.6505 15.6446 17.0362 15.3746 17.8076 14.8346L27.3333 8.16663M9.6 23.3333H21.7333C23.6935 23.3333 24.6736 23.3333 25.4223 22.9518C26.0809 22.6163 26.6163 22.0808 26.9519 21.4223C27.3333 20.6736 27.3333 19.6935 27.3333 17.7333V10.2666C27.3333 8.30644 27.3333 7.32635 26.9519 6.57766C26.6163 5.91909 26.0809 5.38366 25.4223 5.0481C24.6736 4.66663 23.6935 4.66663 21.7333 4.66663H9.6C7.63982 4.66663 6.65972 4.66663 5.91103 5.0481C5.25247 5.38366 4.71703 5.91909 4.38148 6.57766C4 7.32635 4 8.30644 4 10.2666V17.7333C4 19.6935 4 20.6736 4.38148 21.4223C4.71703 22.0808 5.25247 22.6163 5.91103 22.9518C6.65972 23.3333 7.63982 23.3333 9.6 23.3333Z"/></symbol><symbol viewBox="0 0 17 16" fill="none" stroke="stroke" stroke-width="1.66667" stroke-linecap="round" stroke-linejoin="round" id="message-circle" xmlns="http://www.w3.org/2000/svg"><path d="M15.4166 8C15.4166 11.7279 12.3945 14.75 8.66663 14.75C7.76877 14.75 6.91185 14.5747 6.12824 14.2565C5.97827 14.1955 5.90328 14.1651 5.84267 14.1515C5.78337 14.1382 5.73949 14.1334 5.67873 14.1333C5.6166 14.1333 5.54894 14.1446 5.41361 14.1672L2.7452 14.6119C2.46576 14.6585 2.32605 14.6818 2.22501 14.6384C2.13659 14.6005 2.06612 14.53 2.0282 14.4416C1.98486 14.3406 2.00815 14.2009 2.05472 13.9214L2.49946 11.253C2.52201 11.1177 2.53329 11.05 2.53328 10.9879C2.53327 10.9271 2.52841 10.8833 2.51512 10.824C2.50154 10.7633 2.47108 10.6884 2.41017 10.5384C2.09193 9.75477 1.91663 8.89786 1.91663 8C1.91663 4.27208 4.9387 1.25 8.66663 1.25C12.3945 1.25 15.4166 4.27208 15.4166 8Z"/></symbol><symbol viewBox="0 0 24 24" fill="none" stroke="stroke" stroke-width="1.66667" stroke-linecap="round" stroke-linejoin="round" id="paper-airplane" xmlns="http://www.w3.org/2000/svg"><path d="M12.0005 19V12M12.292 19.0846L19.2704 21.4208C19.8173 21.6039 20.0908 21.6954 20.2594 21.6297C20.4059 21.5727 20.517 21.4501 20.5594 21.2988C20.6082 21.1245 20.4903 20.8614 20.2545 20.3351L12.766 3.62232C12.5354 3.10762 12.4201 2.85027 12.2594 2.77053C12.1199 2.70125 11.956 2.70099 11.8162 2.76982C11.6553 2.84905 11.5392 3.10602 11.3069 3.61998L3.75244 20.336C3.51474 20.862 3.39589 21.125 3.44422 21.2994C3.48619 21.4509 3.59697 21.5738 3.74329 21.6313C3.91178 21.6975 4.18567 21.6066 4.73346 21.4248L11.786 19.084C11.8799 19.0528 11.9268 19.0372 11.9749 19.0311C12.0175 19.0256 12.0606 19.0257 12.1032 19.0312C12.1512 19.0375 12.1981 19.0532 12.292 19.0846Z"/></symbol><symbol viewBox="0 0 24 24" fill="none" stroke="stroke" stroke-width="1.66667" stroke-linecap="round" stroke-linejoin="round" id="pie-chart" xmlns="http://www.w3.org/2000/svg"><path d="M12 2C13.3132 2 14.6136 2.25866 15.8268 2.76121C17.0401 3.26375 18.1425 4.00035 19.0711 4.92893C19.9997 5.85752 20.7363 6.95991 21.2388 8.17317C21.7413 9.38643 22 10.6868 22 12M12 2V12M12 2C6.47715 2 2 6.47715 2 12C2 17.5228 6.47715 22 12 22C17.5228 22 22 17.5229 22 12M12 2C17.5228 2 22 6.47716 22 12M22 12L12 12M22 12C22 13.5781 21.6265 15.1338 20.9101 16.5399C20.1936 17.946 19.1546 19.1626 17.8779 20.0902L12 12"/></symbol><symbol viewBox="0 0 24 24" fill="none" stroke="stroke" stroke-width="1.66667" stroke-linecap="round" stroke-linejoin="round" id="piggy-bank" xmlns="http://www.w3.org/2000/svg"><path d="M4.99993 13C4.99993 14.6484 5.66466 16.1415 6.74067 17.226C6.84445 17.3305 6.89633 17.3828 6.92696 17.4331C6.95619 17.4811 6.9732 17.5224 6.98625 17.5771C6.99993 17.6343 6.99993 17.6995 6.99993 17.8298V20.2C6.99993 20.48 6.99993 20.62 7.05443 20.727C7.10236 20.8211 7.17885 20.8976 7.27293 20.9455C7.37989 21 7.5199 21 7.79993 21H9.69993C9.97996 21 10.12 21 10.2269 20.9455C10.321 20.8976 10.3975 20.8211 10.4454 20.727C10.4999 20.62 10.4999 20.48 10.4999 20.2V19.8C10.4999 19.52 10.4999 19.38 10.5544 19.273C10.6024 19.1789 10.6789 19.1024 10.7729 19.0545C10.8799 19 11.0199 19 11.2999 19H12.6999C12.98 19 13.12 19 13.2269 19.0545C13.321 19.1024 13.3975 19.1789 13.4454 19.273C13.4999 19.38 13.4999 19.52 13.4999 19.8V20.2C13.4999 20.48 13.4999 20.62 13.5544 20.727C13.6024 20.8211 13.6789 20.8976 13.7729 20.9455C13.8799 21 14.0199 21 14.2999 21H16.2C16.48 21 16.62 21 16.727 20.9455C16.8211 20.8976 16.8976 20.8211 16.9455 20.727C17 20.62 17 20.48 17 20.2V19.2243C17 19.0223 17 18.9212 17.0288 18.8401C17.0563 18.7624 17.0911 18.708 17.15 18.6502C17.2114 18.59 17.3155 18.5417 17.5237 18.445C18.5059 17.989 19.344 17.2751 19.9511 16.3902C20.0579 16.2346 20.1112 16.1568 20.1683 16.1108C20.2228 16.0668 20.2717 16.0411 20.3387 16.021C20.4089 16 20.4922 16 20.6587 16H21.2C21.48 16 21.62 16 21.727 15.9455C21.8211 15.8976 21.8976 15.8211 21.9455 15.727C22 15.62 22 15.48 22 15.2V11.7857C22 11.5192 22 11.3859 21.9505 11.283C21.9013 11.181 21.819 11.0987 21.717 11.0495C21.6141 11 21.4808 11 21.2143 11C21.0213 11 20.9248 11 20.8471 10.9738C20.7633 10.9456 20.7045 10.908 20.6437 10.8438C20.5874 10.7842 20.5413 10.6846 20.4493 10.4855C20.1538 9.84622 19.7492 9.26777 19.2593 8.77404C19.1555 8.66945 19.1036 8.61716 19.073 8.56687C19.0437 8.51889 19.0267 8.47759 19.0137 8.42294C19 8.36567 19 8.30051 19 8.17018V7.06058C19 6.70053 19 6.52051 18.925 6.39951C18.8593 6.29351 18.7564 6.21588 18.6365 6.18184C18.4995 6.14299 18.3264 6.19245 17.9802 6.29136L15.6077 6.96922C15.5673 6.98074 15.5472 6.9865 15.5267 6.99054C15.5085 6.99414 15.4901 6.99671 15.4716 6.99826C15.4508 7 15.4298 7 15.3879 7H14.959M4.99993 13C4.99993 10.6959 6.29864 8.6952 8.20397 7.6899M4.99993 13H4C2.89543 13 2 12.1046 2 11C2 10.2597 2.4022 9.61337 3 9.26756M15 6.5C15 8.433 13.433 10 11.5 10C9.567 10 8 8.433 8 6.5C8 4.567 9.567 3 11.5 3C13.433 3 15 4.567 15 6.5Z"/></symbol><symbol viewBox="0 0 24 24" fill="none" stroke="stroke" stroke-width="1.66667" stroke-linecap="round" stroke-linejoin="round" id="plus" xmlns="http://www.w3.org/2000/svg"><g id="ccplus"><path id="ccIcon" d="M12 5V19M5 12H19"/></g></symbol><symbol viewBox="0 0 24 24" fill="none" stroke="stroke" stroke-width="1.66667" stroke-linecap="round" stroke-linejoin="round" id="presentation-chart" xmlns="http://www.w3.org/2000/svg"><path d="M12 16V21M12 16L18 21M12 16L6 21M21 3V11.2C21 12.8802 21 13.7202 20.673 14.362C20.3854 14.9265 19.9265 15.3854 19.362 15.673C18.7202 16 17.8802 16 16.2 16H7.8C6.11984 16 5.27976 16 4.63803 15.673C4.07354 15.3854 3.6146 14.9265 3.32698 14.362C3 13.7202 3 12.8802 3 11.2V3M8 9V12M12 7V12M16 11V12M22 3H2"/></symbol><symbol viewBox="0 0 20 20" fill="none" stroke="stroke" stroke-width="1.66667" stroke-linecap="round" stroke-linejoin="round" id="refresh" xmlns="http://www.w3.org/2000/svg"><path d="M17.0441 10.7441C16.8126 12.9191 15.5802 14.9572 13.5411 16.1345C10.1532 18.0905 5.82108 16.9297 3.86507 13.5418L3.65674 13.1809M2.95503 9.25578C3.18653 7.08086 4.41885 5.04276 6.45801 3.86545C9.84591 1.90944 14.178 3.07023 16.134 6.45813L16.3424 6.81898M2.91089 15.055L3.52093 12.7783L5.79764 13.3883M14.2019 6.61161L16.4786 7.22165L17.0887 4.94495"/></symbol><symbol viewBox="0 0 24 24" fill="none" stroke="stroke" stroke-width="1.66667" stroke-linecap="round" stroke-linejoin="round" id="rocket" xmlns="http://www.w3.org/2000/svg"><path d="M12.9996 10.9999L3.49964 20.4999M14.0181 3.53838C15.2361 4.34658 16.4068 5.29941 17.5008 6.3934C18.6042 7.49683 19.564 8.67831 20.3767 9.90766M9.2546 7.89605L6.37973 6.93776C6.04865 6.8274 5.68398 6.89763 5.41756 7.12306L2.56041 9.54065C1.97548 10.0356 2.14166 10.9775 2.86064 11.2424L5.56784 12.2398M11.6807 18.3524L12.6781 21.0596C12.943 21.7786 13.8849 21.9448 14.3798 21.3599L16.7974 18.5027C17.0228 18.2363 17.0931 17.8716 16.9827 17.5405L16.0244 14.6657M19.3482 2.27063L14.4418 3.08838C13.9119 3.17668 13.426 3.43709 13.0591 3.82932L6.446 10.8985C4.73185 12.7308 4.77953 15.5924 6.55378 17.3667C8.32803 19.1409 11.1896 19.1886 13.022 17.4744L20.0911 10.8614C20.4834 10.4944 20.7438 10.0085 20.8321 9.47869L21.6498 4.57222C21.8754 3.21858 20.7019 2.04503 19.3482 2.27063Z"/></symbol><symbol viewBox="0 0 20 20" fill="none" stroke="stroke" stroke-width="1.66667" stroke-linecap="round" stroke-linejoin="round" id="save" xmlns="http://www.w3.org/2000/svg"><path d="M12.5 6.66667H7.16667C6.69996 6.66667 6.4666 6.66667 6.28834 6.57584C6.13154 6.49594 6.00406 6.36846 5.92416 6.21166C5.83333 6.0334 5.83333 5.80004 5.83333 5.33333V2.5M14.1667 17.5V12.1667C14.1667 11.7 14.1667 11.4666 14.0758 11.2883C13.9959 11.1315 13.8685 11.0041 13.7117 10.9242C13.5334 10.8333 13.3 10.8333 12.8333 10.8333H7.16667C6.69996 10.8333 6.4666 10.8333 6.28834 10.9242C6.13154 11.0041 6.00406 11.1315 5.92416 11.2883C5.83333 11.4666 5.83333 11.7 5.83333 12.1667V17.5M17.5 7.77124V13.5C17.5 14.9001 17.5 15.6002 17.2275 16.135C16.9878 16.6054 16.6054 16.9878 16.135 17.2275C15.6002 17.5 14.9001 17.5 13.5 17.5H6.5C5.09987 17.5 4.3998 17.5 3.86502 17.2275C3.39462 16.9878 3.01217 16.6054 2.77248 16.135C2.5 15.6002 2.5 14.9001 2.5 13.5V6.5C2.5 5.09987 2.5 4.3998 2.77248 3.86502C3.01217 3.39462 3.39462 3.01217 3.86502 2.77248C4.3998 2.5 5.09987 2.5 6.5 2.5H12.2288C12.6364 2.5 12.8402 2.5 13.0321 2.54605C13.2021 2.58688 13.3647 2.65422 13.5138 2.7456C13.682 2.84867 13.8261 2.9928 14.1144 3.28105L16.719 5.88562C17.0072 6.17387 17.1513 6.318 17.2544 6.48619C17.3458 6.63531 17.4131 6.79789 17.4539 6.96795C17.5 7.15976 17.5 7.36358 17.5 7.77124Z"/></symbol><symbol viewBox="0 0 20 20" fill="#667085" stroke="stroke" stroke-width="1.66667" stroke-linecap="round" stroke-linejoin="round" id="save-star" xmlns="http://www.w3.org/2000/svg"><path d="M2.11046 9.20429L2.63376 8.66702L2.11046 9.20429L5.02742 12.0454L4.33915 16.0584L4.3345 16.0854C4.30185 16.2756 4.26924 16.4655 4.25677 16.6231C4.24467 16.7759 4.23471 17.0476 4.37819 17.3118C4.54615 17.621 4.84472 17.8379 5.19073 17.902C5.48629 17.9568 5.7416 17.8634 5.88321 17.8046C6.02918 17.744 6.19971 17.6543 6.37048 17.5645L6.39482 17.5517L9.99997 15.6558L13.6051 17.5517L13.6295 17.5645C13.8002 17.6543 13.9708 17.744 14.1167 17.8046C14.2583 17.8634 14.5137 17.9568 14.8092 17.902C15.1552 17.8379 15.4538 17.621 15.6218 17.3118C15.7652 17.0476 15.7553 16.7759 15.7432 16.6231C15.7307 16.4655 15.6981 16.2756 15.6654 16.0854L15.6608 16.0584L14.9725 12.0454L17.8895 9.20429L17.9092 9.18513C18.0473 9.0506 18.1853 8.91624 18.288 8.7962C18.3877 8.67973 18.5554 8.46593 18.5948 8.16805C18.6408 7.81926 18.527 7.46832 18.2851 7.21292C18.0784 6.9948 17.8171 6.92011 17.6681 6.88427C17.5145 6.84733 17.3239 6.81951 17.1331 6.79165L17.1059 6.78768L13.0732 6.19823L11.2703 2.54584L11.2581 2.52117C11.1728 2.34818 11.0875 2.17542 11.005 2.04067C10.925 1.90992 10.7734 1.68433 10.5021 1.55498C10.1845 1.40355 9.81548 1.40355 9.49787 1.55498C9.22659 1.68433 9.07495 1.90992 8.9949 2.04067C8.9124 2.17542 8.82716 2.34818 8.74181 2.52117C8.73775 2.52939 8.7337 2.53762 8.72964 2.54584L6.92678 6.19823L2.89402 6.78768C2.88496 6.78901 2.87589 6.79033 2.86682 6.79165C2.67601 6.81951 2.48544 6.84733 2.33185 6.88427C2.18281 6.92011 1.92153 6.9948 1.71488 7.21292C1.47292 7.46832 1.35913 7.81926 1.40519 8.16805C1.44453 8.46593 1.61227 8.67973 1.71192 8.7962C1.81462 8.91624 1.95261 9.05059 2.09077 9.18512C2.09733 9.19151 2.1039 9.1979 2.11046 9.20429Z"/></symbol><symbol viewBox="0 0 20 20" fill="none" stroke="stroke" stroke-width="1.66667" stroke-linecap="round" stroke-linejoin="round" id="search-refraction" xmlns="http://www.w3.org/2000/svg"><g id="cisearch-refraction"><path id="ciIcon" d="M17.5 17.5L13.875 13.875M9.16667 5C11.4679 5 13.3333 6.86548 13.3333 9.16667M15.8333 9.16667C15.8333 12.8486 12.8486 15.8333 9.16667 15.8333C5.48477 15.8333 2.5 12.8486 2.5 9.16667C2.5 5.48477 5.48477 2.5 9.16667 2.5C12.8486 2.5 15.8333 5.48477 15.8333 9.16667Z"/></g></symbol><symbol viewBox="0 0 24 24" fill="none" stroke="stroke" stroke-width="1.66667" stroke-linecap="round" stroke-linejoin="round" id="shield-dollar" xmlns="http://www.w3.org/2000/svg"><path d="M9.21296 14.5C9.52517 15.0945 10.1486 15.5 10.8667 15.5H13C14.1046 15.5 15 14.6046 15 13.5C15 12.3954 14.1046 11.5 13 11.5H11C9.89543 11.5 9 10.6046 9 9.49999C9 8.39542 9.89543 7.49999 11 7.49999H13.1333C13.8514 7.49999 14.4748 7.90549 14.787 8.49999M12 5.99999V7.49999M12 15.5V17M20 12C20 16.9084 14.646 20.4784 12.698 21.6149C12.4766 21.744 12.3659 21.8086 12.2097 21.8421C12.0884 21.8681 11.9116 21.8681 11.7903 21.8421C11.6341 21.8086 11.5234 21.744 11.302 21.6149C9.35396 20.4784 4 16.9084 4 12V7.21759C4 6.41808 4 6.01833 4.13076 5.6747C4.24627 5.37113 4.43398 5.10027 4.67766 4.88552C4.9535 4.64243 5.3278 4.50207 6.0764 4.22134L11.4382 2.21067C11.6461 2.13271 11.75 2.09373 11.857 2.07827C11.9518 2.06457 12.0482 2.06457 12.143 2.07827C12.25 2.09373 12.3539 2.13271 12.5618 2.21067L17.9236 4.22134C18.6722 4.50207 19.0465 4.64243 19.3223 4.88552C19.566 5.10027 19.7537 5.37113 19.8692 5.6747C20 6.01833 20 6.41808 20 7.21759V12Z"/></symbol><symbol viewBox="0 0 20 21" fill="none" stroke="stroke" stroke-width="1.66667" stroke-linecap="round" stroke-linejoin="round" id="star" xmlns="http://www.w3.org/2000/svg"><g clip-path="url(#ckclip0_754_32269)"><path d="M9.53834 2.10996C9.70914 1.69932 10.2909 1.69932 10.4617 2.10996L12.5278 7.07744C12.5998 7.25056 12.7626 7.36885 12.9495 7.38383L18.3123 7.81376C18.7556 7.8493 18.9354 8.40256 18.5976 8.69189L14.5117 12.1919C14.3693 12.3139 14.3071 12.5053 14.3506 12.6876L15.5989 17.9208C15.7021 18.3534 15.2315 18.6954 14.8519 18.4635L10.2606 15.6592C10.1006 15.5615 9.89938 15.5615 9.73937 15.6592L5.14806 18.4635C4.76851 18.6954 4.29788 18.3534 4.40108 17.9208L5.64939 12.6876C5.69289 12.5053 5.6307 12.3139 5.48831 12.1919L1.40241 8.69189C1.06464 8.40256 1.24441 7.8493 1.68773 7.81376L7.05054 7.38383C7.23744 7.36885 7.40024 7.25056 7.47225 7.07744L9.53834 2.10996Z" fill="#F9FAFB"/><g clip-path="url(#ckclip1_754_32269)"><path d="M9.53834 2.10996C9.70914 1.69932 10.2909 1.69932 10.4617 2.10996L12.5278 7.07744C12.5998 7.25056 12.7626 7.36885 12.9495 7.38383L18.3123 7.81376C18.7556 7.8493 18.9354 8.40256 18.5976 8.69189L14.5117 12.1919C14.3693 12.3139 14.3071 12.5053 14.3506 12.6876L15.5989 17.9208C15.7021 18.3534 15.2315 18.6954 14.8519 18.4635L10.2606 15.6592C10.1006 15.5615 9.89938 15.5615 9.73937 15.6592L5.14806 18.4635C4.76851 18.6954 4.29788 18.3534 4.40108 17.9208L5.64939 12.6876C5.69289 12.5053 5.6307 12.3139 5.48831 12.1919L1.40241 8.69189C1.06464 8.40256 1.24441 7.8493 1.68773 7.81376L7.05054 7.38383C7.23744 7.36885 7.40024 7.25056 7.47225 7.07744L9.53834 2.10996Z" fill="#2B3674"/></g></g><defs><clipPath id="ckclip0_754_32269"><rect width="20" height="20" fill="white" transform="translate(0 0.5)"/></clipPath><clipPath id="ckclip1_754_32269"><rect width="20" height="20" fill="white" transform="translate(0 0.5)"/></clipPath></defs></symbol><symbol viewBox="0 0 24 24" fill="none" stroke="stroke" stroke-width="1.66667" stroke-linecap="round" stroke-linejoin="round" id="target" xmlns="http://www.w3.org/2000/svg"><path d="M16 8.5V5.5L19 2.5L20 4.5L22 5.5L19 8.5H16ZM16 8.5L12 12.4999M22 12.5C22 18.0228 17.5228 22.5 12 22.5C6.47715 22.5 2 18.0228 2 12.5C2 6.97715 6.47715 2.5 12 2.5M17 12.5C17 15.2614 14.7614 17.5 12 17.5C9.23858 17.5 7 15.2614 7 12.5C7 9.73858 9.23858 7.5 12 7.5"/></symbol><symbol viewBox="0 0 20 20" fill="none" stroke="stroke" stroke-width="1.66667" stroke-linecap="round" stroke-linejoin="round" id="thermometer" xmlns="http://www.w3.org/2000/svg"><g id="cmthermometer-02"><g id="cmIcon"><path d="M12.0833 3.74935C12.0833 2.59876 11.1506 1.66602 10 1.66602C8.84941 1.66602 7.91667 2.59875 7.91667 3.74935V11.4642C6.91168 12.1369 6.25 13.2825 6.25 14.5827C6.25 16.6538 7.92893 18.3327 10 18.3327C12.0711 18.3327 13.75 16.6538 13.75 14.5827C13.75 13.2825 13.0883 12.1369 12.0833 11.4642V3.74935Z"/><path d="M10 15.416C10.4602 15.416 10.8333 15.0429 10.8333 14.5827C10.8333 14.1224 10.4602 13.7493 10 13.7493C9.53976 13.7493 9.16667 14.1224 9.16667 14.5827C9.16667 15.0429 9.53976 15.416 10 15.416Z"/></g></g></symbol><symbol viewBox="0 0 20 21" fill="none" stroke="stroke" stroke-width="1.66667" stroke-linecap="round" stroke-linejoin="round" id="threeStars" xmlns="http://www.w3.org/2000/svg"><path d="M3.75002 18.8333V14.6666M3.75002 6.33329V2.16663M1.66669 4.24996H5.83335M1.66669 16.75H5.83335M10.8334 2.99996L9.38821 6.75734C9.1532 7.36837 9.03569 7.67388 8.85296 7.93086C8.69101 8.15862 8.49202 8.35762 8.26426 8.51957C8.00728 8.7023 7.70176 8.8198 7.09074 9.05481L3.33335 10.5L7.09074 11.9451C7.70176 12.1801 8.00728 12.2976 8.26426 12.4804C8.49202 12.6423 8.69101 12.8413 8.85296 13.0691C9.03569 13.326 9.1532 13.6315 9.38821 14.2426L10.8334 18L12.2785 14.2426C12.5135 13.6315 12.631 13.326 12.8137 13.0691C12.9757 12.8413 13.1747 12.6423 13.4025 12.4804C13.6594 12.2976 13.9649 12.1801 14.576 11.9451L18.3334 10.5L14.576 9.05481C13.9649 8.8198 13.6594 8.7023 13.4024 8.51957C13.1747 8.35762 12.9757 8.15862 12.8137 7.93086C12.631 7.67388 12.5135 7.36837 12.2785 6.75734L10.8334 2.99996Z"/></symbol><symbol viewBox="0 0 24 24" fill="none" stroke="stroke" stroke-width="1.66667" stroke-linecap="round" stroke-linejoin="round" id="trash" xmlns="http://www.w3.org/2000/svg"><path d="M16 6V5.2C16 4.0799 16 3.51984 15.782 3.09202C15.5903 2.71569 15.2843 2.40973 14.908 2.21799C14.4802 2 13.9201 2 12.8 2H11.2C10.0799 2 9.51984 2 9.09202 2.21799C8.71569 2.40973 8.40973 2.71569 8.21799 3.09202C8 3.51984 8 4.0799 8 5.2V6M10 11.5V16.5M14 11.5V16.5M3 6H21M19 6V17.2C19 18.8802 19 19.7202 18.673 20.362C18.3854 20.9265 17.9265 21.3854 17.362 21.673C16.7202 22 15.8802 22 14.2 22H9.8C8.11984 22 7.27976 22 6.63803 21.673C6.07354 21.3854 5.6146 20.9265 5.32698 20.362C5 19.7202 5 18.8802 5 17.2V6"/></symbol><symbol viewBox="0 0 24 24" fill="none" stroke="stroke" stroke-width="1.66667" stroke-linecap="round" stroke-linejoin="round" id="trendup" xmlns="http://www.w3.org/2000/svg"><path d="M22 7L14.1314 14.8686C13.7354 15.2646 13.5373 15.4627 13.309 15.5368C13.1082 15.6021 12.8918 15.6021 12.691 15.5368C12.4627 15.4627 12.2646 15.2646 11.8686 14.8686L9.13137 12.1314C8.73535 11.7354 8.53735 11.5373 8.30902 11.4632C8.10817 11.3979 7.89183 11.3979 7.69098 11.4632C7.46265 11.5373 7.26465 11.7354 6.86863 12.1314L2 17M22 7H15M22 7V14"/></symbol><symbol viewBox="0 0 19 18" fill="none" stroke="stroke" stroke-width="1.66667" stroke-linecap="round" stroke-linejoin="round" id="umbrella" xmlns="http://www.w3.org/2000/svg"><path id="cqIcon" d="M5.58334 14.55C5.58334 15.627 6.42281 16.5 7.45834 16.5C8.49388 16.5 9.33334 15.627 9.33334 14.55V8.25M9.33334 8.25C8.12571 8.25 6.33334 9 6.33334 9C6.33334 9 5.29097 8.25 4.08334 8.25C2.87571 8.25 1.83334 9 1.83334 9C1.83334 4.85786 5.19121 1.5 9.33334 1.5C13.4755 1.5 16.8333 4.85786 16.8333 9C16.8333 9 15.791 8.25 14.5833 8.25C13.3757 8.25 12.3333 9 12.3333 9C12.3333 9 10.541 8.25 9.33334 8.25Z"/></symbol><symbol viewBox="0 0 20 20" fill="none" stroke="stroke" stroke-width="1.66667" stroke-linecap="round" stroke-linejoin="round" id="user-group" xmlns="http://www.w3.org/2000/svg"><g id="crusers-01"><path id="crIcon" d="M18.3334 17.5V15.8333C18.3334 14.2801 17.271 12.9751 15.8334 12.605M12.9167 2.7423C14.1383 3.23679 15 4.43443 15 5.83333C15 7.23224 14.1383 8.42988 12.9167 8.92437M14.1667 17.5C14.1667 15.9469 14.1667 15.1703 13.913 14.5577C13.5746 13.741 12.9257 13.092 12.109 12.7537C11.4964 12.5 10.7198 12.5 9.16669 12.5H6.66669C5.11355 12.5 4.33698 12.5 3.72441 12.7537C2.90765 13.092 2.25874 13.741 1.92042 14.5577C1.66669 15.1703 1.66669 15.9469 1.66669 17.5M11.25 5.83333C11.25 7.67428 9.75764 9.16667 7.91669 9.16667C6.07574 9.16667 4.58335 7.67428 4.58335 5.83333C4.58335 3.99238 6.07574 2.5 7.91669 2.5C9.75764 2.5 11.25 3.99238 11.25 5.83333Z"/></g></symbol><symbol viewBox="0 0 20 20" fill="none" stroke="stroke" stroke-width="1.66667" stroke-linecap="round" stroke-linejoin="round" id="users-edit" xmlns="http://www.w3.org/2000/svg"><path d="M9.16675 12.5H6.66675C5.11361 12.5 4.33704 12.5 3.72447 12.7537C2.90771 13.092 2.2588 13.741 1.92048 14.5577C1.66675 15.1703 1.66675 15.9469 1.66675 17.5M12.9167 2.7423C14.1383 3.23679 15.0001 4.43443 15.0001 5.83333M9.99998 17.9167L11.6875 17.5792C11.8347 17.5497 11.9083 17.535 11.9769 17.5081C12.0378 17.4842 12.0956 17.4533 12.1493 17.4159C12.2097 17.3737 12.2628 17.3206 12.3689 17.2145L17.9168 11.6667C18.377 11.2065 18.377 10.4602 17.9168 9.99998C17.4565 9.53975 16.7103 9.53976 16.2501 10L10.7022 15.5479C10.5961 15.654 10.543 15.707 10.5009 15.7675C10.4635 15.8211 10.4325 15.879 10.4086 15.9399C10.3817 16.0085 10.367 16.082 10.3376 16.2292L9.99998 17.9167ZM11.2501 5.83333C11.2501 7.67428 9.7577 9.16667 7.91675 9.16667C6.0758 9.16667 4.58341 7.67428 4.58341 5.83333C4.58341 3.99238 6.0758 2.5 7.91675 2.5C9.7577 2.5 11.2501 3.99238 11.2501 5.83333Z"/></symbol><symbol viewBox="0 0 12 13" fill="none" stroke="stroke" stroke-width="1.66667" stroke-linecap="round" stroke-linejoin="round" id="warning" xmlns="http://www.w3.org/2000/svg"><path d="M5.99988 5.22082V7.22082M5.99988 9.22082H6.00488M5.30754 2.66668L1.19509 9.76999C0.966991 10.164 0.85294 10.361 0.869797 10.5227C0.884499 10.6637 0.958384 10.7918 1.07306 10.8752C1.20454 10.9708 1.43217 10.9708 1.88744 10.9708H10.1123C10.5676 10.9708 10.7952 10.9708 10.9267 10.8752C11.0414 10.7918 11.1153 10.6637 11.13 10.5227C11.1468 10.361 11.0328 10.164 10.8047 9.76999L6.69222 2.66668C6.46493 2.2741 6.35129 2.07781 6.20303 2.01188C6.0737 1.95437 5.92606 1.95437 5.79673 2.01188C5.64846 2.07781 5.53482 2.2741 5.30754 2.66668Z"/></symbol></svg>